<svg width="87" height="73" viewBox="0 0 87 73" fill="none" xmlns="http://www.w3.org/2000/svg">
<path d="M57.7138 53.3394L48.8767 44.7595H75.8462H76.8462V43.7595V33.5763V32.5763H75.8462H64.8662C62.4661 31.0022 61.7273 29.4698 61.8072 28.1524C61.8912 26.7681 62.8897 25.1954 64.914 23.5997H82.7347V23.5998L82.7486 23.5996C84.1817 23.5797 84.6789 23.8431 84.9355 24.2034C85.0906 24.4214 85.2365 24.7788 85.3216 25.3891C85.4067 25.9982 85.4228 26.7948 85.3684 27.8376L85.3671 27.8636V27.8897V49.0494V49.0686L85.3678 49.0878C85.4076 50.1237 85.3821 50.9212 85.291 51.5349C85.1997 52.1504 85.0512 52.5181 84.8919 52.7449C84.6344 53.1116 84.1498 53.378 82.7623 53.3398L82.7485 53.3394H82.7347H57.7138Z" fill="white" stroke="black" stroke-width="2"/>
<path d="M36.9326 17.5696C34.8607 20.1133 33.7243 23.3308 33.0003 27.582L25.7928 20.5843C28.4368 13.9758 30.9315 9.50805 34.0239 6.48706C37.1616 3.42185 40.9965 1.76916 46.4805 1H64.5729H82.3543C84.2104 2.69062 85.0124 4.24214 85.0277 5.73444C85.0431 7.24425 84.2579 8.97346 82.3119 11.0199H48.2273H48.0668L47.9143 11.0701C42.8123 12.7517 39.3111 14.6494 36.9326 17.5696Z" fill="white" stroke="black" stroke-width="2"/>
<path d="M37.3038 46.2408L57.0714 65.4118C57.2852 66.6694 57.3549 67.6478 57.2823 68.4079C57.2054 69.2134 56.9764 69.7042 56.6533 70.0353C56.3204 70.3764 55.7747 70.6641 54.8429 70.8374C53.9815 70.9977 52.863 71.0467 51.4259 70.9906L31.8772 51.8808C31.3547 51.309 30.8993 50.8365 30.496 50.4671C30.0955 50.1002 29.7005 49.7916 29.3012 49.5956C28.8826 49.3901 28.3993 49.2806 27.8865 49.4156C27.4071 49.5419 27.0527 49.8442 26.7903 50.1354L7.14295 70.945C4.53144 70.7573 3.18016 70.262 2.42918 69.4981C1.69799 68.7544 1.33699 67.5514 1.28875 65.3632L22.7423 46.2699L23.5458 45.5548L22.774 44.8054L1.21435 23.8733C1.01335 22.6434 0.953847 21.6853 1.03512 20.9388C1.12114 20.1487 1.35722 19.657 1.69798 19.3174C2.05128 18.9653 2.62598 18.6679 3.59227 18.4836C4.4858 18.3132 5.64344 18.2527 7.12813 18.296L26.592 37.1933C27.2951 37.9678 27.9423 38.573 28.5611 38.9818C29.191 39.3979 29.8648 39.6586 30.5846 39.6116C31.3105 39.5642 31.9096 39.2152 32.4088 38.7639C32.8805 38.3374 33.3199 37.7684 33.7537 37.1303L51.8944 18.3411C54.0893 18.5206 55.3262 18.9287 56.0922 19.6637C56.854 20.3949 57.3377 21.6346 57.5246 23.9869L37.2827 44.8262L36.5854 45.544L37.3038 46.2408Z" fill="#F8FCFB" stroke="black" stroke-width="2"/>
</svg>
