<svg width="1024" height="1024" viewBox="0 0 1024 1024" fill="none" xmlns="http://www.w3.org/2000/svg">
<path d="M720.052 617.97C699.731 598.695 680.04 579.251 659.538 560.705C626.055 530.417 594.265 498.304 559.917 468.948C550.306 460.734 541.444 451.621 532.509 442.65C529.375 439.503 527.229 439.887 524.266 442.638C505.591 459.975 486.872 477.267 468.069 494.465C442.508 517.845 417.433 541.748 391.555 564.79C377.005 577.746 363.456 591.826 348.925 604.804C331.278 620.564 315.755 638.585 297.032 653.176C295.165 654.631 293.962 656.514 293.729 659.314C303.726 658.462 313.312 657.569 322.947 657.912C324.714 657.975 326.082 657.231 327.361 655.979C368.545 615.651 410.476 576.1 453.313 537.544C470.049 522.481 485.075 505.656 502.334 491.216C511.512 483.536 520.792 476.022 529.026 466.337C542.275 484.962 561.366 496.598 576.727 512.281C595.126 531.067 614.755 548.679 634.273 566.333C666.039 595.066 697.189 624.434 727.445 654.75C730.346 657.657 733.476 659.109 737.647 658.889C745.393 658.482 752.929 659.923 760.189 662.555C765.993 664.659 766.932 668.808 761.973 672.448C752.499 679.403 744.036 687.328 736.497 696.288C733.528 699.816 731.671 697.343 729.762 695.15C712.347 675.142 693.21 656.797 674.319 638.239C649.837 614.188 624.466 591.027 600.414 566.563C589.745 555.712 577.896 546.303 567.094 535.695C566.411 535.024 565.553 534.532 564.759 533.944C562.434 535.496 563.279 537.719 563.289 539.512C563.426 565.672 564.107 591.837 563.736 617.988C563.49 635.321 563.775 652.629 564.036 669.946C564.089 673.442 563.199 675.777 559.972 677.694C553.034 681.814 548.895 689.167 542.177 693.681C537.119 697.078 531.595 700.128 529.211 707.866C523.589 698.133 514.514 693.868 508.078 686.769C505.149 683.538 502.059 680.451 498.376 678.184C495.353 676.323 494.779 673.946 494.784 670.681C494.829 641.515 494.881 612.348 494.61 583.184C494.479 569.032 494.198 554.903 495.731 540.801C495.96 538.694 496.31 536.484 495.082 534.197C491.691 533.684 489.862 536.317 487.571 538.075C465.255 555.195 446.967 576.533 426.875 595.982C397.785 624.141 368.249 651.845 340.024 680.887C335.62 685.419 331.287 690.073 327.429 695.063C325.169 697.987 323.726 697.65 321.55 695.38C316.246 689.846 310.658 684.568 305.577 678.839C301.269 673.981 296.023 669.805 291.14 666.112C276.498 655.037 264.433 641.194 249.991 630.027C248.049 628.525 247.601 626.635 247.663 624.326C247.753 620.997 248.02 617.591 247.457 614.349C246.854 610.875 247.899 608.352 250.531 606.541C263.963 597.3 274.578 585.021 286.165 573.787C305.186 555.346 324.272 536.973 343.304 518.544C344.604 517.286 345.682 515.798 347.146 514.087C344.481 511.606 341.396 512.24 338.589 512.313C312.61 512.988 286.626 513.152 260.64 513.288C254.871 513.318 249.129 511.982 243.272 513.396C240.555 514.052 238.549 511.225 236.65 509.456C225.072 498.662 213.434 487.925 202.11 476.867C188.869 463.935 175.145 451.558 160.986 439.653C160.227 439.014 159.365 438.498 158.021 437.553C161.559 433.972 165.268 431.765 168.427 429.03C179.654 419.308 189.858 408.536 200.663 398.388C214.016 385.848 227.081 373.001 240.275 360.291C241.451 359.158 242.429 357.738 244.474 358.15C250.083 359.28 255.768 358.721 261.419 358.724C287.418 358.735 313.418 358.713 339.417 358.58C344.059 358.556 347.416 359.878 350.56 363.696C356.318 370.687 364.852 374.521 371.571 380.51C374.38 383.014 377.661 385.127 378.427 389.977C371.404 389.977 364.665 390.286 357.964 389.917C340.645 388.962 323.316 389.231 305.991 389.146C288.826 389.061 271.659 389.311 254.493 389.234C250.85 389.218 248.477 390.481 245.951 393.177C233.545 406.42 221.338 419.886 207.541 431.741C202.367 436.187 202.361 436.46 206.999 441.376C220.042 455.203 235.671 466.338 248.037 480.856C249.54 482.621 251.404 482.697 253.442 482.76C291.592 483.934 329.754 483.492 367.911 483.74C381.544 483.828 391.019 477.483 398.846 467.168C397.158 465.647 395.417 466.164 393.833 466.153C349.176 465.826 304.519 465.534 259.861 465.247C257.858 465.234 255.963 465.358 254.444 463.491C247.676 455.175 239.46 448.341 231.277 441.517C228.415 439.13 228.584 437.523 231.177 435.209C240 427.338 248.725 419.357 255.712 409.713C257.079 407.826 259.062 407.903 261.113 407.895C280.945 407.821 300.792 408.128 320.606 407.471C343.934 406.698 367.256 406.774 390.583 406.689C391.582 406.685 392.826 406.998 393.542 406.53C399.898 402.367 403.027 407.246 406.739 410.95C410.793 414.996 415.056 418.834 419.096 422.637C416.507 426.67 411.579 423.649 409.277 427.633C406.835 431.859 409.666 434.453 412.137 438.687C406.882 435.515 404.506 431.472 401.496 428.125C399.803 426.242 398.107 425.187 395.518 425.263C376.871 425.809 358.235 424.66 339.584 424.606C312.946 424.528 286.294 426.463 259.662 424.587C257.801 424.456 256.011 424.677 254.338 425.512C254.338 430.32 254.318 435.098 254.345 439.875C254.361 442.692 256.344 442.901 258.49 442.965C265.481 443.176 272.47 443.629 279.461 443.639C322.793 443.7 366.126 443.692 409.458 443.624C413.771 443.617 418.082 443.013 422.398 442.756C424.522 442.629 426.215 441.714 427.712 440.295C430.493 437.658 433.164 434.889 436.1 432.436C439.188 429.856 439.181 427.79 435.987 425.288C428.229 419.211 421.495 412.023 414.439 405.176C403.919 394.968 393.691 384.353 382.341 375.14C372.011 366.755 361.558 358.482 351.104 350.23C335.907 338.231 321.85 325.048 307.945 311.597C289.75 293.997 272.057 275.843 252.757 259.407C250.45 257.442 249.127 255.063 248.943 252.105C248.489 244.79 248.085 237.471 247.754 230.149C247.682 228.566 247.224 226.606 249.194 225.748C250.893 225.007 252.464 225.84 253.853 226.81C255.216 227.762 256.539 228.785 257.8 229.869C280.045 248.968 301.691 268.69 322.955 288.911C354.579 318.985 386.111 349.211 418.682 378.249C439.326 396.653 459.929 415.072 480.036 434.057C487.054 440.685 487.162 440.575 495.498 436.128C498.144 434.716 500.836 433.38 503.404 431.838C506.272 430.116 506.385 427.957 503.789 425.869C478.576 405.586 456.68 381.654 431.914 360.836C414.842 346.486 398.621 331.095 382.39 315.753C358.542 293.212 334.288 271.103 310.334 248.674C299.755 238.769 289.479 228.54 279.091 218.432C277.458 216.843 275.483 215.479 274.638 212.607C276.88 210.972 279.168 209.39 281.355 207.678C282.79 206.554 284.316 205.421 285.397 203.988C295.681 190.342 310.586 181.657 322.28 169.53C324.506 167.223 326.16 168.618 328.108 170.463C349.894 191.103 369.706 213.672 390.974 234.798C407.75 251.461 425.329 267.338 443.801 282.162C444.915 283.056 445.901 284.364 447.83 284.226C449.13 277.473 448.163 270.704 448.11 263.939C447.887 235.108 447.994 206.273 447.552 177.446C447.459 171.348 449.053 167.627 453.946 163.491C466.266 153.076 477.198 141.084 489.052 130.089C502.702 117.429 516.274 104.663 528.979 90.7864C532.189 92.2251 533.741 95.1389 535.988 97.2538C560.488 120.321 583.037 145.405 608.523 167.448C610.336 169.016 610.396 170.69 610.451 172.737C611.38 207.056 610.959 241.383 611.094 275.706C611.104 278.126 610.657 280.685 612.466 283.936C618.372 279.432 624.573 275.551 629.762 270.608C658.718 243.026 687.183 214.94 714.639 185.852C719.78 180.405 724.95 174.975 729.845 169.311C732.06 166.748 733.741 167.306 735.582 169.308C749.054 183.957 764.595 196.242 780.238 208.404C782.977 210.533 783.547 212.55 781.297 215.501C778.65 218.973 775.687 222.107 772.473 225.013C741.09 253.387 710.36 282.462 679.36 311.248C653.615 335.154 627.612 358.813 600.823 381.596C588.157 392.369 576.656 404.512 564.615 416.023C560.643 419.82 556.604 423.546 552.657 427.369C550.048 429.896 550.252 431.812 553.919 433.171C556.88 434.269 559.841 435.5 562.561 437.085C567.223 439.801 570.87 438.636 574.715 435.271C598.404 414.544 621.23 392.866 644.794 371.99C666.096 353.117 686.982 333.719 707.52 313.963C729.965 292.373 752.983 271.371 776.039 250.429C784.047 243.155 792.481 236.342 800.251 228.787C801.202 227.863 802.293 227.072 803.372 226.292C805.034 225.091 806.909 223.963 808.894 225.127C810.901 226.305 809.918 228.4 809.723 230.141C808.865 237.791 809.428 245.46 809.451 253.117C809.461 256.452 808.442 258.653 805.466 260.453C799.466 264.081 794.151 268.627 789.165 273.597C767.441 295.251 744.209 315.268 721.418 335.764C697.769 357.031 672.544 376.497 649.868 398.889C640.64 408.001 630.632 416.329 620.869 424.887C617.402 427.926 616.677 430.607 620.745 433.616C621.67 434.3 622.448 435.22 623.177 436.125C627.471 441.453 632.788 443.013 639.77 442.968C687.098 442.662 734.429 442.885 781.759 442.917C787.924 442.921 794.091 442.732 800.256 442.782C803.412 442.808 804.828 441.54 804.749 438.327C804.634 433.683 804.719 429.035 804.719 424.36C750.24 423.663 695.468 422.875 639.945 424.499C641.296 420.054 644.523 419.073 646.234 416.843C653.482 407.398 663.06 406.295 674.334 406.471C715.322 407.111 756.327 406.707 797.326 406.701C798.94 406.701 800.725 406.192 801.634 408.251C806.015 418.174 815.007 424.193 821.863 432.019C823.684 434.097 825.956 435.78 828.035 437.658C818.767 446.364 808.182 452.947 800.844 463.012C799.957 464.227 798.599 464.225 797.284 464.484C792.664 465.391 787.995 465.31 783.333 465.296C747.001 465.193 710.67 465.063 674.338 464.947C668.739 464.93 663.14 464.945 657.296 465.812C665.912 472.95 671.44 483.347 685.34 482.943C715.481 482.066 745.666 482.519 775.83 482.74C785.654 482.811 795.464 481.406 805.284 482.572C807.371 482.82 808.717 481.615 810.054 480.319C823.567 467.214 837.025 454.051 850.643 441.057C853.646 438.191 853.918 436.304 851.041 432.889C838.204 417.653 822.775 405.11 808.636 391.235C807.056 389.684 805.235 389.418 803.167 389.36C773.847 388.544 744.522 388 715.192 388.406C706.373 388.528 697.562 389.2 688.745 389.573C686.468 389.669 684.184 389.587 681.262 389.587C685.037 383.1 689.84 378.392 694.903 373.895C699.37 369.929 704.445 366.7 708.146 361.797C710.562 358.596 714.718 358.743 718.329 358.78C729.318 358.89 740.285 358.042 751.291 358.499C770.782 359.308 790.254 357.199 809.763 357.736C813.964 357.851 817.191 358.922 819.624 362.362C822.453 366.363 826.581 369.037 830.076 372.359C847.703 389.116 865.344 405.858 883.065 422.516C887.556 426.737 890.936 432.029 896.043 435.645C898.282 437.231 897.184 438.586 895.613 440.03C879.675 454.686 863.798 469.408 847.862 484.065C839.894 491.394 831.398 498.208 823.957 506.031C817.476 512.845 809.688 514.204 801.274 513.712C781.816 512.573 762.326 513.158 742.873 512.261C733.735 511.84 724.617 511.014 715.486 510.429C713.701 510.315 711.842 509.811 709.861 510.994C709.727 513.58 711.793 515.057 713.339 516.526C727.461 529.957 740.311 544.649 754.735 557.8C765.805 567.893 776.057 578.876 786.954 589.165C793.978 595.797 801.168 602.242 808.032 609.056C811.751 612.748 809.74 617.27 810.99 621.281C812.33 625.584 810.816 628.833 806.688 631.709C796.427 638.859 786.896 646.95 779.882 657.567C779.258 658.511 778.235 659.206 777.35 659.962C771.441 665.014 771.509 664.958 767.063 658.695C765.732 656.821 764.128 654.929 762.223 653.708C746.664 643.735 733.938 630.445 720.052 617.97ZM281.439 629.495C297.608 615.583 311.968 599.791 327.473 585.171C358.381 556.028 389.529 527.151 420.583 498.169C434.209 485.452 448.16 473.028 460.86 459.316C463.946 455.984 463.95 453.895 460.166 451.505C457.211 449.639 454.27 447.691 451.602 445.447C448.546 442.876 446.367 443.856 443.943 446.34C420.43 470.435 394.938 492.418 370.296 515.31C338.771 544.595 309.94 576.466 281.429 608.631C278.424 612.021 277.685 615.862 278.992 620.258C279.935 623.428 281.02 626.61 280.691 630.742C280.205 636.116 279.718 641.491 279.232 646.866C281.691 641.392 280.028 635.57 281.439 629.495ZM519.335 187.505C519.247 237.161 519.177 286.816 519.042 336.471C519.03 341.099 519.356 345.426 523.553 348.412C525.97 350.132 527.504 353.877 531.477 351.96C535.724 349.911 540.026 347.921 539.639 341.954C539.283 336.473 539.013 330.975 538.999 325.484C538.939 301.823 539.303 278.156 538.907 254.501C538.495 229.85 540.667 205.212 539.046 180.563C538.899 178.33 539.305 176.061 539.478 173.451C542.276 174.294 543.797 175.81 545.322 177.315C549.59 181.528 553.718 185.898 558.163 189.915C562.512 193.846 564.367 198.26 564.314 204.326C563.987 241.481 564.047 278.64 564.011 315.798C564.008 318.214 563.665 320.725 564.878 323.261C568.106 322.204 570.196 320.046 572.336 318.038C574.536 315.975 576.726 313.893 579.501 312.677C581.991 311.586 582.703 309.741 582.998 307.196C584.098 297.713 583.072 288.225 583.305 278.758C584.026 249.434 583.352 220.112 583.747 190.793C583.797 187.118 582.591 184.536 580.006 182.06C571.828 174.226 563.785 166.249 555.76 158.256C546.82 149.353 536.462 141.921 528.859 131.266C525.324 135.076 522.33 138.381 519.253 141.608C506.377 155.112 492.08 167.182 479.567 181.065C476.72 184.224 475.205 187.288 475.225 191.671C475.389 227.663 475.325 263.655 475.336 299.648C475.337 302.312 475.315 304.969 476.004 307.591C476.41 309.135 477.014 310.472 478.564 311.037C483.477 312.83 486.658 316.753 490.197 320.266C491.282 321.343 492.06 323.108 494.352 322.73C494.49 321.575 494.754 320.449 494.74 319.327C494.201 278.679 495.585 238.018 493.851 197.38C493.757 195.179 493.505 192.982 495.345 191.333C502.537 184.891 509.75 178.474 516.977 172.07C517.509 171.599 518.199 171.666 519.343 172.511C519.343 176.898 519.343 181.703 519.335 187.505ZM378.682 272.802C393.992 285.375 409.263 297.949 423.476 311.833C435.736 323.808 449.196 334.543 461.781 346.198C482.797 365.66 503.584 385.37 524.349 405.1C527.694 408.278 530.11 407.915 533.174 404.84C538.695 399.298 544.468 394.005 550.167 388.641C582.071 358.619 613.818 328.427 645.958 298.659C665.396 280.656 686.775 264.917 707.06 247.899C723.748 233.898 738.829 218.025 756.442 205.06C758.286 203.703 760.157 201.928 760.349 198.055C751.343 204.087 741.518 203.27 732.363 205.39C729.913 205.958 727.508 206.682 725.672 208.536C720.639 213.62 715.322 218.464 710.682 223.887C702.424 233.537 693.071 242.165 683.461 250.224C670.867 260.786 656.944 269.804 643.336 279.11C626.109 290.89 610.272 304.355 594.611 318.07C582.464 328.709 572.255 341.365 559.429 351.331C550.628 358.17 542.3 365.629 533.898 372.968C528.628 377.57 527.673 377.743 521.772 374.005C515.345 369.933 511.425 363.279 505.517 358.593C498.491 353.02 491.074 347.753 485.346 340.726C476.229 329.544 465.742 319.857 454.142 311.342C441.242 301.874 429.966 290.396 416.811 281.247C394.778 265.924 373.203 250.066 354.484 230.626C346.517 222.352 337.986 214.62 329.72 206.633C328.387 205.345 327.015 204.13 325.1 203.832C317.279 202.618 309.301 204.459 301.888 201.669C301.079 203.688 301.4 204.796 302.115 205.403C327.881 227.236 353.389 249.361 378.682 272.802ZM733.397 563.103C694.312 520.017 648.57 483.9 607.778 441.717C605 449.347 597.646 450.788 593.436 456.092C596.799 461.374 601.033 465.805 605.626 469.855C628.73 490.226 651.378 511.098 673.663 532.351C705.832 563.032 738.273 593.411 771.54 622.902C773.041 624.233 774.384 626.4 777.262 625.071C778.281 616.387 778.405 608.41 770.806 601.551C757.704 589.727 746.003 576.448 733.397 563.103ZM538.95 579.5C538.542 557.703 539.526 535.881 537.751 514.107C537.329 508.927 534.552 504.815 531.232 504.826C527.718 504.837 520.58 510.979 520.226 514.361C519.879 517.668 519.358 520.983 519.355 524.295C519.311 575.743 519.401 627.192 519.201 678.639C519.188 681.981 522.773 684.075 521.649 686.874C519.379 692.53 523.645 695.086 526.289 698.444C527.401 699.858 529.601 700.612 530.76 699.475C533.613 696.676 537.638 694.531 537.925 689.845C538.291 683.871 538.725 677.889 538.751 671.909C538.884 641.439 538.895 610.97 538.95 579.5Z" fill="black"/>
<path d="M475.14 609.001C474.892 632.149 474.661 654.797 474.401 677.445C474.378 679.473 474.423 681.287 476.036 682.945C493.111 700.486 510.723 717.476 528.091 734.211C529.917 734.536 530.624 733.474 531.411 732.672C547.748 716.033 565.178 700.476 580.451 682.775C583.174 679.62 583.523 676.098 583.539 672.584C583.675 641.421 583.625 610.256 583.555 579.092C583.546 574.817 581.977 570.541 583.547 566.22C585.83 565.326 586.877 567.203 588.221 568.266C595.439 573.974 601.093 581.297 607.918 587.411C610.137 589.399 610.217 592.009 610.376 594.728C611.674 616.88 609.759 639.026 610.338 661.18C610.599 671.166 610.268 681.168 611.101 691.143C611.316 693.714 610.934 695.95 608.785 697.889C585.037 719.326 561.926 741.423 539.887 764.63C536.702 767.983 533.108 770.947 529.871 773.936C528.248 773.92 527.499 772.96 526.674 772.163C506.195 752.355 485.736 732.528 465.242 712.736C460.215 707.881 455.976 702.215 450.227 698.107C448.429 696.822 448.759 694.937 448.652 693.124C447.289 670.151 448.259 647.147 447.708 624.165C447.456 613.678 447.203 603.19 446.849 592.706C446.74 589.458 447.456 587.082 450.638 585.345C455.849 582.502 458.757 577.059 463.209 573.287C466.733 570.302 470.159 567.236 475.149 565.029C475.149 579.994 475.149 594.248 475.14 609.001Z" fill="black"/>
<path d="M812.605 836.805C812.638 829.996 812.434 823.655 812.758 817.341C813.129 810.111 812.076 803.441 806.636 798.332C807.358 797.559 807.656 797.1 807.768 797.141C820.22 801.715 833.172 798.452 845.864 799.444C866.005 801.017 881.155 812.837 885.47 832.069C889.686 850.858 880.932 869.431 863.512 878.56C856.321 882.328 848.709 884.308 840.519 884.374C830.541 884.453 820.533 883.669 810.584 885.117C809.664 885.251 808.549 885.474 807.573 883.53C813.836 879.082 812.457 872.443 812.054 865.734C811.484 856.266 811.917 846.759 812.605 836.805ZM845.082 863.659C859.83 861.825 867.142 849.484 864.295 835.268C861.866 823.141 847.177 816.017 833.22 819.881C833.22 831.089 833.205 842.395 833.224 853.701C833.243 864.868 833.258 864.868 845.082 863.659Z" fill="black"/>
<path d="M273.452 881.417C274.169 882.582 274.814 883.39 274.357 884.772C265.579 884.097 256.707 883.911 247.048 884.786C253.294 872.248 249.051 859.521 249.815 847.067C250.447 836.776 250.361 826.443 250.727 816.134C250.964 809.475 252.067 802.68 245.776 797.95C246.567 797.198 246.873 796.759 247.003 796.806C259.756 801.397 273.003 799.192 286.049 799.637C293.267 799.883 299.822 801.959 305.482 806.414C320.314 818.089 319.642 840.641 304.219 851.555C303.428 852.114 302.647 852.686 301.228 853.708C309.222 864.402 317.615 874.339 327.452 882.996C326.44 884.989 324.739 884.285 323.391 884.298C315.569 884.374 307.742 884.226 299.922 884.402C297.405 884.458 296.042 883.692 294.872 881.44C290.864 873.732 284.945 867.276 280.417 859.903C278.575 856.904 275.895 856.731 273.014 857.367C269.61 858.118 270.638 860.912 270.852 863.082C271.446 869.111 269.651 875.47 273.452 881.417ZM293.791 833.218C295.876 825.607 291.679 819.583 283.877 819.174C280.908 819.018 277.921 819.235 274.942 819.235C272.497 819.234 271.311 820.317 271.341 822.85C271.403 827.984 271.338 833.119 271.351 838.254C271.355 839.59 271.427 840.846 272.986 841.526C279.322 844.293 290.404 840.232 293.791 833.218Z" fill="black"/>
<path d="M595.545 798.88C604.996 800.969 613.078 804.555 620.77 810.05C615.13 814.733 610.344 820.105 605.8 826.7C599.978 819.684 592.48 818.493 584.382 819.196C573.161 820.169 565.101 830.135 565.359 842.762C565.6 854.542 574.745 864.505 585.646 864.69C589.285 864.752 592.938 864.978 596.564 863.999C599.309 863.258 599.82 861.588 599.52 859.141C599.213 856.626 598.147 855.202 595.35 855.322C592.073 855.462 588.785 855.354 585.062 855.354C584.077 849.324 587.388 843.064 584.208 836.902C596.933 836.902 608.841 836.902 620.94 836.902C621.821 841.485 621.165 845.786 621.205 850.055C621.296 859.713 621.297 869.372 621.354 879.03C621.366 880.901 621.592 882.929 618.931 883.092C605.762 883.896 592.482 885.934 579.412 884.147C555.798 880.918 541.323 859.187 544.231 835.512C546.989 813.067 568.845 797.202 588.108 798.623C590.429 798.794 592.766 798.757 595.545 798.88Z" fill="black"/>
<path d="M334.601 809.564C360.92 788.275 393.364 800.737 404.711 825.835C412.167 842.325 407.509 861.481 392.789 874.012C373.85 890.133 348.1 888.609 331.36 870.378C315.637 853.253 317.04 824.607 334.601 809.564ZM380.743 857.224C385.252 852.283 387.164 846.489 386.67 839.815C385.787 827.87 372.665 816.875 361.305 818.644C347.866 820.736 338.938 833.467 341.958 846.231C346.398 864.993 365.037 870.591 380.743 857.224Z" fill="black"/>
<path d="M652.29 810.194C652.301 824.156 652.234 837.645 652.357 851.133C652.418 857.827 656.854 863.159 663.039 864.495C669.668 865.926 675.872 863.079 678.626 857.436C679.536 855.571 679.738 853.636 679.755 851.621C679.864 838.474 679.334 825.317 680.624 812.19C681.121 807.135 680.251 802.287 676.108 797.361C686.503 799.374 695.63 799.695 705.875 796.156C698.443 807.528 702.085 818.888 701.419 829.787C701.004 836.59 700.923 843.467 701.402 850.26C702.726 869.061 687.765 883.577 668.445 885.226C657.258 886.181 647.46 882.895 639.379 874.792C633.339 868.735 630.985 861.249 630.851 853.047C630.641 840.237 630.171 827.409 631.531 814.619C632.201 808.319 631.505 802.332 626.699 797.012C636.424 800.053 645.816 798.947 655.969 797.699C653.503 801.78 651.589 805.423 652.29 810.194Z" fill="black"/>
<path d="M435.01 850.213C427.46 847.274 420.455 844.347 416.532 836.916C408.972 822.595 415.722 806.383 431.875 800.767C440.663 797.711 449.574 797.642 458.27 801.061C463.507 803.12 468.524 805.74 474.682 808.59C468.546 813.729 463.298 818.787 461.823 826.005C459.192 826.222 458.774 824.424 457.754 823.493C453.017 819.17 447.46 817.498 441.17 818.365C438.306 818.759 436.247 820.468 435.476 823.291C434.67 826.24 436.605 828.062 438.757 829.422C442.732 831.934 447.333 833.001 451.692 834.626C454.651 835.729 457.673 836.709 460.527 838.043C480.266 847.272 477.07 867.906 464.423 877.878C450.246 889.058 434.919 887.096 419.678 880.164C415.197 878.126 411.113 875.211 406.084 872.248C413.876 868.931 418.403 863.084 422.455 856.133C427.068 860.759 431.734 864.679 438.009 866.052C441.88 866.899 445.59 867.096 449.121 865.024C453.985 862.17 454.08 857.487 448.996 855.123C444.655 853.103 439.932 851.904 435.01 850.213Z" fill="black"/>
<path d="M503.544 798.927C516.877 796.899 527.514 802.765 538.776 808.811C533.18 814.272 528.449 819.981 525.782 827.933C522.495 823.543 518.994 820.686 514.447 819.2C511.343 818.186 508.233 817.911 505.098 818.553C502.499 819.085 500.531 820.734 499.736 823.298C498.883 826.052 500.911 827.707 502.752 829.065C506.539 831.859 510.987 833.382 515.367 834.964C519.914 836.607 524.33 838.474 528.61 840.763C538.798 846.212 540.845 860.165 536.5 868.284C530.951 878.654 522.173 884.493 510.151 885.401C496.32 886.447 485.159 880.272 473.495 872.86C478.902 867.606 484.451 863.059 487.431 855.484C491.929 861.778 497.603 864.606 504.136 866.051C506.122 866.49 508.133 866.987 510.045 866.487C513.29 865.638 516.883 864.443 517.343 860.614C517.773 857.028 514.51 855.573 511.725 854.473C506.933 852.579 501.946 851.167 497.192 849.191C491.264 846.726 485.981 843.228 482.63 837.523C474.455 823.61 480.919 806.355 496.362 800.826C498.546 800.045 500.854 799.61 503.544 798.927Z" fill="black"/>
<path d="M171.008 825.312C180.391 799.392 217.257 787.967 243.026 811.395C238.874 816.259 233.774 820.375 230.652 826.744C223.501 820.445 215.761 816.971 206.377 819.221C201.298 820.439 197.351 823.172 194.319 827.455C187.431 837.185 188.35 849.726 196.692 857.926C206.195 867.268 217.072 867.005 230.435 856.803C234.623 862.052 239.549 866.648 244.879 870.724C235.393 883.955 210.105 888.875 194.028 880.952C173.412 870.793 164.094 848.554 171.008 825.312Z" fill="black"/>
<path d="M748.154 797.14C757.007 799.681 765.549 799.091 775.532 797.208C767.621 805.099 770.666 814.038 770.407 822.359C770.019 834.832 770.379 847.327 770.159 859.808C770.093 863.547 771.309 864.896 775.025 864.66C781.664 864.238 788.32 863.973 794.971 863.895C798.514 863.853 800.983 861.318 804.955 859.871C802.071 868.344 803.489 876.291 803.288 884.373C783.858 884.638 764.59 883.617 743.851 885.126C751.422 878.513 749.631 870.751 749.678 863.419C749.775 848.439 749.591 833.455 749.805 818.477C749.913 810.908 750.498 803.384 743.906 798.005C745.234 796.008 746.573 796.885 748.154 797.14Z" fill="black"/>
<path d="M714.014 830.007C714.203 824.186 714.3 818.86 714.602 813.545C714.775 810.491 714.556 807.498 713.322 804.74C712.193 802.216 710.628 799.887 708.79 796.654C719.078 799.943 728.642 799.455 739.09 797.076C731.82 809.295 734.784 821.835 734.944 834.122C735.062 843.266 734.001 852.384 734.901 861.563C735.652 869.233 733.694 877.241 739.12 884.795C729.103 884.238 720.103 883.512 711.603 884.948C716.159 866.826 712.678 848.538 714.014 830.007Z" fill="black"/>
<path d="M840.013 540.693C846.592 541.001 857.274 549.352 858.238 554.598C860.152 565.016 855.461 574.743 846.629 578.039C841.633 579.903 837.116 579.252 832.777 575.429C826.663 570.043 823.773 563.857 824.679 555.647C825.413 548.989 833.082 540.915 840.013 540.693Z" fill="black"/>
<path d="M389.719 678.667C390.813 676.962 391.591 675.477 392.587 674.156C395.226 670.655 400.406 670.407 402.723 674.044C405.987 679.168 409.86 683.602 414.649 687.304C416.428 688.68 417.08 690.844 417.878 692.839C418.42 694.193 418.343 695.775 416.639 696.037C411.685 696.797 408.585 700.487 404.815 703.121C400.003 706.483 395.252 705.979 390.967 701.734C388.965 699.75 386.941 697.768 384.761 695.989C379.837 691.968 379.889 687.662 384.92 683.521C386.576 682.158 387.982 680.491 389.719 678.667Z" fill="black"/>
<path d="M645.798 681.292C645.787 678.713 645.172 676.555 646.248 674.009C654.83 675.683 663.521 673.825 672.98 673.967C670.754 682.444 671.881 690.467 672.526 698.955C663.599 698.955 655.07 698.955 645.83 698.955C645.83 693.275 645.83 687.512 645.798 681.292Z" fill="black"/>
<path d="M671.41 184.487C672.265 191.163 672.265 191.173 666.135 191.033C661.327 190.924 656.52 190.79 651.712 190.665C648.959 190.593 647.481 189.501 647.611 186.422C647.801 181.95 647.775 177.461 647.628 172.986C647.526 169.892 649.022 168.874 651.836 168.891C656.979 168.922 662.123 168.91 667.266 168.837C670.227 168.795 671.414 170.15 671.324 173.086C671.212 176.732 671.35 180.385 671.41 184.487Z" fill="black"/>
<path d="M387.053 173.242C387.027 170.291 387.785 168.647 390.722 168.68C397.668 168.76 404.616 168.706 411.962 168.706C411.962 175.269 411.962 181.455 411.962 188.232C403.505 188.232 395.172 188.232 387.047 188.232C387.047 183.252 387.047 178.481 387.053 173.242Z" fill="black"/>
<path d="M850.175 306.256C850.136 310.715 850.116 314.706 850.081 318.696C850.059 321.086 849.008 322.379 846.446 322.348C841.466 322.287 836.484 322.296 831.504 322.36C828.775 322.395 827.648 321.235 827.717 318.455C827.848 313.146 827.755 307.832 827.755 301.376C834.721 301.376 841.454 301.218 848.173 301.454C850.834 301.548 850.069 304.065 850.175 306.256Z" fill="black"/>
<path d="M207.611 314.944C207.606 311.176 207.606 307.876 207.606 304.332C212.254 303.134 216.704 303.831 221.1 303.748C222.673 303.719 223.801 304.61 223.603 306.163C223.11 310.013 224.213 313.754 224.108 317.555C224.082 318.503 223.934 320.012 223.366 320.289C219.15 322.342 214.619 321.395 210.257 320.994C207 320.695 207.849 317.606 207.611 314.944Z" fill="black"/>
<path d="M771.727 329.027C772.16 326.334 770.314 322.944 773.793 322.257C777.635 321.499 782.638 320.606 785.202 323.455C787.882 326.433 786.49 331.392 785.666 335.38C785.066 338.281 782.158 337.012 780.18 337.311C780.018 337.335 779.85 337.313 779.684 337.313C771.827 337.337 771.827 337.337 771.727 329.027Z" fill="black"/>
<path d="M282.79 321.978C286.195 321.803 287.552 323.01 287.131 326.103C286.666 329.524 286.388 332.971 285.974 336.935C282.072 337.155 276.935 338.995 274.522 335.914C272.116 332.843 272.698 327.373 274.225 323.48C275.497 320.237 279.574 322.58 282.79 321.978Z" fill="black"/>
<path d="M818.004 711.309C808.98 710.726 808.642 710.049 809.503 702.293C810.006 697.758 812.946 697.879 815.866 698.063C818.951 698.257 822.79 697.57 823.233 702.613C823.797 709.043 823.109 710.568 818.004 711.309Z" fill="black"/>
<path d="M775.871 544.669C775.757 543.216 775.701 542.218 775.691 541.219C775.626 534.582 779.272 531.953 785.732 533.851C787.143 534.266 787.551 535.164 787.652 536.384C787.748 537.544 787.796 538.712 787.777 539.875C787.735 542.393 789.304 546.051 785.989 546.833C782.801 547.585 778.725 548.848 775.871 544.669Z" fill="black"/>
<path d="M280.803 534.12C283.102 534.834 286.106 534.059 286.085 537.259C286.064 540.607 287.847 544.517 284.728 547.158C282.317 549.199 279.264 547.46 276.548 546.991C275.321 546.779 274.766 545.462 274.778 544.242C274.813 540.812 273.295 537.409 274.316 533.994C276.537 532.973 278.459 533.956 280.803 534.12Z" fill="black"/>
<path d="M239.73 709.292C238.401 701.522 239.561 699.115 244.462 698.725C251.038 698.203 254.648 703.351 252.047 709.457C251.407 710.961 250.243 711.387 248.87 711.28C245.834 711.043 242.5 712.37 239.73 709.292Z" fill="black"/>
<path d="M218.54 565.097C211.442 565.412 208.271 562.331 208.656 556.01C208.782 553.936 210.446 553.384 211.957 552.761C215.023 551.496 218.02 551.067 220.776 553.601C222.093 554.811 223.056 555.93 221.957 557.843C220.665 560.09 221.292 563.162 218.54 565.097Z" fill="black"/>
</svg>
