<svg width="170" height="47" viewBox="0 0 170 47" fill="none" xmlns="http://www.w3.org/2000/svg">
<path d="M0 0H170L146.168 23.5L170 47H0V0Z" fill="#6251C1"/>
<path d="M19.936 29V19.315H26.397V20.875H21.704V23.553H25.812V25.113H21.704V29H19.936ZM28.5532 29V19.315H32.1542C32.8129 19.315 33.3935 19.4363 33.8962 19.679C34.4075 19.913 34.8062 20.2597 35.0922 20.719C35.3782 21.1697 35.5212 21.72 35.5212 22.37C35.5212 23.0373 35.3609 23.605 35.0402 24.073C34.7282 24.541 34.3035 24.8877 33.7662 25.113L35.9892 29H33.9872L31.6082 24.749L32.7522 25.425H30.3212V29H28.5532ZM30.3212 23.865H32.1802C32.5009 23.865 32.7782 23.8043 33.0122 23.683C33.2462 23.553 33.4282 23.3753 33.5582 23.15C33.6882 22.9247 33.7532 22.6647 33.7532 22.37C33.7532 22.0667 33.6882 21.8067 33.5582 21.59C33.4282 21.3647 33.2462 21.1913 33.0122 21.07C32.7782 20.94 32.5009 20.875 32.1802 20.875H30.3212V23.865ZM38.1479 29V19.315H44.5829V20.875H39.9159V23.358H44.3229V24.918H39.9159V27.44H44.5829V29H38.1479ZM46.8794 29V19.315H53.3144V20.875H48.6474V23.358H53.0544V24.918H48.6474V27.44H53.3144V29H46.8794ZM58.9214 29V19.315H62.0804C63.103 19.315 63.9914 19.523 64.7454 19.939C65.508 20.3463 66.0974 20.914 66.5134 21.642C66.9294 22.3613 67.1374 23.1977 67.1374 24.151C67.1374 25.0957 66.9294 25.9363 66.5134 26.673C66.0974 27.401 65.508 27.973 64.7454 28.389C63.9914 28.7963 63.103 29 62.0804 29H58.9214ZM60.6894 27.44H62.1194C62.778 27.44 63.3457 27.3057 63.8224 27.037C64.3077 26.7597 64.6847 26.3783 64.9534 25.893C65.222 25.399 65.3564 24.8183 65.3564 24.151C65.3564 23.475 65.222 22.8943 64.9534 22.409C64.6847 21.9237 64.3077 21.5467 63.8224 21.278C63.3457 21.0093 62.778 20.875 62.1194 20.875H60.6894V27.44ZM69.5444 29V19.315H75.9794V20.875H71.3124V23.358H75.7194V24.918H71.3124V27.44H75.9794V29H69.5444ZM78.2758 29V19.315H80.0438V27.44H84.1908V29H78.2758ZM86.3344 29V19.315H88.1024V29H86.3344ZM93.5523 29L90.1723 19.315H92.0963L94.7483 27.336H94.3713L97.0233 19.315H98.9473L95.5803 29H93.5523ZM101.03 29V19.315H107.465V20.875H102.798V23.358H107.205V24.918H102.798V27.44H107.465V29H101.03ZM109.761 29V19.315H113.362C114.021 19.315 114.602 19.4363 115.104 19.679C115.616 19.913 116.014 20.2597 116.3 20.719C116.586 21.1697 116.729 21.72 116.729 22.37C116.729 23.0373 116.569 23.605 116.248 24.073C115.936 24.541 115.512 24.8877 114.974 25.113L117.197 29H115.195L112.816 24.749L113.96 25.425H111.529V29H109.761ZM111.529 23.865H113.388C113.709 23.865 113.986 23.8043 114.22 23.683C114.454 23.553 114.636 23.3753 114.766 23.15C114.896 22.9247 114.961 22.6647 114.961 22.37C114.961 22.0667 114.896 21.8067 114.766 21.59C114.636 21.3647 114.454 21.1913 114.22 21.07C113.986 20.94 113.709 20.875 113.388 20.875H111.529V23.865ZM121.699 29V24.71L118.436 19.315H120.451L122.947 23.527H122.232L124.715 19.315H126.73L123.48 24.697V29H121.699Z" fill="white"/>
</svg>
