<svg width="22" height="23" viewBox="0 0 22 23" fill="none" xmlns="http://www.w3.org/2000/svg">
<path d="M11 0.40918C8.01488 0.40918 7.6395 0.42287 6.46663 0.474896C5.29375 0.529659 4.49487 0.713115 3.795 0.984193C3.06088 1.25913 2.39593 1.6904 1.84663 2.24785C1.2871 2.79507 0.854023 3.45708 0.5775 4.18784C0.30525 4.88333 0.119625 5.68014 0.066 6.84385C0.01375 8.01442 0 8.38681 0 11.3632C0 14.3368 0.01375 14.7092 0.066 15.877C0.121 17.0435 0.30525 17.8389 0.5775 18.5358C0.859375 19.2559 1.23475 19.8665 1.84663 20.4758C2.45713 21.085 3.07037 21.4602 3.79363 21.7394C4.49487 22.0105 5.29238 22.1953 6.46388 22.2487C7.63813 22.3008 8.01213 22.3145 11 22.3145C13.9879 22.3145 14.3605 22.3008 15.5347 22.2487C16.7049 22.194 17.5065 22.0105 18.2064 21.7394C18.94 21.4644 19.6045 21.0331 20.1534 20.4758C20.7652 19.8665 21.1406 19.2559 21.4225 18.5358C21.6934 17.8389 21.879 17.0435 21.934 15.877C21.9862 14.7092 22 14.3368 22 11.3618C22 8.38681 21.9862 8.01442 21.934 6.84522C21.879 5.68014 21.6934 4.88333 21.4225 4.18784C21.146 3.45706 20.7129 2.79504 20.1534 2.24785C19.6042 1.69019 18.9392 1.25889 18.205 0.984193C17.5037 0.713115 16.7035 0.52829 15.5334 0.474896C14.3591 0.42287 13.9865 0.40918 10.9973 0.40918H11.0014H11ZM10.0141 2.38339H11.0014C13.9384 2.38339 14.2863 2.39298 15.4454 2.44637C16.5179 2.49429 17.1009 2.67364 17.4886 2.82287C18.0015 3.02138 18.3686 3.2596 18.7536 3.64295C19.1386 4.02629 19.3765 4.39046 19.5759 4.9025C19.7271 5.28721 19.9059 5.8677 19.954 6.93558C20.0076 8.08972 20.0186 8.4361 20.0186 11.3591C20.0186 14.2821 20.0076 14.6298 19.954 15.7839C19.9059 16.8518 19.7257 17.431 19.5759 17.817C19.3995 18.2926 19.118 18.7226 18.7522 19.0752C18.3672 19.4586 18.0015 19.6954 17.4873 19.8939C17.1023 20.0445 16.5192 20.2225 15.4454 20.2718C14.2863 20.3238 13.9384 20.3361 11.0014 20.3361C8.06438 20.3361 7.71513 20.3238 6.556 20.2718C5.4835 20.2225 4.90188 20.0445 4.51412 19.8939C4.03631 19.7186 3.60405 19.4388 3.24913 19.0752C2.88303 18.722 2.60112 18.2916 2.42412 17.8157C2.27425 17.4309 2.09413 16.8505 2.046 15.7826C1.99375 14.6284 1.98275 14.2821 1.98275 11.3563C1.98275 8.43199 1.99375 8.08698 2.046 6.93285C2.0955 5.86496 2.27425 5.28447 2.4255 4.89839C2.62488 4.38773 2.86412 4.02218 3.24913 3.63884C3.63412 3.2555 3.99988 3.01865 4.51412 2.82013C4.90188 2.66953 5.4835 2.49155 6.556 2.44226C7.57075 2.39571 7.964 2.38202 10.0141 2.38065V2.38339ZM16.8726 4.20153C16.6993 4.20153 16.5276 4.23553 16.3675 4.30158C16.2073 4.36763 16.0618 4.46444 15.9392 4.58649C15.8167 4.70853 15.7194 4.85342 15.6531 5.01288C15.5868 5.17234 15.5526 5.34325 15.5526 5.51585C15.5526 5.68845 15.5868 5.85935 15.6531 6.01881C15.7194 6.17827 15.8167 6.32316 15.9392 6.44521C16.0618 6.56726 16.2073 6.66407 16.3675 6.73012C16.5276 6.79617 16.6993 6.83016 16.8726 6.83016C17.2227 6.83016 17.5585 6.69169 17.806 6.44521C18.0536 6.19873 18.1926 5.86443 18.1926 5.51585C18.1926 5.16727 18.0536 4.83297 17.806 4.58649C17.5585 4.34 17.2227 4.20153 16.8726 4.20153ZM11.0014 5.73764C10.2521 5.726 9.50798 5.86289 8.81234 6.14034C8.11671 6.41779 7.48346 6.83026 6.94946 7.35373C6.41546 7.8772 5.99138 8.50122 5.70191 9.18944C5.41244 9.87767 5.26336 10.6164 5.26336 11.3625C5.26336 12.1086 5.41244 12.8473 5.70191 13.5356C5.99138 14.2238 6.41546 14.8478 6.94946 15.3713C7.48346 15.8947 8.11671 16.3072 8.81234 16.5847C9.50798 16.8621 10.2521 16.999 11.0014 16.9874C12.4844 16.9643 13.8988 16.3616 14.9393 15.3092C15.9799 14.2569 16.5631 12.8393 16.5631 11.3625C16.5631 9.88571 15.9799 8.46815 14.9393 7.41579C13.8988 6.36343 12.4844 5.76068 11.0014 5.73764ZM11.0014 7.71048C11.974 7.71048 12.9067 8.09518 13.5944 8.77993C14.2821 9.46469 14.6685 10.3934 14.6685 11.3618C14.6685 12.3302 14.2821 13.2589 13.5944 13.9437C12.9067 14.6285 11.974 15.0132 11.0014 15.0132C10.0288 15.0132 9.09605 14.6285 8.40833 13.9437C7.72061 13.2589 7.33425 12.3302 7.33425 11.3618C7.33425 10.3934 7.72061 9.46469 8.40833 8.77993C9.09605 8.09518 10.0288 7.71048 11.0014 7.71048Z" fill="black"/>
</svg>
