<svg width="343" height="340" viewBox="0 0 343 340" fill="none" xmlns="http://www.w3.org/2000/svg">
<path d="M301.744 291.426C292.856 300.534 284.904 305.887 278.815 309.929C219.433 349.346 151.553 337.985 130.566 334.102C96.7057 327.837 68.1234 323.417 43.566 301.361C-12.2359 251.243 -9.52168 146.693 33.1177 81.9291C38.1735 74.2499 80.7483 11.5124 148.776 2.67209C150.439 2.45583 151.681 2.33277 152.768 2.21832C163.292 1.11067 228.505 -4.73538 281.68 39.5523C289.292 45.8918 301.541 57.3268 312.9 74.7669C354.435 138.536 354.566 237.3 301.744 291.426Z" fill="url(#paint0_linear_44_2317)"/>
<path d="M326.424 67.0437L106.178 56.423C94.9122 55.8799 85.9695 64.6858 86.3049 76.0705L89.9411 199.202C90.2662 210.237 99.5705 218.809 110.599 218.379L326.678 209.942C335.189 209.609 341.955 201.608 341.955 192.047V85.5962C341.955 75.7744 335.078 67.461 326.424 67.0437Z" fill="url(#paint1_linear_44_2317)"/>
<path d="M317.131 74.3904L116.072 64.9548C105.787 64.4722 97.6364 72.2955 97.9427 82.4098L101.27 191.801C101.566 201.605 110.065 209.221 120.134 208.838L317.362 201.342C325.132 201.047 331.255 193.938 331.255 185.445V90.8725C331.255 82.1469 325.032 74.7612 317.131 74.3904Z" fill="#7D97F4"/>
<g opacity="0.6">
<path d="M118.456 161.247C118.456 162.925 117.088 164.286 115.399 164.286C113.711 164.286 112.342 162.925 112.342 161.247C112.342 159.568 113.711 158.208 115.399 158.208C117.088 158.208 118.456 159.568 118.456 161.247Z" fill="white"/>
<path d="M256.431 170.408C256.431 172.087 255.062 173.447 253.374 173.447C251.685 173.447 250.317 172.087 250.317 170.408C250.317 168.73 251.685 167.369 253.374 167.369C255.062 167.369 256.431 168.73 256.431 170.408Z" fill="white"/>
<path d="M150.777 134.004C150.777 135.464 149.587 136.647 148.119 136.647C146.651 136.647 145.461 135.464 145.461 134.004C145.461 132.545 146.651 131.362 148.119 131.362C149.587 131.362 150.777 132.545 150.777 134.004Z" fill="white"/>
<path d="M192.635 114.412C192.635 115.472 191.769 116.331 190.702 116.331C189.635 116.331 188.769 115.472 188.769 114.412C188.769 113.352 189.635 112.493 190.702 112.493C191.769 112.493 192.635 113.352 192.635 114.412Z" fill="white"/>
<path d="M276.524 116.438C276.524 117.498 275.659 118.357 274.591 118.357C273.524 118.357 272.659 117.498 272.659 116.438C272.659 115.378 273.524 114.519 274.591 114.519C275.659 114.519 276.524 115.378 276.524 116.438Z" fill="white"/>
<path d="M321.903 179.228C321.903 180.288 321.037 181.148 319.97 181.148C318.903 181.148 318.037 180.288 318.037 179.228C318.037 178.169 318.903 177.309 319.97 177.309C321.037 177.309 321.903 178.169 321.903 179.228Z" fill="white"/>
<path d="M230.444 84.5522C230.444 85.404 229.749 86.0945 228.891 86.0945C228.033 86.0945 227.338 85.404 227.338 84.5522C227.338 83.7005 228.034 83.01 228.891 83.01C229.749 83.01 230.444 83.7005 230.444 84.5522Z" fill="white"/>
<path d="M190.244 165.448C190.244 166.369 189.492 167.116 188.564 167.116C187.636 167.116 186.883 166.369 186.883 165.448C186.883 164.526 187.636 163.779 188.564 163.779C189.492 163.779 190.244 164.526 190.244 165.448Z" fill="white"/>
<path d="M122.988 95.5489C122.988 96.4704 122.236 97.2175 121.308 97.2175C120.38 97.2175 119.628 96.4704 119.628 95.5489C119.628 94.6274 120.38 93.8804 121.308 93.8804C122.236 93.8802 122.988 94.6274 122.988 95.5489Z" fill="white"/>
</g>
<mask id="mask0_44_2317" style="mask-type:luminance" maskUnits="userSpaceOnUse" x="97" y="64" width="235" height="145">
<path d="M317.131 74.3904L116.072 64.9548C105.787 64.4722 97.6364 72.2955 97.9427 82.4098L101.27 191.801C101.566 201.605 110.065 209.221 120.134 208.838L317.362 201.342C325.132 201.047 331.255 193.938 331.255 185.445V90.8725C331.255 82.1469 325.032 74.7612 317.131 74.3904Z" fill="white"/>
</mask>
<g mask="url(#mask0_44_2317)">
<g opacity="0.5">
<path d="M112.128 52.8746L76.1058 207.803L77.2634 208.069L113.286 53.1406L112.128 52.8746Z" fill="white"/>
<path d="M141.69 52.8959L116.089 207.828L117.262 208.019L142.863 53.0874L141.69 52.8959Z" fill="white"/>
<path d="M171.217 52.9366L156.076 207.864L157.258 207.978L172.4 53.0508L171.217 52.9366Z" fill="white"/>
<path d="M200.762 52.9838L196.053 207.905L197.241 207.94L201.95 53.0194L200.762 52.9838Z" fill="white"/>
<path d="M344.258 66.491H85.401V67.6712H344.258V66.491Z" fill="white"/>
<path d="M356.329 108.744H73.3298V109.924H356.329V108.744Z" fill="white"/>
<path d="M368.4 150.996H61.2589V152.176H368.4V150.996Z" fill="white"/>
<path d="M380.471 193.249H49.1876V194.429H380.471V193.249Z" fill="white"/>
<path d="M231.538 52.9693L230.35 53.0127L236.009 207.935L237.197 207.892L231.538 52.9693Z" fill="white"/>
<path d="M261.106 52.94L259.924 53.0616L276.038 207.99L277.22 207.869L261.106 52.94Z" fill="white"/>
<path d="M290.664 52.8924L289.492 53.0907L316.08 208.014L317.252 207.816L290.664 52.8924Z" fill="white"/>
<path d="M320.219 52.8766L319.062 53.1492L356.085 208.071L357.242 207.799L320.219 52.8766Z" fill="white"/>
</g>
</g>
<path d="M256.643 85.1362L253.099 79.0548C252.559 78.1232 251.559 77.5781 250.477 77.5781H243.397C242.315 77.5781 241.316 78.1232 240.776 79.0548L237.232 85.1507C236.692 86.0806 236.692 87.2186 237.232 88.1486L240.776 94.371C241.316 95.3027 242.315 95.9889 243.397 95.9889H250.477C251.559 95.9889 252.559 95.2991 253.099 94.3674L256.643 88.1991C257.182 87.2694 257.182 86.0662 256.643 85.1362Z" fill="white"/>
<path d="M255.472 85.0719L252.413 79.9513C251.946 79.1472 251.084 78.8054 250.15 78.8054H244.038C243.105 78.8054 242.242 79.1472 241.775 79.9513L238.716 85.1487C238.251 85.9515 238.251 86.9015 238.716 87.7043L241.775 93.2203C242.242 94.0244 243.105 94.7615 244.038 94.7615H250.15C251.084 94.7615 251.946 94.0052 252.413 93.2011L255.472 87.7963C255.937 86.9935 255.937 85.8745 255.472 85.0719Z" fill="#BDD0FB"/>
<path d="M286.077 85.1362L282.534 79.0548C281.993 78.1232 280.994 77.5781 279.912 77.5781H272.832C271.75 77.5781 270.751 78.1232 270.21 79.0548L266.667 85.1507C266.127 86.0806 266.127 87.2186 266.667 88.1486L270.21 94.371C270.751 95.3027 271.75 95.9889 272.832 95.9889H279.912C280.994 95.9889 281.993 95.2991 282.534 94.3674L286.077 88.1991C286.617 87.2694 286.617 86.0662 286.077 85.1362Z" fill="white"/>
<path d="M284.906 85.0719L281.848 79.9513C281.381 79.1472 280.518 78.8054 279.585 78.8054H273.473C272.539 78.8054 271.677 79.1472 271.21 79.9513L268.151 85.1487C267.686 85.9515 267.686 86.9015 268.151 87.7043L271.21 93.2203C271.677 94.0244 272.539 94.7615 273.473 94.7615H279.585C280.518 94.7615 281.381 94.0052 281.848 93.2011L284.906 87.7963C285.372 86.9935 285.372 85.8745 284.906 85.0719Z" fill="#BDD0FB"/>
<path d="M315.512 85.1362L311.968 79.0548C311.428 78.1232 310.429 77.5781 309.347 77.5781H302.267C301.185 77.5781 300.185 78.1232 299.645 79.0548L296.101 85.1507C295.562 86.0806 295.562 87.2186 296.101 88.1486L299.645 94.371C300.185 95.3027 301.185 95.9889 302.267 95.9889H309.347C310.429 95.9889 311.428 95.2991 311.968 94.3674L315.512 88.1991C316.052 87.2694 316.052 86.0662 315.512 85.1362Z" fill="white"/>
<path d="M314.341 85.0719L311.282 79.9513C310.816 79.1472 309.953 78.8054 309.02 78.8054H302.908C301.974 78.8054 301.112 79.1472 300.645 79.9513L297.586 85.1487C297.121 85.9515 297.121 86.9015 297.586 87.7043L300.645 93.2203C301.112 94.0244 301.974 94.7615 302.908 94.7615H309.02C309.953 94.7615 310.816 94.0052 311.282 93.2011L314.341 87.7963C314.807 86.9935 314.807 85.8745 314.341 85.0719Z" fill="#BDD0FB"/>
<path d="M176.923 186.623C176.923 188.085 175.731 189.27 174.261 189.27H111.269C109.798 189.27 108.606 188.085 108.606 186.623V186.599C108.606 185.137 109.798 183.952 111.269 183.952H174.261C175.731 183.952 176.923 185.137 176.923 186.599V186.623Z" fill="#91B3FA"/>
<path d="M168.692 196.883C168.692 198.313 167.455 199.499 166.161 199.499H110.8C109.507 199.499 108.605 198.313 108.605 196.883V196.77C108.605 195.34 109.507 193.771 110.8 193.771H166.161C167.455 193.771 168.692 195.34 168.692 196.77V196.883Z" fill="#91B3FA"/>
<path d="M192.737 181.097C193.633 181.097 194.36 178.269 194.36 174.78C194.36 171.292 193.633 168.464 192.737 168.464C191.84 168.464 191.113 171.292 191.113 174.78C191.113 178.269 191.84 181.097 192.737 181.097Z" fill="#91B3FA"/>
<path d="M195.031 172.593C195.031 172.765 194.891 172.904 194.718 172.904H190.817C190.645 172.904 190.504 172.765 190.504 172.593V171.989C190.504 171.817 190.645 171.678 190.817 171.678H194.718C194.891 171.678 195.031 171.817 195.031 171.989V172.593Z" fill="url(#paint2_linear_44_2317)"/>
<path d="M199.415 179.989C200.312 179.989 201.039 177.161 201.039 173.672C201.039 170.184 200.312 167.356 199.415 167.356C198.519 167.356 197.792 170.184 197.792 173.672C197.792 177.161 198.519 179.989 199.415 179.989Z" fill="#91B3FA"/>
<path d="M201.616 171.366C201.616 171.537 201.476 171.676 201.303 171.676H197.402C197.229 171.676 197.089 171.537 197.089 171.366V170.761C197.089 170.59 197.229 170.45 197.402 170.45H201.303C201.476 170.45 201.616 170.59 201.616 170.761V171.366Z" fill="url(#paint3_linear_44_2317)"/>
<path d="M207.16 186.816H191.666C190.921 186.816 190.219 186.73 189.796 187.349L186.902 191.601C186.791 191.778 186.579 191.725 186.368 191.725H186.357C186.157 191.725 186.389 191.147 186.389 190.926V179.451C186.389 178.544 186.868 177.769 187.781 177.648L195.111 176.585C195.59 176.519 195.988 176.309 196.322 175.966L205.982 166.438L206.638 177.645L207.16 186.816Z" fill="url(#paint4_linear_44_2317)"/>
<path d="M207.16 186.815H191.666C190.921 186.815 190.219 186.73 189.796 187.349L186.902 191.434C186.791 191.611 186.579 191.573 186.368 191.506L190.542 183.304C191.177 182.087 192.434 181.088 193.803 181.088H197.744C198.356 181.088 198.957 181.121 199.491 180.834L206.626 177.551L207.16 186.815Z" fill="#91B3FA"/>
<path d="M228.263 181.097C229.159 181.097 229.886 178.269 229.886 174.78C229.886 171.292 229.159 168.464 228.263 168.464C227.366 168.464 226.639 171.292 226.639 174.78C226.639 178.269 227.366 181.097 228.263 181.097Z" fill="#91B3FA"/>
<path d="M230.425 171.989C230.425 171.817 230.285 171.678 230.112 171.678H226.211C226.038 171.678 225.898 171.817 225.898 171.989V172.593C225.898 172.765 226.038 172.904 226.211 172.904H230.112C230.285 172.904 230.425 172.765 230.425 172.593V171.989Z" fill="url(#paint5_linear_44_2317)"/>
<path d="M221.584 179.989C222.481 179.989 223.208 177.161 223.208 173.672C223.208 170.184 222.481 167.356 221.584 167.356C220.688 167.356 219.961 170.184 219.961 173.672C219.961 177.161 220.688 179.989 221.584 179.989Z" fill="#91B3FA"/>
<path d="M223.84 170.761C223.84 170.59 223.7 170.45 223.527 170.45H219.626C219.453 170.45 219.313 170.59 219.313 170.761V171.366C219.313 171.537 219.453 171.676 219.626 171.676H223.527C223.7 171.676 223.84 171.537 223.84 171.366V170.761Z" fill="url(#paint6_linear_44_2317)"/>
<path d="M213.839 186.816H229.333C230.079 186.816 230.78 186.73 231.203 187.349L234.097 191.601C234.208 191.778 234.42 191.725 234.631 191.725H234.643C234.843 191.725 234.129 191.147 234.129 190.926V179.451C234.129 178.544 233.89 177.769 232.978 177.648L225.768 176.585C225.289 176.519 224.952 176.309 224.618 175.966L214.987 166.438L214.346 177.645L213.839 186.816Z" fill="url(#paint7_linear_44_2317)"/>
<path d="M213.839 186.815H229.333C230.079 186.815 230.78 186.73 231.203 187.349L234.097 191.434C234.208 191.611 234.42 191.573 234.631 191.506L230.457 183.304C229.823 182.087 228.565 181.088 227.196 181.088H223.256C222.643 181.088 222.042 181.121 221.508 180.834L214.373 177.551L213.839 186.815Z" fill="#91B3FA"/>
<path d="M206.198 184.358C206.1 184.203 205.934 184.104 205.75 184.089C205.566 184.075 205.386 184.147 205.264 184.284C204.514 185.127 203.869 185.97 203.332 186.814C203.217 186.992 204.138 196.495 204.75 196.944C205.073 197.182 205.959 197.146 206.047 197.081C206.773 196.549 207.746 187.274 207.624 186.998C207.237 186.118 206.761 185.238 206.198 184.358Z" fill="url(#paint8_linear_44_2317)"/>
<path d="M216.716 184.358C216.617 184.203 216.451 184.104 216.267 184.089C216.083 184.075 215.903 184.147 215.781 184.284C215.031 185.127 214.387 185.97 213.849 186.814C213.734 186.992 214.655 196.495 215.267 196.944C215.591 197.182 216.476 197.146 216.565 197.081C217.29 196.549 218.263 187.274 218.141 186.998C217.754 186.118 217.278 185.238 216.716 184.358Z" fill="url(#paint9_linear_44_2317)"/>
<path d="M215.536 157.858L211.183 140.2C211.147 140.061 211.132 139.962 210.988 139.957C210.844 139.952 210.768 140.042 210.722 140.178L204.845 157.07C204.741 157.379 204.497 157.702 204.497 158.028V189.119C204.497 189.781 205.474 190.907 206.14 190.907H214.859C215.525 190.907 215.197 189.781 215.197 189.119V158.61C215.197 158.356 215.599 158.104 215.536 157.858Z" fill="#91B3FA"/>
<path d="M210.036 170.123C212.136 170.123 213.839 166.449 213.839 161.916C213.839 157.384 212.136 153.709 210.036 153.709C207.936 153.709 206.233 157.384 206.233 161.916C206.233 166.449 207.936 170.123 210.036 170.123Z" fill="url(#paint10_linear_44_2317)"/>
<path d="M211.764 183.251C211.665 183.096 211.499 182.997 211.315 182.983C211.132 182.968 210.952 183.04 210.83 183.177C210.079 184.021 209.435 184.864 208.897 185.707C208.783 185.885 209.703 195.388 210.316 195.837C210.639 196.075 211.524 196.039 211.613 195.974C212.338 195.442 213.312 186.168 213.19 185.891C212.802 185.011 212.327 184.131 211.764 183.251Z" fill="#91B3FA"/>
<path d="M215.197 173.723H204.497V180.679H215.197V173.723Z" fill="url(#paint11_linear_44_2317)"/>
<path d="M158.146 102.288L162.02 94.2368C162.225 93.8121 161.896 93.491 161.31 93.5096L161.085 93.5166C160.531 93.5342 159.922 93.8582 159.7 94.252L156.957 99.1177C156.659 99.6463 156.063 100.078 155.438 100.216L151.311 101.131L148.285 105.712L156.135 103.882C156.996 103.681 157.773 103.064 158.146 102.288Z" fill="url(#paint12_linear_44_2317)"/>
<path d="M133.402 94.2368L137.276 102.288C137.65 103.064 138.426 103.681 139.287 103.882L147.138 105.712L144.112 101.131L139.985 100.216C139.36 100.078 138.764 99.6463 138.466 99.1177L135.722 94.252C135.5 93.8582 134.892 93.5342 134.337 93.5166L134.112 93.5096C133.526 93.491 133.198 93.8121 133.402 94.2368Z" fill="url(#paint13_linear_44_2317)"/>
<path d="M153.032 111.696C151.826 114.749 149.521 117.673 147.819 117.673C147.795 117.673 147.771 117.673 147.746 117.673C146.044 117.673 143.74 114.749 142.533 111.696C141.506 108.705 140.479 105.729 139.452 102.737C138.223 99.644 141.794 99.059 147.673 99.0926C147.746 99.0929 147.819 99.0969 147.893 99.0965C153.772 99.0629 157.342 99.6419 156.113 102.735C155.086 105.727 154.059 108.705 153.032 111.696Z" fill="url(#paint14_linear_44_2317)"/>
<path d="M144.169 111.831C144.169 109.762 145.857 108.084 147.939 108.084C150.021 108.084 151.708 109.762 151.708 111.831C151.708 113.901 150.021 115.579 147.939 115.579C145.857 115.579 144.169 113.901 144.169 111.831Z" fill="url(#paint15_linear_44_2317)"/>
<path d="M145.104 112.048C145.104 110.508 146.359 109.26 147.907 109.26C149.456 109.26 150.711 110.508 150.711 112.048C150.711 113.587 149.456 114.835 147.907 114.835C146.359 114.835 145.104 113.587 145.104 112.048Z" fill="#91B3FA"/>
<path d="M146.807 95.5301C146.817 95.0853 147.152 94.675 147.56 94.5956C147.976 94.515 148.336 94.8011 148.36 95.2531L148.756 102.891C148.803 103.785 148.324 104.552 147.698 104.552C147.086 104.552 146.618 103.817 146.638 102.958L146.807 95.5301Z" fill="url(#paint16_linear_44_2317)"/>
<path d="M290.061 113.638L293.563 106.36C293.747 105.976 293.451 105.685 292.921 105.702L292.718 105.709C292.216 105.724 291.666 106.017 291.465 106.373L288.985 110.772C288.716 111.25 288.177 111.64 287.612 111.765L283.882 112.592L281.146 116.733L288.243 115.078C289.021 114.897 289.723 114.339 290.061 113.638Z" fill="url(#paint17_linear_44_2317)"/>
<path d="M267.692 106.36L271.195 113.638C271.532 114.339 272.234 114.897 273.012 115.078L280.109 116.733L277.374 112.592L273.643 111.765C273.078 111.64 272.539 111.25 272.27 110.772L269.79 106.373C269.589 106.017 269.039 105.724 268.538 105.709L268.334 105.702C267.804 105.685 267.508 105.976 267.692 106.36Z" fill="url(#paint18_linear_44_2317)"/>
<path d="M285.438 122.321C284.347 125.081 282.264 127.901 280.725 127.901C280.703 127.901 280.681 127.901 280.659 127.901C279.121 127.901 277.037 125.081 275.947 122.321C275.019 119.616 274.09 116.837 273.162 114.132C272.051 111.337 275.279 110.763 280.593 110.794C280.659 110.794 280.725 110.775 280.792 110.775C286.106 110.745 289.334 111.346 288.223 114.142C287.294 116.846 286.366 119.616 285.438 122.321Z" fill="url(#paint19_linear_44_2317)"/>
<path d="M277.425 122.264C277.425 120.393 278.951 118.877 280.833 118.877C282.715 118.877 284.241 120.393 284.241 122.264C284.241 124.135 282.715 125.652 280.833 125.652C278.951 125.652 277.425 124.135 277.425 122.264Z" fill="url(#paint20_linear_44_2317)"/>
<path d="M278.27 122.46C278.27 121.069 279.405 119.941 280.805 119.941C282.205 119.941 283.34 121.069 283.34 122.46C283.34 123.852 282.205 124.98 280.805 124.98C279.405 124.98 278.27 123.852 278.27 122.46Z" fill="#91B3FA"/>
<path d="M279.81 107.529C279.819 107.126 280.122 106.755 280.491 106.684C280.867 106.611 281.193 106.87 281.214 107.278L281.572 114.183C281.614 114.991 281.181 115.684 280.615 115.684C280.063 115.684 279.639 115.02 279.657 114.243L279.81 107.529Z" fill="url(#paint21_linear_44_2317)"/>
<path d="M219.107 87.5805L221.871 81.8361C222.017 81.5331 221.783 81.3041 221.365 81.3172L221.204 81.3223C220.808 81.3348 220.374 81.5661 220.216 81.847L218.258 85.3187C218.046 85.6958 217.621 86.0035 217.175 86.1024L214.23 86.7552L212.071 90.0233L217.672 88.7179C218.287 88.5745 218.84 88.1344 219.107 87.5805Z" fill="url(#paint22_linear_44_2317)"/>
<path d="M201.453 81.8362L204.217 87.5806C204.483 88.1346 205.037 88.5747 205.652 88.7179L211.253 90.0233L209.094 86.7552L206.149 86.1024C205.703 86.0035 205.278 85.6959 205.065 85.3187L203.108 81.847C202.95 81.5661 202.516 81.3349 202.12 81.3223L201.959 81.3172C201.541 81.3041 201.307 81.5332 201.453 81.8362Z" fill="url(#paint23_linear_44_2317)"/>
<path d="M215.458 94.4412C214.598 96.6196 212.953 98.853 211.739 98.853C211.722 98.853 211.704 98.853 211.687 98.853C210.473 98.853 208.828 96.6196 207.968 94.4412C207.235 92.3066 206.502 90.1094 205.769 87.9748C204.892 85.7681 207.44 85.3139 211.634 85.3378C211.687 85.3379 211.739 85.3223 211.791 85.3221C215.986 85.2981 218.533 85.7759 217.657 87.9826C216.924 90.1172 216.191 92.3067 215.458 94.4412Z" fill="url(#paint24_linear_44_2317)"/>
<path d="M209.135 94.3899C209.135 92.9132 210.339 91.7161 211.824 91.7161C213.31 91.7161 214.514 92.9132 214.514 94.3899C214.514 95.8665 213.31 97.0636 211.824 97.0636C210.339 97.0636 209.135 95.8665 209.135 94.3899Z" fill="url(#paint25_linear_44_2317)"/>
<path d="M213.211 95.9508C213.992 95.1746 213.992 93.9161 213.211 93.1399C212.431 92.3637 211.165 92.3637 210.384 93.1399C209.603 93.9161 209.603 95.1747 210.384 95.9509C211.165 96.7271 212.431 96.7271 213.211 95.9508Z" fill="#91B3FA"/>
<path d="M211.017 82.7592C211.024 82.4418 211.263 82.1491 211.554 82.0924C211.851 82.0349 212.108 82.2391 212.125 82.5616L212.408 88.0113C212.441 88.6488 212.099 89.1959 211.652 89.1959C211.216 89.1959 210.882 88.6715 210.896 88.059L211.017 82.7592Z" fill="url(#paint26_linear_44_2317)"/>
<path d="M276.748 152.109L278.033 132.446L282.913 152.109L294.216 149.3L285.482 158.238L290.106 170.496L282.656 162.965L274.436 175.349L276.705 159.852L264.674 161.048L275.978 155.557L266.986 148.024L276.748 152.109Z" fill="url(#paint27_linear_44_2317)"/>
<path d="M204.008 97.8671L204.757 86.3962L207.604 97.8671L214.198 96.2284L209.103 101.442L211.8 108.593L207.454 104.199L202.659 111.424L203.982 102.383L196.964 103.081L203.558 99.8782L198.313 95.4835L204.008 97.8671Z" fill="white"/>
<path d="M210.876 138.814C210.707 138.814 210.67 138.678 210.67 138.509V137.291C210.67 137.123 210.706 136.987 210.876 136.987C211.045 136.987 211.082 137.123 211.082 137.291V138.509C211.082 138.678 211.045 138.814 210.876 138.814Z" fill="#BDD0FB"/>
<path d="M210.876 133.939C210.707 133.939 210.67 133.803 210.67 133.634V130.586C210.67 130.418 210.706 130.281 210.876 130.281C211.045 130.281 211.082 130.418 211.082 130.586V133.634C211.082 133.803 211.045 133.939 210.876 133.939ZM210.876 127.843C210.707 127.843 210.67 127.707 210.67 127.538V124.49C210.67 124.322 210.706 124.185 210.876 124.185C211.045 124.185 211.082 124.322 211.082 124.49V127.538C211.082 127.707 211.045 127.843 210.876 127.843ZM210.876 121.747C210.707 121.747 210.67 121.61 210.67 121.442V118.394C210.67 118.225 210.706 118.089 210.876 118.089C211.045 118.089 211.082 118.225 211.082 118.394V121.442C211.082 121.61 211.045 121.747 210.876 121.747ZM210.876 115.651C210.707 115.651 210.67 115.514 210.67 115.346V112.298C210.67 112.129 210.706 111.993 210.876 111.993C211.045 111.993 211.082 112.129 211.082 112.298V115.346C211.082 115.514 211.045 115.651 210.876 115.651ZM210.876 109.554C210.707 109.554 210.67 109.418 210.67 109.25V106.202C210.67 106.033 210.706 105.897 210.876 105.897C211.045 105.897 211.082 106.033 211.082 106.202V109.25C211.082 109.418 211.045 109.554 210.876 109.554ZM210.876 103.458C210.707 103.458 210.67 103.322 210.67 103.153V102.544C210.67 102.375 210.706 102.239 210.876 102.239C211.045 102.239 211.082 102.375 211.082 102.544V103.153C211.082 103.322 211.045 103.458 210.876 103.458Z" fill="#BDD0FB"/>
<path d="M210.876 101.627C210.707 101.627 210.67 101.491 210.67 101.322V99.4954C210.67 99.3272 210.706 99.1909 210.876 99.1909C211.045 99.1909 211.082 99.3271 211.082 99.4954V101.322C211.082 101.491 211.045 101.627 210.876 101.627Z" fill="#BDD0FB"/>
<path d="M122.772 133.002L123.724 118.425L127.342 133.002L135.721 130.919L129.246 137.545L132.674 146.632L127.152 141.049L121.058 150.229L122.74 138.741L113.821 139.628L122.2 135.557L115.535 129.973L122.772 133.002Z" fill="white"/>
<path d="M80.7288 188.735C80.7288 188.735 86.9851 150.004 70.4076 137.165C53.8303 124.326 20.4913 113.187 26.8569 57.2181C30.5835 24.4515 31.7283 10.0597 32.037 3.75856C32.1574 1.30052 34.5977 -0.36612 36.9462 0.4118C53.5589 5.91477 107.147 26.5618 113.607 65.7183C121.267 112.139 80.7288 188.735 80.7288 188.735Z" fill="#BDD0FB"/>
<path d="M48.0044 17.7221C64.4459 36.8516 82.0619 69.1515 89.5713 100.082C90.3885 105.123 93.3088 116.003 92.6826 134.545C92.2717 150.025 89.2272 166.029 85.7277 176.421C85.5064 177.079 84.7913 177.433 84.1304 177.213C82.994 176.835 83.32 175.608 83.3252 175.649C88.1502 157.737 90.2947 134.919 87.7703 113.726C84.4057 87.6679 72.5568 61.2402 59.6793 38.4429L58.3416 36.1886C48.2996 18.9995 45.7528 18.538 47.0392 17.6088C47.3431 17.389 47.764 17.4438 48.0044 17.7221Z" fill="#91B3FA"/>
<path d="M74.972 261.51C77.0739 263.254 59.76 225.936 63.9941 174.958C65.9893 150.937 73.0637 121.951 62.5573 107.566C53.8132 95.5941 14.8422 92.3437 2.01467 91.5902C0.411771 91.496 -0.578411 93.2974 0.370876 94.5848C5.05102 100.932 14.7972 115.588 15.2064 128.073C15.7458 144.528 28.0693 157.905 40.6063 163.761C53.1433 169.617 59.8474 173.973 61.1183 196.501C62.3891 219.03 68.9999 256.554 74.972 261.51Z" fill="#91B3FA"/>
<path d="M17.685 102.295C33.1912 106.753 48.2617 117.943 53.5197 133.343L54.0125 134.81C55.1399 138.244 60.4726 162.003 62.0089 180.996C62.028 181.233 61.8505 181.441 61.6123 181.46C61.2077 181.492 61.1209 181.037 61.1478 181.082C59.5082 170.164 56.7422 156.155 54.3888 145.61C51.9085 134.125 50.1158 126.319 40.3376 116.884C29.3952 106.623 17.4379 102.935 17.4724 102.951C17.2918 102.888 17.1973 102.69 17.2616 102.511C17.3233 102.338 17.5102 102.245 17.685 102.295Z" fill="#7D97F4"/>
<path d="M340.913 297.444L328.883 191.797L328.865 191.806C326.242 155.447 295.761 126.68 258.519 126.68C236.166 126.68 216.256 136.983 203.33 153.076H138.684C125.758 136.983 105.848 126.68 83.4946 126.68C46.2526 126.68 15.772 155.41 13.1494 191.768L13.1312 191.778L1.10115 297.435C-0.304833 309.78 6.59983 321.586 18.0893 326.476L30.0269 331.559C41.1892 336.31 54.1556 333.422 62.2563 324.431L119.256 261.131H222.757L279.757 324.432C287.858 333.423 300.825 336.295 311.987 331.544L323.925 326.472C335.414 321.582 342.319 309.79 340.913 297.444Z" fill="url(#paint28_linear_44_2317)"/>
<path opacity="0.53" d="M84.0465 243.204C109.485 243.204 130.107 222.704 130.107 197.415C130.107 172.127 109.485 151.626 84.0465 151.626C58.6083 151.626 37.9865 172.127 37.9865 197.415C37.9865 222.704 58.6083 243.204 84.0465 243.204Z" fill="url(#paint29_linear_44_2317)"/>
<path opacity="0.53" d="M261.446 243.204C286.884 243.204 307.506 222.704 307.506 197.415C307.506 172.127 286.884 151.626 261.446 151.626C236.008 151.626 215.386 172.127 215.386 197.415C215.386 222.704 236.008 243.204 261.446 243.204Z" fill="url(#paint30_linear_44_2317)"/>
<path d="M261.589 184.218C267.477 184.218 272.249 179.473 272.249 173.62C272.249 167.768 267.477 163.023 261.589 163.023C255.702 163.023 250.929 167.768 250.929 173.62C250.929 179.473 255.702 184.218 261.589 184.218Z" fill="url(#paint31_linear_44_2317)"/>
<path d="M265.911 228.882C271.295 226.514 273.728 220.256 271.346 214.903C268.964 209.551 262.669 207.132 257.285 209.5C251.901 211.868 249.467 218.126 251.849 223.479C254.231 228.831 260.527 231.25 265.911 228.882Z" fill="#7D97F4"/>
<path d="M284.518 207.012C290.406 207.012 295.179 202.267 295.179 196.415C295.179 190.562 290.406 185.817 284.518 185.817C278.631 185.817 273.858 190.562 273.858 196.415C273.858 202.267 278.631 207.012 284.518 207.012Z" fill="url(#paint32_linear_44_2317)"/>
<path d="M238.66 207.012C244.548 207.012 249.32 202.267 249.32 196.415C249.32 190.562 244.548 185.817 238.66 185.817C232.773 185.817 228 190.562 228 196.415C228 202.267 232.773 207.012 238.66 207.012Z" fill="#91B3FA"/>
<path d="M105.439 191.585H90.1377L88.0433 171.747C87.8296 169.671 86.0704 168.594 83.9711 168.594H78.8819C77.7536 168.594 76.6754 168.571 75.9018 169.388C75.1284 170.204 74.728 171.043 74.7956 172.163L75.9834 191.585H56.9065C54.6457 191.585 52.4029 193.438 52.4029 195.686V199.544C52.4029 201.791 54.6457 203.655 56.9065 203.655H76.7076L77.9246 223.896C78.0544 226.045 79.8454 227.795 82.0109 227.795H89.31C90.4681 227.795 91.5723 227.213 92.3484 226.358C93.1244 225.504 93.5002 224.336 93.3823 223.191L91.3731 203.655H105.439C107.7 203.655 108.485 201.791 108.485 199.544V195.686C108.485 193.438 107.7 191.585 105.439 191.585Z" fill="url(#paint33_linear_44_2317)"/>
<path opacity="0.53" d="M162.832 182.388C162.832 183.658 161.797 184.687 160.519 184.687H147.222C145.944 184.687 144.909 183.658 144.909 182.388C144.909 181.119 145.944 180.089 147.222 180.089H160.519C161.797 180.089 162.832 181.119 162.832 182.388Z" fill="url(#paint34_linear_44_2317)"/>
<path opacity="0.53" d="M194.053 182.388C194.053 183.658 193.017 184.687 191.74 184.687H178.442C177.165 184.687 176.13 183.658 176.13 182.388C176.13 181.119 177.165 180.089 178.442 180.089H191.74C193.017 180.089 194.053 181.119 194.053 182.388Z" fill="url(#paint35_linear_44_2317)"/>
<path d="M62.2803 77.1989C64.3649 75.774 66.6698 74.6997 69.1133 74.0387C70.0311 73.7904 74.9867 75.2222 78.0501 75.1521C82.2553 75.056 86.5356 73.1536 90.0018 74.0123C93.4449 74.8654 96.263 75.9794 97.89 77.1298C102.76 80.5734 105.62 86.9946 107.363 93.3549C104.063 96.7221 99.9106 98.2186 99.9106 98.2186L99.1432 129.135L80.7538 138.488L59.7645 128.012L60.5164 97.7998C60.5164 97.7998 53.8512 94.7141 53.3622 93.5918C52.8731 92.4694 56.3999 81.2181 62.2803 77.1989Z" fill="url(#paint36_linear_44_2317)"/>
<path d="M63.5989 117.214C63.5989 117.214 60.7891 117.262 58.7045 118.862C56.9828 120.183 55.2408 126.659 56.5001 130.944C59.2843 140.416 83.7057 135.75 90.6335 135.344C97.5614 134.938 103.889 131.535 101.827 123.263C99.7657 114.99 63.5989 117.214 63.5989 117.214Z" fill="url(#paint37_linear_44_2317)"/>
<path d="M72.2406 48.6462C72.156 48.8055 66.8273 52.7036 66.8273 52.7036C66.8273 52.7036 68.004 61.0727 72.7827 64.3775C78.0365 68.0109 85.4562 61.3848 85.4562 61.3848C85.4562 61.3848 91.361 62.7802 94.5011 50.5609C95.2215 47.7574 91.063 47.5205 86.044 48.0368C79.5717 48.7028 72.2406 48.6462 72.2406 48.6462Z" fill="url(#paint38_linear_44_2317)"/>
<path d="M53.6727 93.4568C53.6727 93.4568 44.741 118.073 65.1084 128.19C69.3375 127.632 67.7109 120.65 67.7109 120.65C67.7109 120.65 58.8611 118.703 61.5189 98.1682C59.072 96.1669 53.6727 93.4568 53.6727 93.4568Z" fill="url(#paint39_linear_44_2317)"/>
<path d="M106.933 93.4568C106.933 93.4568 113.079 119.153 95.4974 128.19C91.2684 127.632 92.8949 120.65 92.8949 120.65C92.8949 120.65 100.027 117.158 99.0869 98.1682C101.534 96.1669 106.933 93.4568 106.933 93.4568Z" fill="url(#paint40_linear_44_2317)"/>
<path d="M97.0893 127.36H59.1909C58.9422 127.36 58.7387 127.158 58.7387 126.91V101.759C58.7387 101.511 58.9422 101.309 59.1909 101.309H97.0893C97.338 101.309 97.5415 101.511 97.5415 101.759V126.91C97.5415 127.158 97.338 127.36 97.0893 127.36Z" fill="#91B3FA"/>
<path d="M94.8509 127.927H61.4294C59.6317 127.927 58.1687 126.473 58.1687 124.686V103.984C58.1687 102.197 59.6317 100.743 61.4294 100.743H94.8509C96.6486 100.743 98.1116 102.197 98.1116 103.984V124.686C98.1116 126.473 96.6486 127.927 94.8509 127.927ZM61.4294 101.876C60.2598 101.876 59.3086 102.822 59.3086 103.984V124.686C59.3086 125.848 60.2598 126.794 61.4294 126.794H94.8509C96.0205 126.794 96.9718 125.848 96.9718 124.686V103.984C96.9718 102.822 96.0205 101.876 94.8509 101.876H61.4294Z" fill="white"/>
<path d="M66.0745 190.147C67.5027 185.665 73.412 176.814 73.412 176.814L74.6478 177.03L80.0599 179.334C80.0599 179.334 76.4836 188.949 73.9369 193.235C73.677 193.673 73.3735 194.034 73.042 194.333C72.846 194.396 72.6475 194.452 72.4427 194.496C69.3586 195.156 66.7245 192.927 66.0745 190.147Z" fill="url(#paint41_linear_44_2317)"/>
<path d="M65.9423 190.597C65.9807 190.453 66.0251 190.302 66.0746 190.147C66.7246 192.927 69.3586 195.156 72.4426 194.496C72.6474 194.452 72.846 194.396 73.0419 194.333C70.1239 196.966 64.9153 194.465 65.9423 190.597Z" fill="#7D97F4"/>
<path d="M74.6843 174.025L73.8336 175.611C73.3766 176.463 73.3208 177.482 73.6789 178.44C74.0369 179.397 74.7787 180.212 75.7369 180.701C76.5009 181.09 77.3725 181.19 78.1588 180.977C78.945 180.765 79.5809 180.258 79.9259 179.569L81.1594 177.103L74.6843 174.025Z" fill="url(#paint42_linear_44_2317)"/>
<path d="M89.1875 116.74C83.9579 116.26 80.8096 120.347 80.6878 125.221C80.7386 125.335 79.8595 151.024 73.585 175.194C75.8779 175.655 78.1333 176.479 80.2184 177.528C80.6813 177.765 81.127 178.018 81.5562 178.287C89.6942 161.567 93.9827 146.062 97.5614 128.281C98.6322 122.746 94.9837 117.272 89.1875 116.74Z" fill="url(#paint43_linear_44_2317)"/>
<path d="M106.892 175.66C104.364 171.68 96.3937 164.61 96.3937 164.61L95.258 165.135L90.6333 168.751C90.6333 168.751 96.5509 177.158 100.107 180.662C100.47 181.02 100.855 181.293 101.252 181.498C101.457 181.509 101.663 181.513 101.871 181.503C105.013 181.355 106.979 178.521 106.892 175.66Z" fill="url(#paint44_linear_44_2317)"/>
<path d="M107.135 176.062C107.061 175.932 106.979 175.798 106.892 175.66C106.979 178.521 105.013 181.355 101.871 181.503C101.663 181.513 101.457 181.509 101.252 181.498C104.741 183.305 109.119 179.55 107.135 176.062Z" fill="#7D97F4"/>
<path d="M94.4508 162.231L95.6781 163.551C96.3374 164.26 96.6533 165.234 96.5541 166.254C96.455 167.274 95.9495 168.253 95.1513 168.971C94.515 169.544 93.7004 169.863 92.8881 169.858C92.0757 169.853 91.3324 169.524 90.8229 168.944L89.0006 166.87L94.4508 162.231Z" fill="url(#paint45_linear_44_2317)"/>
<path d="M89.6729 167.202C91.5181 165.252 93.6555 163.85 96.0849 162.998C96.1824 162.945 96.2815 162.9 96.3796 162.85C95.6968 161.573 94.8339 159.905 93.7243 157.689C85.6305 141.414 80.4844 133.089 76.4006 119.429C74.8142 114.122 69.6102 111.492 64.4254 114.475C59.7967 117.138 58.8673 122.396 61.0789 126.749C67.6951 139.772 80.0195 157.177 89.2805 167.636C89.4108 167.49 89.5402 167.344 89.6729 167.202Z" fill="url(#paint46_linear_44_2317)"/>
<path d="M69.1133 74.0388C69.1133 74.0388 70.9716 82.0442 79.9935 81.878C89.1826 81.7117 90.0018 74.0125 90.0018 74.0125L83.9992 72.7356L83.4975 66.0867L74.4683 66.7516L74.3011 73.068L69.1133 74.0388Z" fill="url(#paint47_linear_44_2317)"/>
<path d="M75.736 47.248C75.736 47.248 65.3886 67.1736 77.663 72.0079C86.3209 75.4176 91.7491 58.7757 90.1301 54.2684C87.6267 47.299 85.978 48.126 85.978 48.126L75.736 47.248Z" fill="url(#paint48_linear_44_2317)"/>
<path d="M92.6201 45.435C97.732 46.8317 93.3632 57.8529 85.6671 55.2466C77.971 52.6403 74.9466 52.6784 73.7473 54.7792C72.548 56.8801 72.2903 64.3407 69.6882 60.6532C66.8353 56.6103 65.2446 48.4955 68.7425 45.8796C71.8685 43.5417 72.598 39.9171 76.3475 40.0427C81.3243 40.2094 85.1731 38.0163 87.4196 39.598C89.9996 41.4144 88.8588 44.4073 92.6201 45.435Z" fill="url(#paint49_linear_44_2317)"/>
<path d="M73.274 56.4928C73.274 56.4928 71.0672 54.1323 70.7139 56.9772C70.3606 59.8223 71.4947 63.4864 72.8234 61.4779C74.1521 59.4695 73.274 56.4928 73.274 56.4928Z" fill="url(#paint50_linear_44_2317)"/>
<path d="M82.0638 110.178C82.2776 111.615 81.5035 112.918 80.0587 113.131C78.6139 113.343 77.2693 112.351 77.0554 110.915C76.8415 109.479 77.503 108.052 78.9478 107.84C80.3926 107.627 81.8501 108.742 82.0638 110.178Z" fill="white"/>
<path d="M143.449 31.6931L138.665 23.5024C137.936 22.2447 136.586 21.5275 135.126 21.5275H125.569C124.108 21.5275 122.759 22.2448 122.03 23.5024L117.246 31.722C116.518 32.9773 116.518 34.5089 117.246 35.7643L122.03 44.0277C122.759 45.2853 124.108 46.0753 125.569 46.0753H135.126C136.586 46.0753 137.936 45.2782 138.665 44.0205L143.449 35.761C144.177 34.5055 144.177 32.9484 143.449 31.6931Z" fill="url(#paint51_linear_44_2317)"/>
<path d="M141.868 31.6063L137.739 24.7024C137.11 23.6169 135.945 23.1639 134.684 23.1639H126.435C125.174 23.1639 124.009 23.6169 123.38 24.7024L119.251 31.7143C118.622 32.7979 118.622 34.0784 119.251 35.162L123.38 42.8922C124.009 43.9777 125.174 45.257 126.435 45.257H134.684C135.945 45.257 137.109 43.9508 137.739 42.8652L141.868 35.4267C142.497 34.3431 142.497 32.6899 141.868 31.6063Z" fill="#7D97F4"/>
<path d="M232.894 31.0371C232.894 33.5217 231.188 35.0288 229.134 35.0288H153.337C151.283 35.0288 149.349 33.5217 149.349 31.0371V30.9924C149.349 28.5077 151.283 26.8462 153.337 26.8462H229.134C231.188 26.8462 232.894 28.5077 232.894 30.9924V31.0371Z" fill="url(#paint52_linear_44_2317)"/>
<path d="M202.32 31.3465C202.32 32.9423 201.275 34.6195 199.987 34.6195H154.126C152.837 34.6195 151.793 32.9423 151.793 31.3465C151.793 29.7506 152.837 28.0735 154.126 28.0735H199.987C201.276 28.0734 202.32 29.7506 202.32 31.3465Z" fill="#7D97F4"/>
<path d="M133.649 29.5758C133.649 31.3791 132.179 33.3259 130.365 33.3259C128.551 33.3259 127.08 31.3791 127.08 29.5758C127.08 27.7725 128.551 26.4932 130.365 26.4932C132.179 26.4932 133.649 27.7725 133.649 29.5758Z" fill="white"/>
<path d="M126.289 40.2688H134.307C135.151 40.2688 135.898 39.7265 136.155 38.9274L136.587 37.5868C136.902 36.6052 136.389 35.5425 135.415 35.1887C132.152 34.0027 128.778 34.1549 125.322 35.2982C124.353 35.6185 123.816 36.6481 124.083 37.6272L124.416 38.8447C124.645 39.6853 125.413 40.2688 126.289 40.2688Z" fill="white"/>
<path d="M215.969 298.894C217.958 299.287 229.289 305.99 229.289 298.327C229.289 297.605 229.289 289.766 229.289 289.766C229.289 289.766 215.398 298.781 215.969 298.894Z" fill="url(#paint53_linear_44_2317)"/>
<path d="M223.061 284.506C223.061 284.506 218.081 276.151 217.458 267.952C216.836 259.752 217.847 256.163 216.914 253.781C215.98 251.398 211.441 242.348 211.233 245.068C211.026 247.788 212.686 250.624 212.686 250.624C212.686 250.624 209.806 252.902 210.3 255.524C210.793 258.146 211.804 258.411 211.804 258.411C211.804 258.411 211.96 264.084 212.219 264.084C212.478 264.084 207.654 292.551 213.049 293.169C218.444 293.788 222.802 297.604 223.061 284.506Z" fill="url(#paint54_linear_44_2317)"/>
<path d="M208.83 253.507C208.779 253.13 205.292 245.588 205.916 244.73C206.541 243.873 207.171 243.108 208.15 245.65C209.129 248.193 210.297 255.111 209.921 255.152C209.545 255.193 209.01 254.859 208.83 253.507Z" fill="url(#paint55_linear_44_2317)"/>
<path d="M176.193 335.676C176.193 335.676 173.56 333.503 170.06 333.82C167.619 334.245 164.755 336.391 162.909 337.983C162.588 338.261 162.479 338.703 162.638 339.091C162.796 339.478 163.188 339.73 163.619 339.721C168.197 339.626 177.152 339.356 177.152 338.685C177.151 337.784 176.193 335.676 176.193 335.676Z" fill="url(#paint56_linear_44_2317)"/>
<path d="M178.007 331.847L175.906 335.792C175.906 335.792 171.16 336.179 171.316 334.322C171.471 332.466 172.638 330.222 172.638 330.222L178.007 331.847Z" fill="url(#paint57_linear_44_2317)"/>
<path d="M231.654 334.533C228.363 316.668 225.965 305.195 225.965 305.195C225.965 305.195 189.485 281.799 185.75 287.523C182.015 293.247 171.312 332.311 171.312 332.311L178.448 334.245C178.448 334.245 192.091 315.874 193.337 300.19C196.849 311.629 200.122 338.965 227.146 339.749C228.488 339.788 229.775 339.222 230.65 338.21C231.525 337.198 231.896 335.846 231.654 334.533Z" fill="url(#paint58_linear_44_2317)"/>
<path d="M152.796 334.09L148.439 338.19L145.015 334.786L149.528 329.604L152.796 334.09Z" fill="url(#paint59_linear_44_2317)"/>
<path d="M248.687 245.11L252.326 258.439C252.492 259.05 252.286 259.711 251.808 260.072C250.056 261.389 245.477 264.01 239.197 261.463C238.478 261.172 237.986 260.435 237.924 259.597L237.061 247.985L248.687 245.11Z" fill="url(#paint60_linear_44_2317)"/>
<path d="M227.391 234.358C227.391 234.358 228.104 246.97 232.59 251.21C237.076 255.45 246.704 253.36 250.679 244.235L245.744 227.639L227.391 234.358Z" fill="url(#paint61_linear_44_2317)"/>
<path d="M244.318 238.943C243.942 239.029 243.579 238.764 243.554 238.381C243.479 237.216 243.24 234.902 242.495 233.278C242.495 233.278 243.095 231.682 238.267 233.76C233.44 235.838 226.197 238.878 222.301 236.372C218.503 233.928 215.381 222.987 225.729 225.842C226.123 225.951 226.518 225.665 226.523 225.259C226.543 223.506 227.061 219.513 231.254 218.573C235.177 217.693 237.122 219.585 237.895 220.693C238.122 221.019 238.593 221.053 238.862 220.759C240.134 219.371 243.513 216.473 247.917 218.866C251.544 220.836 251.932 223.194 251.746 224.626C251.686 225.091 252.135 225.447 252.577 225.288C253.777 224.857 255.657 224.74 257.245 227.106C259.441 230.377 255.7 232.734 254.586 233.341C254.404 233.441 254.28 233.621 254.261 233.827C254.115 235.418 253.553 242.512 249.715 246.133C249.383 246.447 248.546 246.132 248.405 245.699L246.257 239.083C246.157 238.775 245.837 238.595 245.521 238.668L244.318 238.943Z" fill="url(#paint62_linear_44_2317)"/>
<path d="M243.787 239.848C243.787 239.848 246.006 233.321 248.322 235.697C250.637 238.074 247.075 242.572 244.131 243.237L243.787 239.848Z" fill="url(#paint63_linear_44_2317)"/>
<path d="M227.391 280.948C227.391 280.948 210.767 287.91 207.654 284.351C204.542 280.793 206.253 260.839 206.253 260.839L199.25 258.979C199.25 258.979 190.639 294.201 205.268 299.461C215.888 303.28 236.134 290.849 236.134 290.849L227.391 280.948Z" fill="url(#paint64_linear_44_2317)"/>
<path d="M243.023 256.865C240.343 257.45 237.405 259.995 235.107 262.437C232.482 265.225 230.724 268.719 230.07 272.482C230.048 272.604 230.027 272.727 230.006 272.85C224.22 279.154 219.124 283.235 215.696 284.744C221.714 293.24 224.97 296.468 224.97 296.468C224.97 296.468 225.664 296.319 226.827 296.021C225.696 306.159 225.084 314.009 225.084 314.009C225.084 314.009 236.838 325.607 251.073 328.907C264.038 319.419 266.021 292.274 266.021 292.274C267.036 260.078 252.078 254.885 243.023 256.865Z" fill="url(#paint65_linear_44_2317)"/>
<path d="M251.074 328.907C251.074 328.907 245.238 346.157 216.433 336.488C202.466 331.8 182.91 304.618 182.91 304.618C182.91 304.618 178.085 317.768 152.874 335.405L147.272 330.403C147.272 330.403 172.794 286.672 185.867 291.21C198.939 295.748 255.068 317.717 251.074 328.907Z" fill="url(#paint66_linear_44_2317)"/>
<path d="M150.563 336.191C149.498 336.203 145.015 334.245 145.015 334.245L140.839 335.353C137.199 334.797 134.073 336.029 131.967 337.281C131.507 337.554 131.286 338.099 131.424 338.614C131.563 339.129 132.028 339.49 132.564 339.499C136.686 339.567 143.454 339.635 146.882 339.431C152.018 339.126 152.796 339.273 150.563 336.191Z" fill="url(#paint67_linear_44_2317)"/>
<path d="M195.55 242.856C195.43 242.549 195.453 242.206 195.613 241.918C195.773 241.63 196.053 241.428 196.378 241.366L204.491 239.828C204.806 239.768 205.116 239.953 205.211 240.257L211.451 260.256C211.478 260.342 211.469 260.436 211.427 260.516C211.384 260.595 211.311 260.655 211.224 260.681L204.442 262.704C203.886 262.87 203.296 262.584 203.085 262.047L195.55 242.856Z" fill="url(#paint68_linear_44_2317)"/>
<path d="M198.109 243.054C198.043 242.879 198.06 242.684 198.154 242.522C198.248 242.36 198.409 242.248 198.595 242.217L203.98 241.314C204.292 241.261 204.594 241.446 204.687 241.746L209.987 258.784C210.014 258.873 210.004 258.97 209.957 259.051C209.911 259.132 209.833 259.191 209.741 259.213L204.916 260.366C204.748 260.407 204.577 260.316 204.517 260.156L198.109 243.054Z" fill="#91B3FA"/>
<path d="M200.706 241.402C200.72 241.465 200.828 241.495 200.948 241.47L202.718 241.099C202.838 241.074 202.925 241.003 202.912 240.94L202.899 240.879C202.885 240.817 202.777 240.786 202.657 240.812L200.887 241.182C200.767 241.207 200.68 241.279 200.694 241.341L200.706 241.402Z" fill="#91B3FA"/>
<path d="M199.16 259.363C199.056 258.476 196.06 252.829 197.227 250.663C198.394 248.497 198.861 244.784 199.99 245.829C201.118 246.873 199.717 250.509 200.223 251.591C200.729 252.675 202.671 255.426 202.926 257.57C203.18 259.714 204.619 262.769 201.585 263.195C198.55 263.62 199.16 259.363 199.16 259.363Z" fill="url(#paint69_linear_44_2317)"/>
<path d="M212.984 261.25C212.927 261.25 212.871 261.224 212.835 261.174C211.414 259.217 212.311 256.983 212.694 256.03C212.742 255.911 212.795 255.78 212.812 255.718C212.639 255.331 211.96 253.351 212.167 252.116C212.215 251.831 212.364 251.744 212.48 251.721C213.119 251.597 214.507 253.694 215.073 254.602C215.127 254.688 215.1 254.801 215.013 254.854C214.927 254.908 214.813 254.881 214.76 254.795C213.838 253.314 212.836 252.08 212.558 252.08C212.558 252.08 212.556 252.08 212.555 252.08C212.556 252.085 212.541 252.112 212.53 252.176C212.332 253.358 213.054 255.405 213.157 255.588C213.222 255.701 213.176 255.818 213.036 256.166C212.675 257.064 211.831 259.166 213.134 260.961C213.193 261.043 213.174 261.157 213.092 261.216C213.059 261.239 213.022 261.25 212.984 261.25Z" fill="#F8A570"/>
<defs>
<linearGradient id="paint0_linear_44_2317" x1="374.032" y1="393.644" x2="134.782" y2="137.451" gradientUnits="userSpaceOnUse">
<stop stop-color="#DAE3FE"/>
<stop offset="1" stop-color="#E9EFFD"/>
</linearGradient>
<linearGradient id="paint1_linear_44_2317" x1="329.459" y1="-47.294" x2="313.951" y2="-22.6635" gradientUnits="userSpaceOnUse">
<stop stop-color="#6251C1"/>
<stop offset="1" stop-color="#735EE6"/>
</linearGradient>
<linearGradient id="paint2_linear_44_2317" x1="193.431" y1="171.537" x2="190.2" y2="175.264" gradientUnits="userSpaceOnUse">
<stop stop-color="#2C50FF"/>
<stop offset="0.9964" stop-color="#1A1B80"/>
</linearGradient>
<linearGradient id="paint3_linear_44_2317" x1="200.015" y1="170.309" x2="196.785" y2="174.037" gradientUnits="userSpaceOnUse">
<stop stop-color="#2C50FF"/>
<stop offset="0.9964" stop-color="#1A1B80"/>
</linearGradient>
<linearGradient id="paint4_linear_44_2317" x1="204.153" y1="174.33" x2="175.712" y2="207.102" gradientUnits="userSpaceOnUse">
<stop stop-color="#9CFFFB"/>
<stop offset="1" stop-color="#9BFFFA"/>
</linearGradient>
<linearGradient id="paint5_linear_44_2317" x1="227.498" y1="171.537" x2="230.729" y2="175.264" gradientUnits="userSpaceOnUse">
<stop stop-color="#2C50FF"/>
<stop offset="0.9964" stop-color="#1A1B80"/>
</linearGradient>
<linearGradient id="paint6_linear_44_2317" x1="220.914" y1="170.309" x2="224.145" y2="174.037" gradientUnits="userSpaceOnUse">
<stop stop-color="#2C50FF"/>
<stop offset="0.9964" stop-color="#1A1B80"/>
</linearGradient>
<linearGradient id="paint7_linear_44_2317" x1="216.743" y1="174.398" x2="245.195" y2="207.184" gradientUnits="userSpaceOnUse">
<stop stop-color="#9CFFFB"/>
<stop offset="1" stop-color="#9BFFFA"/>
</linearGradient>
<linearGradient id="paint8_linear_44_2317" x1="203.713" y1="188.642" x2="212.769" y2="199.078" gradientUnits="userSpaceOnUse">
<stop stop-color="#2C50FF"/>
<stop offset="0.9964" stop-color="#1A1B80"/>
</linearGradient>
<linearGradient id="paint9_linear_44_2317" x1="214.23" y1="188.642" x2="223.286" y2="199.078" gradientUnits="userSpaceOnUse">
<stop stop-color="#2C50FF"/>
<stop offset="0.9964" stop-color="#1A1B80"/>
</linearGradient>
<linearGradient id="paint10_linear_44_2317" x1="212.471" y1="159.143" x2="200.585" y2="172.839" gradientUnits="userSpaceOnUse">
<stop stop-color="#2C50FF"/>
<stop offset="0.9964" stop-color="#1A1B80"/>
</linearGradient>
<linearGradient id="paint11_linear_44_2317" x1="207.612" y1="174.656" x2="218.521" y2="187.226" gradientUnits="userSpaceOnUse">
<stop stop-color="#2C50FF"/>
<stop offset="0.9964" stop-color="#1A1B80"/>
</linearGradient>
<linearGradient id="paint12_linear_44_2317" x1="735.106" y1="-1629.64" x2="729.1" y2="-1611.52" gradientUnits="userSpaceOnUse">
<stop stop-color="#09005D"/>
<stop offset="1" stop-color="#1A0F91"/>
</linearGradient>
<linearGradient id="paint13_linear_44_2317" x1="721.636" y1="-1634.11" x2="715.63" y2="-1615.98" gradientUnits="userSpaceOnUse">
<stop stop-color="#09005D"/>
<stop offset="1" stop-color="#1A0F91"/>
</linearGradient>
<linearGradient id="paint14_linear_44_2317" x1="149.731" y1="79.5566" x2="142.253" y2="165.31" gradientUnits="userSpaceOnUse">
<stop stop-color="#E1473D"/>
<stop offset="1" stop-color="#E9605A"/>
</linearGradient>
<linearGradient id="paint15_linear_44_2317" x1="732.191" y1="-1630.61" x2="726.184" y2="-1612.48" gradientUnits="userSpaceOnUse">
<stop stop-color="#09005D"/>
<stop offset="1" stop-color="#1A0F91"/>
</linearGradient>
<linearGradient id="paint16_linear_44_2317" x1="728.292" y1="-1631.9" x2="722.286" y2="-1613.78" gradientUnits="userSpaceOnUse">
<stop stop-color="#09005D"/>
<stop offset="1" stop-color="#1A0F91"/>
</linearGradient>
<linearGradient id="paint17_linear_44_2317" x1="422.741" y1="-2741.32" x2="421.725" y2="-2719.64" gradientUnits="userSpaceOnUse">
<stop stop-color="#09005D"/>
<stop offset="1" stop-color="#1A0F91"/>
</linearGradient>
<linearGradient id="paint18_linear_44_2317" x1="409.263" y1="-2741.96" x2="408.246" y2="-2720.27" gradientUnits="userSpaceOnUse">
<stop stop-color="#09005D"/>
<stop offset="1" stop-color="#1A0F91"/>
</linearGradient>
<linearGradient id="paint19_linear_44_2317" x1="282.488" y1="92.7931" x2="275.6" y2="171.778" gradientUnits="userSpaceOnUse">
<stop stop-color="#E1473D"/>
<stop offset="1" stop-color="#E9605A"/>
</linearGradient>
<linearGradient id="paint20_linear_44_2317" x1="416.72" y1="-2741.61" x2="415.703" y2="-2719.93" gradientUnits="userSpaceOnUse">
<stop stop-color="#09005D"/>
<stop offset="1" stop-color="#1A0F91"/>
</linearGradient>
<linearGradient id="paint21_linear_44_2317" x1="416.043" y1="-2741.63" x2="415.026" y2="-2719.95" gradientUnits="userSpaceOnUse">
<stop stop-color="#09005D"/>
<stop offset="1" stop-color="#1A0F91"/>
</linearGradient>
<linearGradient id="paint22_linear_44_2317" x1="779.006" y1="-1277.36" x2="773.914" y2="-1264.86" gradientUnits="userSpaceOnUse">
<stop stop-color="#6251C1"/>
<stop offset="1" stop-color="#1A0F91"/>
</linearGradient>
<linearGradient id="paint23_linear_44_2317" x1="769.854" y1="-1281.09" x2="764.761" y2="-1268.59" gradientUnits="userSpaceOnUse">
<stop stop-color="#735EE6"/>
<stop offset="1" stop-color="#1A0F91"/>
</linearGradient>
<linearGradient id="paint24_linear_44_2317" x1="213.132" y1="71.1166" x2="207.69" y2="133.517" gradientUnits="userSpaceOnUse">
<stop stop-color="#E1473D"/>
<stop offset="1" stop-color="#E9605A"/>
</linearGradient>
<linearGradient id="paint25_linear_44_2317" x1="777.584" y1="-1277.94" x2="772.492" y2="-1265.44" gradientUnits="userSpaceOnUse">
<stop stop-color="#735EE6"/>
<stop offset="1" stop-color="#988AE6"/>
</linearGradient>
<linearGradient id="paint26_linear_44_2317" x1="774.362" y1="-1279.26" x2="769.269" y2="-1266.76" gradientUnits="userSpaceOnUse">
<stop stop-color="#09005D"/>
<stop offset="1" stop-color="#1A0F91"/>
</linearGradient>
<linearGradient id="paint27_linear_44_2317" x1="278.597" y1="162.179" x2="285.504" y2="104.445" gradientUnits="userSpaceOnUse">
<stop stop-color="#FF928E"/>
<stop offset="1" stop-color="#FE7062"/>
</linearGradient>
<linearGradient id="paint28_linear_44_2317" x1="175.152" y1="145.599" x2="169.865" y2="345.665" gradientUnits="userSpaceOnUse">
<stop stop-color="#1D1355"/>
<stop offset="1" stop-color="#735EE6"/>
</linearGradient>
<linearGradient id="paint29_linear_44_2317" x1="37.9865" y1="197.415" x2="130.107" y2="197.415" gradientUnits="userSpaceOnUse">
<stop stop-color="#4F52FF"/>
<stop offset="1" stop-color="#4042E2"/>
</linearGradient>
<linearGradient id="paint30_linear_44_2317" x1="215.386" y1="197.415" x2="307.506" y2="197.415" gradientUnits="userSpaceOnUse">
<stop stop-color="#4F52FF"/>
<stop offset="1" stop-color="#4042E2"/>
</linearGradient>
<linearGradient id="paint31_linear_44_2317" x1="186.588" y1="266.316" x2="386.072" y2="16.8402" gradientUnits="userSpaceOnUse">
<stop stop-color="#FF928E"/>
<stop offset="1" stop-color="#FE7062"/>
</linearGradient>
<linearGradient id="paint32_linear_44_2317" x1="509.409" y1="258.516" x2="466.001" y2="246.387" gradientUnits="userSpaceOnUse">
<stop stop-color="#E1473D"/>
<stop offset="1" stop-color="#E9605A"/>
</linearGradient>
<linearGradient id="paint33_linear_44_2317" x1="100.974" y1="162.639" x2="41.7757" y2="265.858" gradientUnits="userSpaceOnUse">
<stop stop-color="#09005D"/>
<stop offset="1" stop-color="#1A0F91"/>
</linearGradient>
<linearGradient id="paint34_linear_44_2317" x1="158.047" y1="175.192" x2="145.642" y2="196.821" gradientUnits="userSpaceOnUse">
<stop stop-color="#4F52FF"/>
<stop offset="1" stop-color="#4042E2"/>
</linearGradient>
<linearGradient id="paint35_linear_44_2317" x1="189.268" y1="175.192" x2="176.863" y2="196.821" gradientUnits="userSpaceOnUse">
<stop stop-color="#4F52FF"/>
<stop offset="1" stop-color="#4042E2"/>
</linearGradient>
<linearGradient id="paint36_linear_44_2317" x1="116.53" y1="20.033" x2="83.9293" y2="93.8192" gradientUnits="userSpaceOnUse">
<stop stop-color="#6251C1"/>
<stop offset="1" stop-color="#735EE6"/>
</linearGradient>
<linearGradient id="paint37_linear_44_2317" x1="80.3818" y1="115.751" x2="78.9422" y2="128.694" gradientUnits="userSpaceOnUse">
<stop stop-color="#2C50FF"/>
<stop offset="0.9964" stop-color="#1A1B80"/>
</linearGradient>
<linearGradient id="paint38_linear_44_2317" x1="104.07" y1="20.074" x2="82.3958" y2="51.0578" gradientUnits="userSpaceOnUse">
<stop stop-color="#09005D"/>
<stop offset="1" stop-color="#1A0F91"/>
</linearGradient>
<linearGradient id="paint39_linear_44_2317" x1="49.1091" y1="86.8382" x2="83.7034" y2="170.898" gradientUnits="userSpaceOnUse">
<stop stop-color="#FEBBBA"/>
<stop offset="1" stop-color="#FF928E"/>
</linearGradient>
<linearGradient id="paint40_linear_44_2317" x1="111.058" y1="86.6579" x2="76.4641" y2="170.718" gradientUnits="userSpaceOnUse">
<stop stop-color="#FEBBBA"/>
<stop offset="1" stop-color="#FF928E"/>
</linearGradient>
<linearGradient id="paint41_linear_44_2317" x1="66.0745" y1="185.714" x2="80.0599" y2="185.714" gradientUnits="userSpaceOnUse">
<stop stop-color="#4F52FF"/>
<stop offset="1" stop-color="#4042E2"/>
</linearGradient>
<linearGradient id="paint42_linear_44_2317" x1="42.0447" y1="137.479" x2="79.9734" y2="181.405" gradientUnits="userSpaceOnUse">
<stop stop-color="#FEBBBA"/>
<stop offset="1" stop-color="#FF928E"/>
</linearGradient>
<linearGradient id="paint43_linear_44_2317" x1="151.92" y1="118.736" x2="97.081" y2="142.289" gradientUnits="userSpaceOnUse">
<stop stop-color="#4F52FF"/>
<stop offset="1" stop-color="#4042E2"/>
</linearGradient>
<linearGradient id="paint44_linear_44_2317" x1="90.6334" y1="173.06" x2="106.895" y2="173.06" gradientUnits="userSpaceOnUse">
<stop stop-color="#4F52FF"/>
<stop offset="1" stop-color="#4042E2"/>
</linearGradient>
<linearGradient id="paint45_linear_44_2317" x1="125.797" y1="151.36" x2="73.134" y2="175.994" gradientUnits="userSpaceOnUse">
<stop stop-color="#FEBBBA"/>
<stop offset="1" stop-color="#FF928E"/>
</linearGradient>
<linearGradient id="paint46_linear_44_2317" x1="84.1554" y1="186.253" x2="101.241" y2="311.474" gradientUnits="userSpaceOnUse">
<stop stop-color="#4F52FF"/>
<stop offset="1" stop-color="#4042E2"/>
</linearGradient>
<linearGradient id="paint47_linear_44_2317" x1="79.7858" y1="93.7672" x2="79.3263" y2="53.5505" gradientUnits="userSpaceOnUse">
<stop stop-color="#FEBBBA"/>
<stop offset="1" stop-color="#FF928E"/>
</linearGradient>
<linearGradient id="paint48_linear_44_2317" x1="78.4377" y1="71.4429" x2="85.448" y2="37.1176" gradientUnits="userSpaceOnUse">
<stop stop-color="#FEBBBA"/>
<stop offset="1" stop-color="#FF928E"/>
</linearGradient>
<linearGradient id="paint49_linear_44_2317" x1="104.963" y1="15.3766" x2="80.5746" y2="50.2402" gradientUnits="userSpaceOnUse">
<stop stop-color="#09005D"/>
<stop offset="1" stop-color="#1A0F91"/>
</linearGradient>
<linearGradient id="paint50_linear_44_2317" x1="73.7388" y1="75.9999" x2="68.716" y2="21.3413" gradientUnits="userSpaceOnUse">
<stop stop-color="#FEBBBA"/>
<stop offset="1" stop-color="#FF928E"/>
</linearGradient>
<linearGradient id="paint51_linear_44_2317" x1="135.234" y1="28.2005" x2="111.366" y2="55.7036" gradientUnits="userSpaceOnUse">
<stop stop-color="#09005D"/>
<stop offset="1" stop-color="#1A0F91"/>
</linearGradient>
<linearGradient id="paint52_linear_44_2317" x1="191.122" y1="-43.1149" x2="191.122" y2="-0.156319" gradientUnits="userSpaceOnUse">
<stop stop-color="#09005D"/>
<stop offset="1" stop-color="#1A0F91"/>
</linearGradient>
<linearGradient id="paint53_linear_44_2317" x1="227.05" y1="292.651" x2="218.021" y2="306.469" gradientUnits="userSpaceOnUse">
<stop stop-color="#FF928E"/>
<stop offset="1" stop-color="#FE7062"/>
</linearGradient>
<linearGradient id="paint54_linear_44_2317" x1="216.09" y1="266.839" x2="216.859" y2="287.415" gradientUnits="userSpaceOnUse">
<stop stop-color="#FEBBBA"/>
<stop offset="1" stop-color="#FF928E"/>
</linearGradient>
<linearGradient id="paint55_linear_44_2317" x1="210.728" y1="245.197" x2="201.26" y2="261.422" gradientUnits="userSpaceOnUse">
<stop stop-color="#FEBBBA"/>
<stop offset="1" stop-color="#FF928E"/>
</linearGradient>
<linearGradient id="paint56_linear_44_2317" x1="175.122" y1="331.971" x2="164.525" y2="345.375" gradientUnits="userSpaceOnUse">
<stop stop-color="#09005D"/>
<stop offset="1" stop-color="#1A0F91"/>
</linearGradient>
<linearGradient id="paint57_linear_44_2317" x1="177.101" y1="329.471" x2="170.947" y2="337.255" gradientUnits="userSpaceOnUse">
<stop stop-color="#FEBBBA"/>
<stop offset="1" stop-color="#FF928E"/>
</linearGradient>
<linearGradient id="paint58_linear_44_2317" x1="204.081" y1="287.644" x2="206.725" y2="239.365" gradientUnits="userSpaceOnUse">
<stop stop-color="#09005D"/>
<stop offset="1" stop-color="#1A0F91"/>
</linearGradient>
<linearGradient id="paint59_linear_44_2317" x1="147.165" y1="328.369" x2="151.019" y2="341.968" gradientUnits="userSpaceOnUse">
<stop stop-color="#FEBBBA"/>
<stop offset="1" stop-color="#FF928E"/>
</linearGradient>
<linearGradient id="paint60_linear_44_2317" x1="245.647" y1="263.609" x2="243.791" y2="246.81" gradientUnits="userSpaceOnUse">
<stop stop-color="#FEBBBA"/>
<stop offset="1" stop-color="#FF928E"/>
</linearGradient>
<linearGradient id="paint61_linear_44_2317" x1="235.396" y1="248.368" x2="244.842" y2="224.542" gradientUnits="userSpaceOnUse">
<stop stop-color="#FEBBBA"/>
<stop offset="1" stop-color="#FF928E"/>
</linearGradient>
<linearGradient id="paint62_linear_44_2317" x1="244.725" y1="204.929" x2="234.526" y2="243.704" gradientUnits="userSpaceOnUse">
<stop stop-color="#E1473D"/>
<stop offset="1" stop-color="#E9605A"/>
</linearGradient>
<linearGradient id="paint63_linear_44_2317" x1="241.302" y1="251.811" x2="250.748" y2="227.985" gradientUnits="userSpaceOnUse">
<stop stop-color="#FEBBBA"/>
<stop offset="1" stop-color="#FF928E"/>
</linearGradient>
<linearGradient id="paint64_linear_44_2317" x1="204.576" y1="247.056" x2="225.644" y2="321.409" gradientUnits="userSpaceOnUse">
<stop stop-color="#FEBBBA"/>
<stop offset="1" stop-color="#FF928E"/>
</linearGradient>
<linearGradient id="paint65_linear_44_2317" x1="274.814" y1="228.124" x2="245.256" y2="286.975" gradientUnits="userSpaceOnUse">
<stop stop-color="#6047EC"/>
<stop offset="1" stop-color="#6047EC"/>
</linearGradient>
<linearGradient id="paint66_linear_44_2317" x1="195.512" y1="231.05" x2="196.529" y2="257.848" gradientUnits="userSpaceOnUse">
<stop stop-color="#09005D"/>
<stop offset="1" stop-color="#1A0F91"/>
</linearGradient>
<linearGradient id="paint67_linear_44_2317" x1="139.939" y1="332.695" x2="143.533" y2="345.379" gradientUnits="userSpaceOnUse">
<stop stop-color="#09005D"/>
<stop offset="1" stop-color="#1A0F91"/>
</linearGradient>
<linearGradient id="paint68_linear_44_2317" x1="211.462" y1="198.035" x2="207.665" y2="223.68" gradientUnits="userSpaceOnUse">
<stop stop-color="#4F52FF"/>
<stop offset="1" stop-color="#4042E2"/>
</linearGradient>
<linearGradient id="paint69_linear_44_2317" x1="200.619" y1="260.467" x2="204.618" y2="300.696" gradientUnits="userSpaceOnUse">
<stop stop-color="#FEBBBA"/>
<stop offset="1" stop-color="#FF928E"/>
</linearGradient>
</defs>
</svg>
