<svg width="170" height="47" viewBox="0 0 170 47" fill="none" xmlns="http://www.w3.org/2000/svg">
<path d="M0 0H170L146.168 23.5L170 47H0V0Z" fill="#6251C1"/>
<path d="M13.525 29.156C12.8317 29.156 12.1903 29.0303 11.601 28.779C11.0117 28.5277 10.496 28.1767 10.054 27.726C9.612 27.2753 9.26533 26.7467 9.014 26.14C8.77133 25.5333 8.65 24.8703 8.65 24.151C8.65 23.4317 8.767 22.7687 9.001 22.162C9.24367 21.5467 9.58167 21.018 10.015 20.576C10.457 20.1253 10.9727 19.7787 11.562 19.536C12.1513 19.2847 12.7927 19.159 13.486 19.159C14.1793 19.159 14.799 19.276 15.345 19.51C15.8997 19.744 16.3677 20.056 16.749 20.446C17.1303 20.8273 17.4033 21.2477 17.568 21.707L15.995 22.461C15.813 21.9583 15.5053 21.551 15.072 21.239C14.6387 20.927 14.11 20.771 13.486 20.771C12.8793 20.771 12.342 20.914 11.874 21.2C11.4147 21.486 11.055 21.8803 10.795 22.383C10.5437 22.8857 10.418 23.475 10.418 24.151C10.418 24.827 10.548 25.4207 10.808 25.932C11.0767 26.4347 11.445 26.829 11.913 27.115C12.381 27.401 12.9183 27.544 13.525 27.544C14.019 27.544 14.474 27.4487 14.89 27.258C15.306 27.0587 15.6397 26.7813 15.891 26.426C16.1423 26.062 16.268 25.633 16.268 25.139V24.398L17.074 25.1H13.486V23.605H18.036V24.58C18.036 25.3253 17.9103 25.984 17.659 26.556C17.4077 27.128 17.0653 27.609 16.632 27.999C16.2073 28.3803 15.7263 28.6707 15.189 28.87C14.6517 29.0607 14.097 29.156 13.525 29.156ZM20.435 29V19.315H26.87V20.875H22.203V23.358H26.61V24.918H22.203V27.44H26.87V29H20.435ZM30.8825 29V20.875H28.3735V19.315H35.1335V20.875H32.6635V29H30.8825ZM39.7299 29L43.0709 19.315H45.3589L48.6999 29H46.7759L46.0869 26.92H42.3429L41.6409 29H39.7299ZM42.8499 25.36H45.5799L43.9679 20.537H44.4619L42.8499 25.36ZM54.0883 29V19.315H57.6893C58.348 19.315 58.9287 19.4363 59.4313 19.679C59.9427 19.913 60.3413 20.2597 60.6273 20.719C60.9133 21.1697 61.0563 21.72 61.0563 22.37C61.0563 23.0373 60.896 23.605 60.5753 24.073C60.2633 24.541 59.8387 24.8877 59.3013 25.113L61.5243 29H59.5223L57.1433 24.749L58.2873 25.425H55.8563V29H54.0883ZM55.8563 23.865H57.7153C58.036 23.865 58.3133 23.8043 58.5473 23.683C58.7813 23.553 58.9633 23.3753 59.0933 23.15C59.2233 22.9247 59.2883 22.6647 59.2883 22.37C59.2883 22.0667 59.2233 21.8067 59.0933 21.59C58.9633 21.3647 58.7813 21.1913 58.5473 21.07C58.3133 20.94 58.036 20.875 57.7153 20.875H55.8563V23.865ZM63.6831 29V19.315H70.1181V20.875H65.4511V23.358H69.8581V24.918H65.4511V27.44H70.1181V29H63.6831ZM72.4145 29V19.315H75.5735C76.5962 19.315 77.4845 19.523 78.2385 19.939C79.0012 20.3463 79.5905 20.914 80.0065 21.642C80.4225 22.3613 80.6305 23.1977 80.6305 24.151C80.6305 25.0957 80.4225 25.9363 80.0065 26.673C79.5905 27.401 79.0012 27.973 78.2385 28.389C77.4845 28.7963 76.5962 29 75.5735 29H72.4145ZM74.1825 27.44H75.6125C76.2712 27.44 76.8388 27.3057 77.3155 27.037C77.8008 26.7597 78.1778 26.3783 78.4465 25.893C78.7152 25.399 78.8495 24.8183 78.8495 24.151C78.8495 23.475 78.7152 22.8943 78.4465 22.409C78.1778 21.9237 77.8008 21.5467 77.3155 21.278C76.8388 21.0093 76.2712 20.875 75.6125 20.875H74.1825V27.44ZM86.7686 29.156C86.0232 29.156 85.3602 29 84.7796 28.688C84.2076 28.376 83.7569 27.947 83.4276 27.401C83.0982 26.855 82.9336 26.2353 82.9336 25.542V19.315H84.7016V25.451C84.7016 25.8497 84.7882 26.2093 84.9616 26.53C85.1436 26.8507 85.3906 27.102 85.7026 27.284C86.0146 27.4573 86.3699 27.544 86.7686 27.544C87.1759 27.544 87.5312 27.4573 87.8346 27.284C88.1466 27.102 88.3892 26.8507 88.5626 26.53C88.7446 26.2093 88.8356 25.8497 88.8356 25.451V19.315H90.6036V25.542C90.6036 26.2353 90.4389 26.855 90.1096 27.401C89.7802 27.947 89.3252 28.376 88.7446 28.688C88.1726 29 87.5139 29.156 86.7686 29.156ZM97.9186 29.156C97.2253 29.156 96.584 29.0303 95.9946 28.779C95.414 28.5277 94.9026 28.1767 94.4606 27.726C94.0273 27.2753 93.6893 26.7467 93.4466 26.14C93.204 25.5333 93.0826 24.8703 93.0826 24.151C93.0826 23.4317 93.1996 22.7687 93.4336 22.162C93.6763 21.5467 94.0143 21.018 94.4476 20.576C94.8896 20.1253 95.4053 19.7787 95.9946 19.536C96.584 19.2847 97.2253 19.159 97.9186 19.159C98.612 19.159 99.2316 19.276 99.7776 19.51C100.332 19.744 100.8 20.056 101.182 20.446C101.563 20.8273 101.836 21.2477 102.001 21.707L100.415 22.448C100.233 21.9627 99.925 21.564 99.4916 21.252C99.0583 20.9313 98.534 20.771 97.9186 20.771C97.312 20.771 96.7746 20.914 96.3066 21.2C95.8473 21.486 95.4876 21.8803 95.2276 22.383C94.9763 22.8857 94.8506 23.475 94.8506 24.151C94.8506 24.827 94.9763 25.4207 95.2276 25.932C95.4876 26.4347 95.8473 26.829 96.3066 27.115C96.7746 27.401 97.312 27.544 97.9186 27.544C98.534 27.544 99.0583 27.388 99.4916 27.076C99.925 26.7553 100.233 26.3523 100.415 25.867L102.001 26.608C101.836 27.0673 101.563 27.492 101.182 27.882C100.8 28.2633 100.332 28.571 99.7776 28.805C99.2316 29.039 98.612 29.156 97.9186 29.156ZM106.152 29V20.875H103.643V19.315H110.403V20.875H107.933V29H106.152ZM112.482 29V19.315H114.25V29H112.482ZM121.884 29.156C121.173 29.156 120.51 29.0303 119.895 28.779C119.279 28.5277 118.742 28.1767 118.283 27.726C117.823 27.2753 117.464 26.7467 117.204 26.14C116.952 25.5247 116.827 24.8617 116.827 24.151C116.827 23.4317 116.952 22.7687 117.204 22.162C117.455 21.5553 117.81 21.0267 118.27 20.576C118.729 20.1253 119.266 19.7787 119.882 19.536C120.497 19.2847 121.164 19.159 121.884 19.159C122.603 19.159 123.27 19.2847 123.886 19.536C124.501 19.7873 125.038 20.1383 125.498 20.589C125.957 21.031 126.312 21.5553 126.564 22.162C126.824 22.7687 126.954 23.4317 126.954 24.151C126.954 24.8617 126.824 25.5247 126.564 26.14C126.304 26.7467 125.944 27.2753 125.485 27.726C125.025 28.1767 124.488 28.5277 123.873 28.779C123.266 29.0303 122.603 29.156 121.884 29.156ZM121.884 27.544C122.36 27.544 122.798 27.4617 123.197 27.297C123.595 27.1237 123.942 26.8853 124.237 26.582C124.54 26.2787 124.77 25.919 124.926 25.503C125.09 25.087 125.173 24.6363 125.173 24.151C125.173 23.6657 125.09 23.2193 124.926 22.812C124.77 22.396 124.54 22.0363 124.237 21.733C123.942 21.421 123.595 21.1827 123.197 21.018C122.798 20.8533 122.36 20.771 121.884 20.771C121.416 20.771 120.982 20.8533 120.584 21.018C120.185 21.1827 119.834 21.421 119.531 21.733C119.236 22.0363 119.006 22.396 118.842 22.812C118.677 23.2193 118.595 23.6657 118.595 24.151C118.595 24.6363 118.677 25.087 118.842 25.503C119.006 25.919 119.236 26.2787 119.531 26.582C119.834 26.8853 120.185 27.1237 120.584 27.297C120.982 27.4617 121.416 27.544 121.884 27.544ZM129.526 29V19.315H130.904L136.234 26.491L135.519 26.634V19.315H137.287V29H135.896L130.644 21.772L131.294 21.629V29H129.526Z" fill="white"/>
</svg>
