<svg width="102" height="210" viewBox="0 0 102 210" fill="none" xmlns="http://www.w3.org/2000/svg">
<path d="M14.252 59.2497C10.486 29.7428 30.207 1.82922 50.674 1.82922C71.141 1.82922 88.197 29.703 88.197 59.2497" stroke="#21211E" stroke-width="2" stroke-miterlimit="10"/>
<path d="M0 50.0735V209.929L50.973 182.916L101.946 209.929V50.0735H0ZM14.252 62.6458C12.172 62.6458 10.486 60.972 10.486 58.9071C10.486 56.8422 12.172 55.1683 14.252 55.1683C16.332 55.1683 18.018 56.8422 18.018 58.9071C18.018 60.972 16.332 62.6458 14.252 62.6458ZM87.732 62.6458C85.652 62.6458 83.966 60.972 83.966 58.9071C83.966 56.8422 85.652 55.1683 87.732 55.1683C89.812 55.1683 91.498 56.8422 91.498 58.9071C91.498 60.972 89.812 62.6458 87.732 62.6458Z" fill="#6251C1"/>
<path d="M40.46 50.0735L101.946 85.4874V78.808L52.058 50.0735H40.46Z" fill="#735EE6"/>
<path d="M9.64697 50.0735L101.946 103.235V96.5547L21.245 50.0735H9.64697Z" fill="#735EE6"/>
<path d="M0 62.2646L101.946 120.983V114.302L0 55.5853V62.2646Z" fill="#735EE6"/>
<path d="M0 80.0123L101.946 138.73V132.05L0 73.332V80.0123Z" fill="#735EE6"/>
<path d="M0 97.76L101.946 156.477V149.798L0 91.0797V97.76Z" fill="#735EE6"/>
<path d="M0 115.508L101.946 174.225V167.544L0 108.827V115.508Z" fill="#735EE6"/>
<path d="M0 133.254L101.946 191.972V185.292L0 126.575V133.254Z" fill="#735EE6"/>
<path d="M0 151.002L101.946 209.72V203.04L0 144.322V151.002Z" fill="#735EE6"/>
<path d="M0 168.749L37.237 190.196L43.277 186.995L0 162.069V168.749Z" fill="#735EE6"/>
<path d="M0 186.497L21.189 198.701L27.229 195.5L0 179.817V186.497Z" fill="#735EE6"/>
<path d="M0 204.244L5.142 207.205L11.182 204.005L0 197.564V204.244Z" fill="#735EE6"/>
<path d="M14.252 55.1685C12.172 55.1685 10.486 56.8423 10.486 58.9072C10.486 60.9722 12.172 62.646 14.252 62.646C16.332 62.646 18.018 60.9722 18.018 58.9072C18.018 56.8423 16.332 55.1685 14.252 55.1685ZM14.252 61.9153C12.578 61.9153 11.222 60.5681 11.222 58.9072C11.222 57.2453 12.579 55.8981 14.252 55.8981C15.926 55.8981 17.282 57.2453 17.282 58.9072C17.282 60.5691 15.925 61.9153 14.252 61.9153Z" fill="#6047EC"/>
<path d="M87.732 55.1685C85.652 55.1685 83.966 56.8423 83.966 58.9072C83.966 60.9722 85.652 62.646 87.732 62.646C89.812 62.646 91.498 60.9722 91.498 58.9072C91.498 56.8423 89.812 55.1685 87.732 55.1685ZM87.732 61.9153C86.058 61.9153 84.702 60.5681 84.702 58.9072C84.702 57.2453 86.059 55.8981 87.732 55.8981C89.406 55.8981 90.763 57.2453 90.763 58.9072C90.763 60.5691 89.406 61.9153 87.732 61.9153Z" fill="#6047EC"/>
<path d="M101.946 61.0604L82.871 50.0735H71.273L84.235 57.5391C84.786 56.1522 86.14 55.1674 87.732 55.1674C89.812 55.1674 91.498 56.8412 91.498 58.9061C91.498 59.7926 91.174 60.5958 90.655 61.2361L101.945 67.7387V61.0604H101.946Z" fill="#735EE6"/>
<path d="M14.252 58.9072C14.252 58.9072 17.406 50.4508 14.252 49.2367" stroke="#21211E" stroke-width="2" stroke-miterlimit="10" stroke-linecap="round" stroke-linejoin="round"/>
<path d="M88.196 58.9072C88.196 58.9072 91.35 50.4508 88.196 49.2367" stroke="#21211E" stroke-width="2" stroke-miterlimit="10" stroke-linecap="round" stroke-linejoin="round"/>
<path d="M18.7177 72.5062C18.6788 72.1779 18.5211 71.923 18.2446 71.7415C17.9681 71.5601 17.6289 71.4693 17.2271 71.4693C16.9334 71.4693 16.6763 71.5169 16.456 71.6119C16.2378 71.707 16.0671 71.8376 15.944 72.004C15.823 72.1703 15.7625 72.3593 15.7625 72.571C15.7625 72.7482 15.8047 72.9005 15.8889 73.0279C15.9753 73.1532 16.0855 73.258 16.2194 73.3422C16.3533 73.4243 16.4938 73.4923 16.6406 73.5463C16.7875 73.5982 16.9226 73.6403 17.0457 73.6727L17.7197 73.8542C17.8925 73.8995 18.0847 73.9622 18.2964 74.0421C18.5103 74.122 18.7144 74.2311 18.9088 74.3694C19.1054 74.5055 19.2674 74.6804 19.3949 74.8943C19.5223 75.1082 19.5861 75.3706 19.5861 75.6817C19.5861 76.0403 19.4921 76.3643 19.3042 76.6538C19.1184 76.9432 18.8462 77.1733 18.4876 77.3439C18.1312 77.5146 17.6981 77.5999 17.1883 77.5999C16.713 77.5999 16.3015 77.5232 15.9537 77.3699C15.6081 77.2165 15.3359 77.0026 15.1372 76.7283C14.9406 76.454 14.8293 76.1353 14.8034 75.7724H15.6329C15.6545 76.023 15.7388 76.2304 15.8857 76.3945C16.0347 76.5566 16.2227 76.6775 16.4495 76.7575C16.6785 76.8352 16.9247 76.8741 17.1883 76.8741C17.495 76.8741 17.7704 76.8244 18.0145 76.7251C18.2586 76.6235 18.452 76.4831 18.5945 76.3038C18.7371 76.1224 18.8084 75.9107 18.8084 75.6687C18.8084 75.4484 18.7468 75.2691 18.6237 75.1308C18.5006 74.9926 18.3386 74.8803 18.1377 74.7939C17.9368 74.7074 17.7197 74.6318 17.4864 74.567L16.6698 74.3337C16.1514 74.1847 15.7409 73.9719 15.4385 73.6954C15.1361 73.4189 14.9849 73.0571 14.9849 72.6099C14.9849 72.2384 15.0853 71.9143 15.2862 71.6378C15.4893 71.3592 15.7615 71.1431 16.1028 70.9898C16.4462 70.8342 16.8297 70.7565 17.2531 70.7565C17.6808 70.7565 18.061 70.8332 18.3936 70.9865C18.7263 71.1377 18.9898 71.3451 19.1843 71.6087C19.3808 71.8722 19.4845 72.1714 19.4953 72.5062H18.7177ZM20.9073 77.4833V70.8472H23.1495C23.6701 70.8472 24.0957 70.9412 24.4262 71.1291C24.7589 71.3149 25.0051 71.5665 25.165 71.8841C25.3248 72.2016 25.4048 72.5559 25.4048 72.9469C25.4048 73.3379 25.3248 73.6932 25.165 74.0129C25.0073 74.3327 24.7632 74.5876 24.4327 74.7777C24.1022 74.9656 23.6788 75.0596 23.1625 75.0596H21.5553V74.3467H23.1366C23.493 74.3467 23.7792 74.2851 23.9953 74.162C24.2113 74.0389 24.3679 73.8725 24.4651 73.663C24.5645 73.4513 24.6141 73.2126 24.6141 72.9469C24.6141 72.6812 24.5645 72.4436 24.4651 72.234C24.3679 72.0245 24.2102 71.8603 23.992 71.7415C23.7738 71.6205 23.4844 71.5601 23.1236 71.5601H21.7109V77.4833H20.9073ZM26.6993 77.4833V70.8472H30.7042V71.5601H27.5028V73.8023H30.4969V74.5152H27.5028V76.7704H30.7561V77.4833H26.6993ZM37.4926 72.921H36.689C36.6415 72.6898 36.5583 72.4868 36.4395 72.3118C36.3229 72.1368 36.1803 71.9899 36.0118 71.8711C35.8455 71.7502 35.6608 71.6594 35.4577 71.5989C35.2547 71.5385 35.043 71.5082 34.8226 71.5082C34.4208 71.5082 34.0568 71.6097 33.7306 71.8128C33.4066 72.0159 33.1485 72.315 32.9562 72.7104C32.7661 73.1057 32.6711 73.5906 32.6711 74.1652C32.6711 74.7398 32.7661 75.2248 32.9562 75.6201C33.1485 76.0154 33.4066 76.3146 33.7306 76.5177C34.0568 76.7207 34.4208 76.8223 34.8226 76.8223C35.043 76.8223 35.2547 76.792 35.4577 76.7315C35.6608 76.671 35.8455 76.5814 36.0118 76.4626C36.1803 76.3416 36.3229 76.1936 36.4395 76.0187C36.5583 75.8415 36.6415 75.6385 36.689 75.4095H37.4926C37.4321 75.7487 37.3219 76.0522 37.1621 76.32C37.0022 76.5879 36.8035 76.8158 36.5659 77.0037C36.3283 77.1895 36.0615 77.331 35.7655 77.4282C35.4717 77.5254 35.1574 77.574 34.8226 77.574C34.2566 77.574 33.7533 77.4358 33.3126 77.1592C32.872 76.8827 32.5253 76.4896 32.2725 75.9798C32.0198 75.47 31.8934 74.8651 31.8934 74.1652C31.8934 73.4653 32.0198 72.8605 32.2725 72.3507C32.5253 71.8409 32.872 71.4477 33.3126 71.1712C33.7533 70.8947 34.2566 70.7565 34.8226 70.7565C35.1574 70.7565 35.4717 70.8051 35.7655 70.9023C36.0615 70.9995 36.3283 71.1421 36.5659 71.33C36.8035 71.5158 37.0022 71.7426 37.1621 72.0105C37.3219 72.2762 37.4321 72.5797 37.4926 72.921ZM39.5947 70.8472V77.4833H38.7911V70.8472H39.5947ZM41.4781 77.4833H40.6357L43.0723 70.8472H43.9019L46.3385 77.4833H45.4961L43.513 71.8971H43.4612L41.4781 77.4833ZM41.7892 74.8911H45.185V75.6039H41.7892V74.8911ZM47.3722 77.4833V70.8472H48.1758V76.7704H51.2605V77.4833H47.3722ZM60.6702 74.1652C60.6702 74.8651 60.5439 75.47 60.2911 75.9798C60.0384 76.4896 59.6917 76.8827 59.251 77.1592C58.8103 77.4358 58.307 77.574 57.741 77.574C57.1751 77.574 56.6718 77.4358 56.2311 77.1592C55.7904 76.8827 55.4437 76.4896 55.191 75.9798C54.9382 75.47 54.8118 74.8651 54.8118 74.1652C54.8118 73.4653 54.9382 72.8605 55.191 72.3507C55.4437 71.8409 55.7904 71.4477 56.2311 71.1712C56.6718 70.8947 57.1751 70.7565 57.741 70.7565C58.307 70.7565 58.8103 70.8947 59.251 71.1712C59.6917 71.4477 60.0384 71.8409 60.2911 72.3507C60.5439 72.8605 60.6702 73.4653 60.6702 74.1652ZM59.8926 74.1652C59.8926 73.5906 59.7965 73.1057 59.6042 72.7104C59.4141 72.315 59.156 72.0159 58.8298 71.8128C58.5057 71.6097 58.1428 71.5082 57.741 71.5082C57.3393 71.5082 56.9753 71.6097 56.6491 71.8128C56.325 72.0159 56.0669 72.315 55.8746 72.7104C55.6846 73.1057 55.5895 73.5906 55.5895 74.1652C55.5895 74.7398 55.6846 75.2248 55.8746 75.6201C56.0669 76.0154 56.325 76.3146 56.6491 76.5177C56.9753 76.7207 57.3393 76.8223 57.741 76.8223C58.1428 76.8223 58.5057 76.7207 58.8298 76.5177C59.156 76.3146 59.4141 76.0154 59.6042 75.6201C59.7965 75.2248 59.8926 74.7398 59.8926 74.1652ZM62.0214 77.4833V70.8472H66.0005V71.5601H62.825V73.8023H65.7024V74.5152H62.825V77.4833H62.0214ZM67.3768 77.4833V70.8472H71.3559V71.5601H68.1804V73.8023H71.0577V74.5152H68.1804V77.4833H67.3768ZM72.7322 77.4833V70.8472H76.7371V71.5601H73.5357V73.8023H76.5297V74.5152H73.5357V76.7704H76.789V77.4833H72.7322ZM78.1855 77.4833V70.8472H80.4278C80.9462 70.8472 81.3718 70.9358 81.7045 71.1129C82.0371 71.2879 82.2834 71.5287 82.4432 71.8355C82.6031 72.1422 82.683 72.4911 82.683 72.8821C82.683 73.2731 82.6031 73.6198 82.4432 73.9222C82.2834 74.2246 82.0382 74.4623 81.7077 74.6351C81.3772 74.8057 80.9549 74.8911 80.4408 74.8911H78.6262V74.1652H80.4148C80.7691 74.1652 81.0542 74.1134 81.2703 74.0097C81.4884 73.906 81.6461 73.7591 81.7433 73.569C81.8427 73.3768 81.8924 73.1478 81.8924 72.8821C81.8924 72.6164 81.8427 72.3842 81.7433 72.1854C81.644 71.9867 81.4852 71.8333 81.267 71.7253C81.0488 71.6151 80.7605 71.5601 80.4019 71.5601H78.9891V77.4833H78.1855ZM81.3092 74.5022L82.9422 77.4833H82.009L80.4019 74.5022H81.3092Z" fill="#1C1C1C"/>
<path d="M25.3287 92.9491C25.1979 91.8438 24.667 90.9857 23.7362 90.3749C22.8055 89.7641 21.6638 89.4587 20.3112 89.4587C19.3223 89.4587 18.4569 89.6187 17.7152 89.9386C16.9808 90.2586 16.4063 90.6985 15.9918 91.2584C15.5846 91.8184 15.381 92.4546 15.381 93.1673C15.381 93.7636 15.5228 94.2762 15.8064 94.7052C16.0973 95.127 16.4681 95.4797 16.919 95.7633C17.3698 96.0396 17.8425 96.2687 18.337 96.4505C18.8314 96.625 19.2859 96.7668 19.7004 96.8759L21.9692 97.4867C22.5509 97.6394 23.1981 97.8503 23.9108 98.1193C24.6307 98.3884 25.3178 98.7556 25.9723 99.221C26.634 99.6791 27.1794 100.268 27.6084 100.988C28.0375 101.708 28.252 102.591 28.252 103.639C28.252 104.846 27.9357 105.936 27.303 106.911C26.6777 107.885 25.7614 108.66 24.5543 109.234C23.3545 109.809 21.8965 110.096 20.1803 110.096C18.5806 110.096 17.1953 109.838 16.0245 109.321C14.8611 108.805 13.9448 108.085 13.2758 107.162C12.6141 106.238 12.2396 105.166 12.1523 103.944H14.9447C15.0174 104.788 15.301 105.486 15.7955 106.038C16.2972 106.584 16.9299 106.991 17.6934 107.26C18.4642 107.522 19.2932 107.653 20.1803 107.653C21.2129 107.653 22.1401 107.485 22.9618 107.151C23.7835 106.809 24.4343 106.336 24.9143 105.733C25.3942 105.122 25.6342 104.409 25.6342 103.595C25.6342 102.853 25.4269 102.25 25.0124 101.784C24.5979 101.319 24.0526 100.941 23.3763 100.65C22.7 100.359 21.9692 100.105 21.1838 99.8864L18.4351 99.101C16.6899 98.5993 15.3083 97.883 14.2902 96.9522C13.2722 96.0214 12.7632 94.8034 12.7632 93.2982C12.7632 92.0474 13.1013 90.9567 13.7776 90.0259C14.4611 89.0878 15.3774 88.3606 16.5263 87.8443C17.6825 87.3208 18.9732 87.059 20.3985 87.059C21.8383 87.059 23.1181 87.3171 24.238 87.8334C25.3578 88.3425 26.245 89.0405 26.8994 89.9277C27.5612 90.8149 27.9102 91.822 27.9466 92.9491H25.3287ZM33.6158 109.703H30.7798L38.9824 87.3644H41.7747L49.9773 109.703H47.1413L40.4658 90.8985H40.2913L33.6158 109.703ZM34.663 100.977H46.0942V103.377H34.663V100.977ZM53.4568 109.703V87.3644H56.1619V107.304H66.546V109.703H53.4568ZM70.7345 109.703V87.3644H84.2163V89.7641H73.4396V97.3122H83.5183V99.7119H73.4396V107.304H84.3909V109.703H70.7345Z" fill="white"/>
<path d="M32.5113 122.08V142.551H30.0323V124.679H29.9124L24.9145 127.997V125.478L30.0323 122.08H32.5113ZM45.076 142.831C43.57 142.831 42.2872 142.421 41.2276 141.602C40.1681 140.775 39.3584 139.579 38.7986 138.013C38.2389 136.44 37.959 134.541 37.959 132.315C37.959 130.103 38.2389 128.214 38.7986 126.648C39.3651 125.075 40.1781 123.876 41.2376 123.049C42.3038 122.216 43.5833 121.8 45.076 121.8C46.5687 121.8 47.8449 122.216 48.9044 123.049C49.9706 123.876 50.7836 125.075 51.3434 126.648C51.9098 128.214 52.193 130.103 52.193 132.315C52.193 134.541 51.9132 136.44 51.3534 138.013C50.7936 139.579 49.984 140.775 48.9244 141.602C47.8648 142.421 46.5821 142.831 45.076 142.831ZM45.076 140.632C46.5687 140.632 47.7282 139.912 48.5546 138.473C49.3809 137.033 49.794 134.981 49.794 132.315C49.794 130.543 49.6041 129.033 49.2243 127.787C48.8511 126.541 48.3113 125.592 47.605 124.939C46.9053 124.285 46.0623 123.959 45.076 123.959C43.5966 123.959 42.4405 124.689 41.6075 126.148C40.7745 127.601 40.358 129.657 40.358 132.315C40.358 134.088 40.5446 135.594 40.9178 136.834C41.2909 138.073 41.8274 139.016 42.5271 139.662C43.2335 140.309 44.0831 140.632 45.076 140.632ZM66.4271 138.713V137.633C66.4271 136.887 66.5803 136.204 66.8869 135.584C67.2001 134.958 67.6532 134.458 68.2463 134.085C68.8461 133.705 69.5724 133.515 70.4254 133.515C71.2917 133.515 72.0181 133.705 72.6045 134.085C73.1909 134.458 73.634 134.958 73.9339 135.584C74.2338 136.204 74.3837 136.887 74.3837 137.633V138.713C74.3837 139.459 74.2305 140.145 73.9239 140.772C73.624 141.392 73.1776 141.891 72.5845 142.271C71.9981 142.644 71.2784 142.831 70.4254 142.831C69.5591 142.831 68.8294 142.644 68.2363 142.271C67.6432 141.891 67.1934 141.392 66.8869 140.772C66.5803 140.145 66.4271 139.459 66.4271 138.713ZM68.4662 137.633V138.713C68.4662 139.332 68.6128 139.889 68.906 140.382C69.1992 140.869 69.7057 141.112 70.4254 141.112C71.1251 141.112 71.6182 140.869 71.9048 140.382C72.198 139.889 72.3446 139.332 72.3446 138.713V137.633C72.3446 137.013 72.2046 136.46 71.9248 135.974C71.6449 135.481 71.1451 135.234 70.4254 135.234C69.7257 135.234 69.2226 135.481 68.916 135.974C68.6161 136.46 68.4662 137.013 68.4662 137.633ZM56.2313 126.998V125.918C56.2313 125.172 56.3846 124.489 56.6911 123.869C57.0044 123.243 57.4575 122.743 58.0506 122.37C58.6503 121.99 59.3767 121.8 60.2297 121.8C61.096 121.8 61.8223 121.99 62.4088 122.37C62.9952 122.743 63.4383 123.243 63.7382 123.869C64.0381 124.489 64.188 125.172 64.188 125.918V126.998C64.188 127.744 64.0347 128.43 63.7282 129.057C63.4283 129.677 62.9818 130.176 62.3888 130.556C61.8023 130.929 61.0826 131.116 60.2297 131.116C59.3634 131.116 58.6337 130.929 58.0406 130.556C57.4475 130.176 56.9977 129.677 56.6911 129.057C56.3846 128.43 56.2313 127.744 56.2313 126.998ZM58.2705 125.918V126.998C58.2705 127.617 58.4171 128.174 58.7103 128.667C59.0035 129.153 59.51 129.397 60.2297 129.397C60.9294 129.397 61.4225 129.153 61.709 128.667C62.0023 128.174 62.1489 127.617 62.1489 126.998V125.918C62.1489 125.298 62.0089 124.745 61.729 124.259C61.4492 123.766 60.9494 123.519 60.2297 123.519C59.53 123.519 59.0268 123.766 58.7203 124.259C58.4204 124.745 58.2705 125.298 58.2705 125.918ZM56.991 142.551L71.0651 122.08H73.3442L59.2701 142.551H56.991Z" fill="#1C1C1C"/>
<path d="M46.5629 158.713C46.5629 160.391 46.26 161.84 45.6543 163.062C45.0485 164.284 44.2175 165.226 43.1614 165.889C42.1052 166.552 40.8988 166.883 39.5424 166.883C38.1859 166.883 36.9796 166.552 35.9234 165.889C34.8672 165.226 34.0362 164.284 33.4305 163.062C32.8247 161.84 32.5219 160.391 32.5219 158.713C32.5219 157.036 32.8247 155.586 33.4305 154.364C34.0362 153.142 34.8672 152.2 35.9234 151.537C36.9796 150.875 38.1859 150.543 39.5424 150.543C40.8988 150.543 42.1052 150.875 43.1614 151.537C44.2175 152.2 45.0485 153.142 45.6543 154.364C46.26 155.586 46.5629 157.036 46.5629 158.713ZM44.699 158.713C44.699 157.336 44.4686 156.174 44.0078 155.226C43.5522 154.279 42.9335 153.562 42.1518 153.075C41.3752 152.588 40.5054 152.345 39.5424 152.345C38.5794 152.345 37.707 152.588 36.9252 153.075C36.1486 153.562 35.5299 154.279 35.0691 155.226C34.6135 156.174 34.3857 157.336 34.3857 158.713C34.3857 160.09 34.6135 161.253 35.0691 162.2C35.5299 163.148 36.1486 163.865 36.9252 164.351C37.707 164.838 38.5794 165.081 39.5424 165.081C40.5054 165.081 41.3752 164.838 42.1518 164.351C42.9335 163.865 43.5522 163.148 44.0078 162.2C44.4686 161.253 44.699 160.09 44.699 158.713ZM49.8013 166.666V150.761H59.338V152.469H51.7273V157.843H58.6236V159.552H51.7273V166.666H49.8013ZM62.6367 166.666V150.761H72.1734V152.469H64.5626V157.843H71.4589V159.552H64.5626V166.666H62.6367Z" fill="#1C1C1C"/>
</svg>
