<svg width="154" height="136" viewBox="0 0 154 136" fill="none" xmlns="http://www.w3.org/2000/svg">
<path d="M96.6097 43.6813C96.6097 43.6813 103.603 44.8556 104.166 45.0047C104.729 45.1537 106.944 46.1984 107.057 46.87C107.169 47.5416 107.057 49.5184 107.057 49.5184C107.057 49.5184 106.657 49.8428 106.406 49.1958C106.156 48.5487 106.194 47.2689 106.194 47.2689L104.955 46.795L105.631 47.9887L105.743 50.7867C105.743 50.7867 104.878 50.7083 104.71 50.0384C104.542 49.369 104.545 48.6228 104.545 48.6228L103.641 47.8621L104.317 48.7719L104.545 50.7863C104.545 50.7863 103.886 50.9978 103.678 50.551C103.471 50.1039 103.453 48.7719 103.453 48.7719L100.905 47.8871L99.2169 48.821L96.0644 47.0492L96.6097 43.6813Z" fill="#FFBE9D"/>
<path d="M72.1324 26.505C72.164 26.6429 80.5582 38.1264 80.5582 38.1264L97.4194 43.338L96.6513 49.6323L75.9866 45.4967L68.6526 37.1317L72.1324 26.505Z" fill="#988AE6"/>
<g opacity="0.2">
<path d="M72.1324 26.505C72.164 26.6429 80.5582 38.1264 80.5582 38.1264L97.4194 43.338L96.6513 49.6323L75.9866 45.4967L68.6526 37.1317L72.1324 26.505Z" fill="black"/>
</g>
<path d="M42.7628 48.9846H8.31093C7.58144 48.9846 6.98979 48.3966 6.98979 47.6716V43.6243C6.98979 42.8993 7.58144 42.3113 8.31093 42.3113H42.7628C43.4927 42.3113 44.0839 42.8993 44.0839 43.6243V47.6716C44.0839 48.3966 43.4927 48.9846 42.7628 48.9846Z" fill="#F5F5F5"/>
<path d="M42.7627 48.9848C42.7623 48.977 42.8382 48.9818 42.9799 48.9538C43.1195 48.9249 43.3345 48.8676 43.5542 48.6927C43.7714 48.5238 43.9946 48.2266 44.0406 47.8221C44.0566 47.4176 44.0388 46.9347 44.0401 46.4001C44.0371 45.8624 44.0341 45.2662 44.0302 44.614C44.028 44.2879 44.0263 43.9476 44.0241 43.5943C44.0172 43.2557 43.8589 42.9089 43.5794 42.6737C43.4411 42.5548 43.2721 42.4678 43.09 42.4204C42.9088 42.3687 42.7146 42.3782 42.5066 42.3782C42.097 42.3795 41.6744 42.3808 41.2396 42.3825C40.3697 42.3851 39.4503 42.3877 38.4855 42.3903C30.7549 42.3989 20.0912 42.4101 8.3131 42.423C7.97458 42.4204 7.64299 42.569 7.41846 42.8168C7.18874 43.0666 7.08211 43.3923 7.10248 43.7429C7.10248 44.4658 7.10205 45.1844 7.10205 45.8973C7.10205 46.2536 7.10162 46.609 7.10162 46.9627V47.4925C7.09988 47.6748 7.10032 47.8303 7.14497 47.9866C7.22819 48.2972 7.4436 48.5686 7.72448 48.7229C7.86448 48.8004 8.02009 48.8495 8.17873 48.8667C8.33131 48.8801 8.51899 48.8719 8.68847 48.8745C11.4664 48.8766 14.1465 48.8788 16.6995 48.881C21.8033 48.89 26.4001 48.8982 30.2643 48.9051C34.118 48.9202 37.2402 48.9322 39.4092 48.9408C40.4811 48.9499 41.3172 48.9572 41.8954 48.9619C42.1724 48.9667 42.3869 48.9706 42.5421 48.9731C42.6882 48.977 42.7627 48.9848 42.7627 48.9848C42.7627 48.9848 42.6882 48.9925 42.5426 48.9964C42.3878 48.999 42.1728 49.0029 41.8959 49.0076C41.3176 49.0124 40.4815 49.0197 39.4096 49.0287C37.2406 49.0373 34.1185 49.0494 30.2647 49.0645C26.4005 49.0714 21.8038 49.0796 16.6999 49.0886C14.1469 49.0908 11.4669 49.0929 8.6889 49.0951C8.51162 49.092 8.35038 49.1024 8.15533 49.0864C7.96722 49.0666 7.783 49.0085 7.61699 48.9167C7.2841 48.7345 7.02923 48.414 6.92997 48.0457C6.87666 47.863 6.87622 47.6627 6.87839 47.4934L6.87795 46.9635C6.87795 46.6098 6.87796 46.2544 6.87753 45.8982C6.87753 45.1852 6.87709 44.4671 6.87709 43.7438C6.85195 43.3729 6.97938 42.9529 7.25158 42.6668C7.51729 42.3735 7.91259 42.1969 8.3131 42.1999C20.0912 42.2128 30.7549 42.2244 38.4855 42.2326C39.4503 42.2356 40.3697 42.2382 41.2396 42.2404C41.6744 42.2417 42.0965 42.2434 42.5066 42.2447C42.7068 42.246 42.9214 42.2369 43.1238 42.2955C43.3245 42.3498 43.51 42.4471 43.6609 42.579C43.9664 42.84 44.1368 43.2226 44.1407 43.5922C44.1394 43.9467 44.1385 44.2879 44.1377 44.6149C44.1342 45.2671 44.1307 45.8633 44.1277 46.4009C44.1199 46.939 44.1312 47.4107 44.1073 47.8307C44.0514 48.2554 43.8108 48.5604 43.582 48.7293C43.3496 48.9042 43.1269 48.9555 42.9838 48.977C42.8382 48.9973 42.7627 48.9848 42.7627 48.9848Z" fill="#263238"/>
<path d="M136.302 134.237C146.079 133.771 153.622 125.517 153.152 115.8C152.681 106.084 144.373 98.5853 134.597 99.0512C124.82 99.517 117.276 107.771 117.747 117.487C118.218 127.204 126.525 134.703 136.302 134.237Z" fill="#263238"/>
<path d="M117.737 116.361C117.736 116.376 117.734 116.391 117.734 116.406C117.593 126.133 125.412 134.132 135.199 134.272C144.986 134.413 153.035 126.641 153.176 116.914C153.177 116.899 153.174 116.884 153.174 116.869L117.737 116.361Z" fill="#263238"/>
<path d="M123.014 116.482C122.914 123.311 128.404 128.927 135.275 129.025C142.147 129.124 147.797 123.668 147.897 116.838C147.996 110.01 142.506 104.393 135.634 104.295C128.763 104.197 123.113 109.652 123.014 116.482Z" fill="#FAFAFA"/>
<path d="M135.634 104.295C128.763 104.196 123.113 109.652 123.014 116.482L147.897 116.838C147.995 110.01 142.506 104.393 135.634 104.295Z" fill="#E0E0E0"/>
<path d="M127.876 116.552C127.816 120.712 131.16 124.133 135.346 124.192C139.532 124.252 142.974 120.929 143.034 116.769C143.094 112.609 139.75 109.188 135.565 109.128C131.379 109.068 127.937 112.391 127.876 116.552Z" fill="#263238"/>
<path d="M127.043 90.8331C127.043 90.8331 145.188 85.378 152.693 104.971L114.721 116.66L127.043 90.8331Z" fill="#988AE6"/>
<path d="M26.9539 134.241C36.7305 133.775 44.2743 125.521 43.8033 115.804C43.3324 106.088 35.0251 98.5892 25.2485 99.0551C15.4719 99.5209 7.92816 107.775 8.3991 117.491C8.87004 127.208 17.1773 134.707 26.9539 134.241Z" fill="#263238"/>
<path d="M8.38332 116.361C8.38288 116.376 8.38027 116.391 8.38027 116.406C8.23897 126.133 16.0588 134.132 25.8457 134.273C35.6329 134.413 43.6817 126.641 43.8225 116.915C43.8225 116.899 43.8208 116.884 43.8208 116.869L8.38332 116.361Z" fill="#263238"/>
<path d="M13.6601 116.482C13.5613 123.311 19.0509 128.927 25.922 129.026C32.7934 129.124 38.4439 123.668 38.5431 116.839C38.6424 110.01 33.1523 104.394 26.2809 104.295C19.4098 104.197 13.7594 109.653 13.6601 116.482Z" fill="#FAFAFA"/>
<path d="M26.2808 104.295C19.4098 104.196 13.7594 109.653 13.6601 116.482L38.5431 116.839C38.6424 110.01 33.1523 104.394 26.2808 104.295Z" fill="#E0E0E0"/>
<path d="M18.523 116.552C18.4627 120.712 21.8068 124.133 25.9922 124.193C30.178 124.253 33.62 120.929 33.6807 116.769C33.7409 112.609 30.3965 109.188 26.2111 109.128C22.0253 109.068 18.5832 112.392 18.523 116.552Z" fill="#263238"/>
<path d="M51.3104 109.589C51.212 109.639 41.9834 108.171 41.9834 108.171C40.9722 109.48 39.4326 110.282 37.7738 110.361C33.7882 110.551 29.8897 110.725 26.5145 110.875C23.3659 111.015 20.9265 113.661 21.0595 116.791L21.06 116.796C21.1857 119.754 23.5744 122.122 26.5518 122.238L46.1783 123.007C49.4053 123.133 53.6961 121.183 55.7112 118.675L51.3104 109.589Z" fill="#455A64"/>
<path d="M3.09306 101.794C3.09306 101.794 2.2487 84.6277 18.4805 81.0513V78.8504H75.3442V84.0983C75.3442 84.0983 66.9982 94.0861 69.7233 102.381C72.4488 110.677 73.3001 111.523 73.3001 111.523H105.663C105.663 111.523 109.581 106.613 109.751 99.334C109.921 92.0545 106.878 79.6069 104.606 71.6507C102.541 64.416 101.234 58.3669 101.234 58.3669L110.943 55.1506C110.943 55.1506 128.908 78.4959 129.642 79.8089C130.376 81.1216 132.871 84.1849 132.284 90.8944C131.697 97.6044 115.553 118.317 111.297 120.651C107.041 122.985 103.225 123.13 99.4089 123.714C96.0965 124.221 71.5962 123.885 65.1877 123.788C62.9619 123.754 60.7639 123.189 58.8602 122.042C56.9439 120.887 55.5022 118.976 53.9119 115.837L50.5362 109.273L3.09306 101.794Z" fill="#988AE6"/>
<path d="M7.44447 100.6L0.281731 111.749C-0.635447 113.176 0.84825 114.973 2.4117 114.3C3.1698 113.973 3.98642 113.463 4.81431 112.68C8.09031 109.582 13.9289 101.424 13.9289 101.424L7.44447 100.6Z" fill="#455A64"/>
<path d="M58.8038 102.608C58.8004 102.607 58.8147 102.552 58.8459 102.446C58.8814 102.33 58.9291 102.175 58.9898 101.977C59.112 101.565 59.2585 100.946 59.3647 100.138C59.5472 98.5332 59.464 96.0815 58.2564 93.4094C57.6678 92.0769 56.7957 90.7152 55.618 89.4659C54.4342 88.2257 52.9718 87.0789 51.2653 86.1657C49.5644 85.2459 47.6438 84.5239 45.5854 84.0647C43.5265 83.6055 41.3376 83.3983 39.0984 83.3983C36.8566 83.3979 34.6711 83.5956 32.5741 83.8739C30.4766 84.1547 28.4628 84.5002 26.5682 84.9302C22.7755 85.7775 19.4753 87.0315 16.9227 88.4773C14.361 89.9135 12.5449 91.4803 11.4109 92.6572C10.8388 93.2439 10.4292 93.7316 10.1548 94.0646C10.0252 94.2257 9.92335 94.3523 9.84706 94.4471C9.77641 94.5328 9.73914 94.5755 9.73567 94.5729C9.73567 94.5729 10.2194 93.7975 11.3472 92.5969C12.4664 91.3963 14.2773 89.8015 16.8438 88.3394C19.4011 86.8674 22.7162 85.5906 26.5214 84.7285C28.4229 84.2917 30.4415 83.9406 32.5446 83.6559C34.6477 83.3742 36.8431 83.1734 39.0984 83.1738C41.3514 83.1738 43.5568 83.3841 45.6343 83.8502C47.711 84.3163 49.6489 85.0499 51.3654 85.9843C53.0871 86.9122 54.563 88.0775 55.7549 89.3384C56.9413 90.6084 57.8173 91.9938 58.4029 93.3447C59.6053 96.0553 59.6633 98.5344 59.4523 100.148C59.3318 100.962 59.1701 101.581 59.0336 101.99C58.9638 102.185 58.9087 102.338 58.8675 102.453C58.829 102.557 58.8077 102.609 58.8038 102.608Z" fill="#263238"/>
<path d="M55.5278 98.7536C55.5036 98.7441 55.6228 98.4826 55.7424 97.9894C55.8759 97.4991 55.9327 96.7526 55.807 95.8553C55.683 94.9566 55.3349 93.9145 54.7507 92.863C54.4646 92.3344 54.1118 91.8067 53.7026 91.2958C53.2995 90.7801 52.8253 90.2895 52.2939 89.8453C51.225 88.9536 50.0339 88.3255 48.9117 87.8792C47.7812 87.445 46.7145 87.1852 45.8086 87.037C44.9023 86.8867 44.1589 86.8234 43.6453 86.7923C43.1312 86.7609 42.8456 86.7493 42.8456 86.7316C42.8456 86.7238 42.9171 86.7174 43.0532 86.7122C43.1893 86.7092 43.3904 86.698 43.6487 86.7053C44.1658 86.7096 44.9161 86.7488 45.8338 86.8806C46.7514 87.0103 47.8354 87.2567 48.9871 87.6871C50.1314 88.1299 51.3459 88.7623 52.4386 89.6739C52.9843 90.1297 53.4672 90.6319 53.876 91.1601C54.2912 91.6831 54.6466 92.2228 54.9331 92.7648C55.5187 93.8422 55.8586 94.9123 55.9647 95.8346C56.0731 96.7556 55.9895 97.5189 55.8269 98.0118C55.7758 98.2664 55.6652 98.4421 55.621 98.5696C55.5668 98.6933 55.5348 98.7566 55.5278 98.7536Z" fill="#F5F5F5"/>
<g opacity="0.4">
<path d="M44.3921 83.7144C47.5701 84.317 50.3481 85.4496 52.9549 87.1788C55.5616 88.9079 57.5564 91.3561 58.6907 94.2596C59.8255 97.1631 59.6555 101.009 58.4614 103.414L62.479 103.744C63.8323 99.2615 62.359 93.759 59.1085 90.249C55.295 86.1311 50.0494 83.7144 44.3921 83.7144Z" fill="black"/>
</g>
<path d="M43.1121 78.8509H7.962C5.90832 78.8509 4.24345 77.1962 4.24345 75.1551V52.3432C4.24345 50.3021 5.90832 48.6475 7.962 48.6475H43.1121C45.1658 48.6475 46.8307 50.3021 46.8307 52.3432V75.1551C46.8302 77.1962 45.1658 78.8509 43.1121 78.8509Z" fill="#455A64"/>
<path d="M46.8302 55.3879C46.8302 55.4501 37.2554 55.5002 25.4469 55.5002C13.6346 55.5002 4.0614 55.4501 4.0614 55.3879C4.0614 55.3256 13.6341 55.2755 25.4469 55.2755C37.2554 55.2755 46.8302 55.3256 46.8302 55.3879Z" fill="#263238"/>
<path d="M75.3165 80.8504C75.3165 80.9126 62.5363 80.9628 46.7748 80.9628C31.0076 80.9628 18.23 80.9122 18.23 80.8504C18.23 80.7886 31.0076 80.738 46.7748 80.738C62.5363 80.738 75.3165 80.7886 75.3165 80.8504Z" fill="#263238"/>
<path d="M75.3442 78.8509C75.3442 78.8509 76.2822 77.7386 76.3719 76.3191C76.4617 74.8997 75.8102 73.1252 74.2736 73.1252H54.6384C51.4564 73.1252 48.8774 75.6889 48.8774 78.8509H75.3442Z" fill="#455A64"/>
<path d="M101.235 58.3669L97.8203 51.289C96.8866 49.2764 97.6313 46.8885 99.5463 45.753L109.757 39.7C110.291 39.3833 110.901 39.2162 111.523 39.2162H113.73L114.613 53.5222L111.209 54.8163L113.363 58.2988L101.235 58.3669Z" fill="#988AE6"/>
<path d="M113.762 39.7357C113.762 39.7357 117.255 40.5318 117.695 45.8848C118.134 51.2377 114.613 52.9036 114.613 52.9036L113.762 39.7357Z" fill="#EBEBEB"/>
<path d="M102.425 48.5164C102.425 48.5164 95.3626 51.843 94.5005 52.3888C93.9028 52.7675 93.3892 53.4309 93.8581 54.597C94.6579 56.5855 97.9603 54.7151 97.9603 54.7151L104.533 51.4488C104.533 51.4488 107.061 50.2629 106.128 48.7796C105.083 47.119 102.425 48.5164 102.425 48.5164Z" fill="#263238"/>
<path d="M92.4304 47.3029C92.4304 47.3029 99.0639 48.4332 99.6269 48.5823C100.19 48.7313 102.404 49.776 102.517 50.4476C102.63 51.1192 102.517 53.0961 102.517 53.0961C102.517 53.0961 102.118 53.4205 101.867 52.7734C101.616 52.1264 101.654 50.8465 101.654 50.8465L100.415 50.3726L101.091 51.5664L101.204 54.3643C101.204 54.3643 100.339 54.2859 100.17 53.6165C100.003 52.947 100.005 52.2009 100.005 52.2009L99.1016 51.4401L99.7773 52.35L100.005 54.3643C100.005 54.3643 99.346 54.5763 99.1384 54.1291C98.9312 53.682 98.9139 52.35 98.9139 52.35L96.3656 51.4651L94.6778 52.3991L92.0242 50.9538L92.4304 47.3029Z" fill="#FFBE9D"/>
<path d="M102.763 38.1207C102.763 40.7894 101.528 42.9532 100.005 42.9532C98.4822 42.9532 97.2477 40.7898 97.2477 38.1207C97.2477 35.4515 98.4826 33.2881 100.005 33.2881C101.528 33.2881 102.763 35.4515 102.763 38.1207Z" fill="#263238"/>
<path d="M100.458 41.4434L101.973 46.6611C102.65 46.3199 102.791 45.6496 102.678 45.1206C102.298 43.3333 102.084 42.0607 101.666 40.4961C101.615 40.3371 100.458 41.4434 100.458 41.4434Z" fill="#263238"/>
<g opacity="0.4">
<path d="M70.4718 104.611C70.3219 104.181 70.1693 103.741 70.0245 103.289C69.8897 102.869 69.7311 102.432 69.6149 102.013C69.4073 101.265 69.2872 100.493 69.2361 100.047C66.6796 110.394 70.5828 117.679 77.2865 118.191C87.0799 118.939 99.0201 119.484 103.85 118.224C112.654 115.927 115.884 108.633 116.655 107.43C117.425 106.227 124.428 93.5075 120.137 81.2585C115.845 69.0094 108.366 56.0052 108.366 56.0052L101.235 58.3673C101.235 58.3673 102.542 64.4164 104.607 71.651C106.879 79.6077 109.922 92.0553 109.752 99.3343C109.582 106.614 105.664 111.523 105.664 111.523H73.3014C73.3005 111.523 72.607 110.832 70.4718 104.611Z" fill="black"/>
</g>
<path d="M1.7988 99.1015L2.0268 96.6473L61.0976 103.411C64.4313 103.799 66.7485 106.896 66.1638 110.181L65.8985 111.669L4.76186 102.84C2.93097 102.575 1.62889 100.932 1.7988 99.1015Z" fill="#988AE6"/>
<g opacity="0.6">
<path d="M1.7988 99.1015L2.0268 96.6473L61.0976 103.411C64.4313 103.799 66.7485 106.896 66.1638 110.181L65.8985 111.669L4.76186 102.84C2.93097 102.575 1.62889 100.932 1.7988 99.1015Z" fill="black"/>
</g>
<g opacity="0.3">
<path d="M116.654 115.526C116.654 115.526 129.658 101.311 132.339 90.1354C133.24 90.1263 135.339 90.2172 136.367 90.4318C136.367 90.4318 128.677 111.207 116.654 115.526Z" fill="black"/>
</g>
<path d="M132.15 85.1257C132.158 85.1245 132.182 85.2481 132.221 85.4846C132.254 85.722 132.325 86.0705 132.369 86.5245C132.453 87.4313 132.509 88.7629 132.268 90.3831C132.034 92.0016 131.477 93.8901 130.552 95.8455C129.648 97.812 128.404 99.8406 127.109 101.962C124.504 106.221 121.605 109.705 119.498 112.192C118.438 113.434 117.566 114.425 116.958 115.107C116.664 115.434 116.429 115.694 116.254 115.888C116.091 116.065 116.003 116.155 115.997 116.151C115.991 116.145 116.068 116.045 116.22 115.859C116.387 115.659 116.61 115.389 116.892 115.051C117.492 114.335 118.337 113.328 119.375 112.091C121.45 109.579 124.322 106.088 126.916 101.847C128.212 99.7243 129.456 97.7065 130.364 95.7593C131.292 93.8225 131.858 91.9598 132.11 90.3598C132.369 88.7586 132.338 87.4378 132.281 86.5331C132.251 86.0804 132.195 85.7314 132.176 85.4923C132.152 85.2533 132.142 85.127 132.15 85.1257Z" fill="#263238"/>
<path d="M109.671 115.418C109.627 115.462 108.695 114.626 107.588 113.551C106.481 112.475 105.62 111.567 105.664 111.523C105.707 111.479 106.639 112.315 107.746 113.39C108.853 114.466 109.715 115.374 109.671 115.418Z" fill="#263238"/>
<path d="M71.0791 114.981C71.0253 114.957 71.3821 114.092 72.0331 113.143C72.6807 112.192 73.3582 111.543 73.4002 111.584C73.4492 111.628 72.8562 112.334 72.2195 113.269C71.5797 114.201 71.1385 115.01 71.0791 114.981Z" fill="#263238"/>
<path d="M46.0942 123.192C46.0413 123.148 47.027 122.525 47.8679 120.952C48.287 120.176 48.6325 119.164 48.737 118.003C48.8445 116.848 48.6759 115.541 48.1059 114.325C47.5142 113.12 46.5979 112.167 45.6261 111.523C44.653 110.873 43.6435 110.503 42.7731 110.338C41.0146 109.999 39.9072 110.368 39.9059 110.3C39.9042 110.292 39.9705 110.273 40.0996 110.242C40.2292 110.217 40.4178 110.155 40.6692 110.132C41.1677 110.055 41.9088 110.031 42.8026 110.183C43.6955 110.33 44.7358 110.693 45.7418 111.351C46.7457 112.003 47.6976 112.98 48.3096 114.229C48.9 115.487 49.066 116.837 48.9442 118.022C48.8254 119.213 48.4548 120.245 48.0083 121.028C47.5641 121.813 47.0795 122.371 46.7058 122.708C46.5298 122.888 46.3621 122.994 46.2615 123.079C46.1562 123.159 46.099 123.198 46.0942 123.192Z" fill="#263238"/>
<path d="M24.5247 118.687C24.4621 118.69 24.367 117.764 24.3118 116.619C24.2566 115.473 24.2627 114.543 24.3253 114.54C24.3878 114.537 24.483 115.463 24.5381 116.609C24.5929 117.753 24.5868 118.684 24.5247 118.687Z" fill="#263238"/>
<path d="M26.0906 118.69C26.0286 118.698 25.8591 117.774 25.7113 116.626C25.5635 115.479 25.4942 114.542 25.5561 114.535C25.6181 114.527 25.7876 115.45 25.9354 116.598C26.0828 117.745 26.1526 118.682 26.0906 118.69Z" fill="#263238"/>
<path d="M50.4517 78.8513C50.4517 78.9135 43.2695 78.9636 34.4119 78.9636C25.5514 78.9636 18.3708 78.913 18.3708 78.8513C18.3708 78.7895 25.5514 78.7389 34.4119 78.7389C43.2695 78.7385 50.4517 78.789 50.4517 78.8513Z" fill="#263238"/>
<path d="M27.1948 78.8288C27.1323 78.8288 27.0819 70.6533 27.0819 60.5711C27.0819 50.4851 27.1327 42.3118 27.1948 42.3118C27.2574 42.3118 27.3078 50.4855 27.3078 60.5711C27.3078 70.6537 27.257 78.8288 27.1948 78.8288Z" fill="#263238"/>
<path d="M22.7968 78.7997C22.7344 78.7971 23.0421 70.6259 23.4834 60.5515C23.9251 50.4737 24.3334 42.3089 24.3958 42.3115C24.4582 42.3141 24.1504 50.4836 23.7092 60.5614C23.2675 70.6358 22.8592 78.8023 22.7968 78.7997Z" fill="#263238"/>
<path d="M12.8487 128.619C12.8427 128.624 12.7776 128.558 12.6584 128.429C12.5427 128.296 12.3585 128.112 12.1526 127.848C11.7243 127.334 11.15 126.55 10.5532 125.512C9.35468 123.457 8.16704 120.245 8.18178 116.57C8.19738 112.893 9.41233 109.691 10.6277 107.646C11.2332 106.613 11.8136 105.833 12.2467 105.323C12.4547 105.061 12.6407 104.878 12.7573 104.747C12.8773 104.619 12.9432 104.553 12.9493 104.559C12.9549 104.564 12.9007 104.639 12.7919 104.777C12.6866 104.917 12.5119 105.109 12.3156 105.378C11.906 105.901 11.3494 106.69 10.7669 107.724C9.59698 109.772 8.42364 112.942 8.4076 116.57C8.3933 120.198 9.54021 123.376 10.6927 125.435C11.2666 126.473 11.8167 127.266 12.2219 127.794C12.4161 128.064 12.5891 128.257 12.6931 128.398C12.8006 128.538 12.8544 128.613 12.8487 128.619Z" fill="#455A64"/>
<path d="M74.9446 95.7965L74.8094 96.0498L72.2009 100.931L68.5426 104.433L75.8535 114.106L81.9461 113.102C81.9461 113.102 81.2617 111.719 78.2046 111.453L77.0356 105.671L81.3319 99.0537" fill="#455A64"/>
<path d="M68.5426 104.433L75.8535 114.106L81.9457 113.102L81.1074 112.305L76.108 112.851L69.3206 103.688L68.5426 104.433Z" fill="#E0E0E0"/>
<path d="M77.7195 108.795C77.6849 108.864 77.3004 108.724 76.8314 108.815C76.3598 108.893 76.0495 109.158 75.9922 109.105C75.9272 109.069 76.2098 108.65 76.7828 108.55C77.355 108.444 77.7676 108.738 77.7195 108.795Z" fill="#263238"/>
<path d="M77.3801 107.369C77.3264 107.422 76.9952 107.11 76.4937 107.096C75.9922 107.077 75.6411 107.366 75.5909 107.31C75.5657 107.287 75.6186 107.174 75.7742 107.053C75.9264 106.933 76.1921 106.816 76.5024 106.826C76.8123 106.837 77.0698 106.97 77.2137 107.1C77.3615 107.23 77.407 107.347 77.3801 107.369Z" fill="#263238"/>
<path d="M77.1097 105.51C77.0486 105.554 76.7824 105.239 76.3334 105.164C75.8852 105.082 75.5267 105.288 75.4847 105.226C75.4635 105.198 75.5263 105.101 75.6845 105.011C75.8397 104.92 76.098 104.849 76.3806 104.898C76.6633 104.948 76.8813 105.103 76.9961 105.24C77.1136 105.378 77.1396 105.491 77.1097 105.51Z" fill="#263238"/>
<path d="M78.5002 103.805C78.4321 103.842 78.2033 103.526 77.7841 103.345C77.3706 103.153 76.9805 103.191 76.9636 103.116C76.9311 103.049 77.3858 102.868 77.896 103.1C78.4079 103.326 78.5717 103.784 78.5002 103.805Z" fill="#263238"/>
<path d="M79.0866 102.428C79.0589 102.454 78.8175 102.243 78.449 101.883C78.2397 101.672 78.0286 101.459 77.8123 101.241C77.7005 101.114 77.557 101.011 77.4478 100.799C77.3971 100.692 77.3771 100.557 77.4235 100.426C77.4642 100.287 77.622 100.178 77.7594 100.174C78.0316 100.169 78.2028 100.28 78.3775 100.374C78.5478 100.476 78.6944 100.6 78.8179 100.732C79.0641 100.998 79.2084 101.295 79.2838 101.553C79.4329 102.078 79.3077 102.411 79.2843 102.401C79.2353 102.399 79.2834 102.073 79.1018 101.613C79.0112 101.386 78.8638 101.13 78.6367 100.904C78.5231 100.792 78.3914 100.687 78.2423 100.601C78.0971 100.519 77.9107 100.434 77.7841 100.443C77.7234 100.451 77.697 100.471 77.6779 100.517C77.6597 100.565 77.6632 100.632 77.6905 100.691C77.7451 100.814 77.8873 100.945 77.9965 101.073C78.1981 101.304 78.3953 101.53 78.5908 101.754C78.9223 102.147 79.1144 102.403 79.0866 102.428Z" fill="#263238"/>
<path d="M79.3346 102.573C79.3055 102.576 79.2756 102.254 79.5444 101.836C79.8075 101.439 80.4498 100.955 81.2959 101.214C81.3597 101.252 81.4177 101.331 81.4268 101.415C81.4377 101.499 81.4121 101.567 81.3856 101.618C81.3293 101.724 81.2573 101.784 81.1993 101.844C81.0744 101.966 80.9422 102.071 80.8096 102.16C80.5443 102.338 80.276 102.449 80.0454 102.514C79.5803 102.643 79.28 102.599 79.2808 102.569C79.2774 102.526 79.566 102.5 79.9834 102.334C80.1911 102.252 80.4299 102.131 80.6653 101.957C80.7827 101.871 80.8998 101.771 81.0103 101.659C81.0662 101.6 81.123 101.544 81.1451 101.496C81.1659 101.438 81.1607 101.455 81.1486 101.441C81.1251 101.421 81.0393 101.41 80.9613 101.405C80.8833 101.4 80.8053 101.4 80.7294 101.408C80.5773 101.421 80.4325 101.458 80.3016 101.51C80.0381 101.613 79.8383 101.782 79.6996 101.949C79.4226 102.289 79.3783 102.583 79.3346 102.573Z" fill="#263238"/>
<path d="M73.3712 103.445C73.4379 103.841 73.1683 104.216 72.7691 104.282C72.3699 104.348 71.9924 104.08 71.9261 103.684C71.8593 103.288 72.1289 102.913 72.5281 102.847C72.9269 102.781 73.3044 103.049 73.3712 103.445Z" fill="#E0E0E0"/>
<path d="M97.1372 100.45L99.092 113.066L114.897 110.729C114.58 109.242 105.952 107.439 105.952 107.439L105.033 99.3044L97.1372 100.45Z" fill="#455A64"/>
<path d="M100.964 107.481C100.67 107.609 100.51 107.981 100.627 108.278C100.744 108.574 101.124 108.739 101.42 108.616C101.715 108.493 101.922 108.051 101.772 107.77C101.622 107.488 101.165 107.319 100.907 107.509" fill="#E0E0E0"/>
<path d="M99.092 113.062L98.9451 111.784L114.153 110.024C114.153 110.024 114.903 110.224 114.897 110.728L99.092 113.062Z" fill="#E0E0E0"/>
<path d="M106.197 107.321C106.206 107.398 105.825 107.49 105.482 107.792C105.131 108.086 104.986 108.447 104.91 108.426C104.837 108.422 104.883 107.947 105.305 107.588C105.723 107.225 106.203 107.248 106.197 107.321Z" fill="#263238"/>
<path d="M107.956 107.757C107.986 107.829 107.67 108.008 107.457 108.371C107.233 108.727 107.219 109.087 107.142 109.096C107.071 109.118 106.95 108.677 107.225 108.232C107.494 107.784 107.944 107.684 107.956 107.757Z" fill="#263238"/>
<path d="M109.193 109.588C109.126 109.615 108.961 109.248 109.096 108.799C109.228 108.349 109.567 108.13 109.61 108.189C109.663 108.245 109.462 108.505 109.357 108.875C109.242 109.243 109.269 109.57 109.193 109.588Z" fill="#263238"/>
<path d="M105.78 105.49C105.758 105.564 105.388 105.511 104.957 105.605C104.523 105.69 104.205 105.885 104.155 105.826C104.102 105.777 104.391 105.444 104.901 105.341C105.41 105.234 105.809 105.424 105.78 105.49Z" fill="#263238"/>
<path d="M105.125 103.678C105.13 103.709 104.833 103.802 104.332 103.791C104.084 103.785 103.786 103.748 103.466 103.66C103.307 103.616 103.142 103.56 102.976 103.488C102.896 103.453 102.803 103.419 102.71 103.339C102.612 103.271 102.533 103.075 102.613 102.936C102.676 102.804 102.811 102.73 102.925 102.711C103.041 102.69 103.139 102.7 103.228 102.708C103.41 102.724 103.584 102.758 103.745 102.803C104.068 102.895 104.339 103.031 104.546 103.171C104.964 103.454 105.131 103.722 105.107 103.74C105.076 103.771 104.861 103.557 104.446 103.334C104.24 103.223 103.98 103.115 103.681 103.044C103.532 103.009 103.372 102.983 103.206 102.972C103.033 102.953 102.89 102.973 102.858 103.053C102.847 103.084 102.846 103.095 102.889 103.138C102.931 103.178 103.006 103.212 103.085 103.247C103.238 103.317 103.391 103.375 103.538 103.423C103.834 103.518 104.112 103.572 104.347 103.601C104.819 103.66 105.12 103.636 105.125 103.678Z" fill="#263238"/>
<path d="M105.041 103.804C105.015 103.82 104.821 103.568 104.718 103.076C104.668 102.832 104.649 102.53 104.697 102.2C104.723 102.035 104.764 101.864 104.827 101.693C104.897 101.524 104.979 101.3 105.273 101.222C105.429 101.193 105.576 101.295 105.637 101.392C105.705 101.491 105.729 101.58 105.761 101.669C105.817 101.848 105.841 102.028 105.841 102.198C105.841 102.539 105.745 102.837 105.625 103.059C105.377 103.512 105.068 103.651 105.058 103.626C105.026 103.591 105.273 103.403 105.451 102.978C105.539 102.768 105.604 102.498 105.591 102.202C105.585 102.055 105.559 101.901 105.508 101.75C105.459 101.587 105.375 101.462 105.315 101.488C105.236 101.499 105.122 101.644 105.077 101.786C105.017 101.939 104.974 102.092 104.944 102.241C104.888 102.539 104.886 102.817 104.908 103.048C104.956 103.512 105.081 103.786 105.041 103.804Z" fill="#263238"/>
<path d="M84.7007 70.8204L71.1459 100.174L80.0974 105.515L98.8393 70.1953" fill="#263238"/>
<path d="M107.053 106.186L97.3266 107.736L91.5058 73.2134L62.7478 75.2855C61.9858 75.3321 61.2168 75.2683 60.4804 75.0675C52.4026 72.8679 53.4962 62.6333 54.2747 60.9924L94.071 59.8564C98.3877 59.7332 102.107 62.856 102.706 67.1066L107.053 106.186Z" fill="#263238"/>
<path d="M53.8811 62.6168L54.0255 48.0208C54.0255 48.0208 52.13 38.5306 51.5691 34.8004C50.6983 29.0076 49.5059 26.2583 59.0509 22.1408L61.1371 21.3408L64.3667 21.3835C68.2183 21.6712 72.2758 25.1309 72.369 27.4253L76.085 60.3142L53.8811 62.6168Z" fill="#988AE6"/>
<path d="M54.4785 25.5347C54.4785 25.5347 51.785 31.2977 52.3233 36.5478L62.3642 46.1281C64.6164 48.6197 67.4316 49.6782 71.0319 49.8949L91.8131 52.1526L92.39 46.7492L72.6222 41.1813C71.8359 41.0374 71.4432 40.2207 70.8403 39.6985L54.4785 25.5347Z" fill="#988AE6"/>
<path d="M52.8548 27.194C52.8548 27.194 52.9679 27.0708 53.2531 26.929C53.5379 26.7895 53.9908 26.6473 54.5959 26.556C55.1988 26.4711 55.9617 26.4035 56.8412 26.562C57.0579 26.6124 57.2872 26.6637 57.5013 26.7869C57.7107 26.9058 57.9092 27.0501 58.1121 27.2022C58.5134 27.511 58.9174 27.8656 59.327 28.2567C60.161 29.0278 60.9468 30.0057 61.8705 30.9957C62.7907 31.9925 63.8054 33.0514 64.9029 34.1663C66.0008 35.2812 67.1837 36.4507 68.4528 37.6561C69.0896 38.2562 69.7467 38.8675 70.4398 39.4667C70.7917 39.7536 71.1394 40.0896 71.4731 40.4041C71.8129 40.7125 72.1961 41.0025 72.64 41.0834L72.646 41.0847L72.6508 41.086C78.5297 42.7381 85.2711 44.6323 92.4217 46.6419L92.5131 46.6677L92.5032 46.7617C92.4625 47.1438 92.4182 47.5569 92.374 47.9713C92.2206 49.408 92.0684 50.8292 91.9258 52.1646L91.9141 52.2762L91.8019 52.2641C88.7786 51.9341 85.8381 51.6136 83.0068 51.3048C81.5911 51.1497 80.2028 50.998 78.8452 50.8494C77.4859 50.7128 76.1574 50.5797 74.8622 50.4496C73.568 50.3088 72.3092 50.1606 71.0904 49.984C69.8732 49.8078 68.6873 49.5829 67.5989 49.1775C66.5071 48.7816 65.5331 48.2147 64.6567 47.6073C63.7777 47.0003 62.978 46.3649 62.2281 45.7437C59.2585 43.224 57.0783 40.974 55.5651 39.4396C54.8135 38.6667 54.2392 38.0602 53.8538 37.6462C53.667 37.4424 53.5227 37.2852 53.4191 37.1723C53.3224 37.0646 53.2774 37.0052 53.2774 37.0052C53.2774 37.0052 53.3328 37.0547 53.4347 37.1572C53.5422 37.2667 53.6909 37.4187 53.8846 37.6165C54.2877 38.0257 54.8725 38.6189 55.6241 39.3814C57.1541 40.8969 59.3517 43.1305 62.3252 45.627C63.075 46.2413 63.876 46.8719 64.7512 47.4703C65.6241 48.0695 66.5851 48.6231 67.6605 49.0091C68.7337 49.4045 69.9036 49.623 71.1177 49.7948C72.3326 49.9676 73.5905 50.1123 74.8835 50.2498C76.1778 50.3768 77.5063 50.5074 78.8656 50.6409C80.224 50.7874 81.6128 50.9373 83.0284 51.0898C85.8606 51.3961 88.802 51.7144 91.8261 52.0418L91.7022 52.1409C91.8448 50.8055 91.9965 49.3839 92.1495 47.9472C92.1937 47.5328 92.2379 47.1196 92.2787 46.7375L92.3602 46.8573C85.2117 44.8391 78.4729 42.9367 72.5958 41.2773L72.6061 41.2794C72.0925 41.1825 71.6885 40.8637 71.3405 40.5484C70.9915 40.2184 70.673 39.907 70.3132 39.6114C69.6175 39.0066 68.9617 38.3923 68.3254 37.7888C67.058 36.577 65.8786 35.4018 64.7846 34.2809C63.6905 33.16 62.6806 32.095 61.7647 31.0913C60.8419 30.091 60.0665 29.1123 59.2447 28.3412C58.8402 27.9496 58.4423 27.5937 58.0479 27.2849C57.8498 27.1328 57.6526 26.9881 57.4528 26.8717C57.2564 26.7554 57.0332 26.702 56.8234 26.6508C55.9652 26.4862 55.204 26.5426 54.6059 26.6171C54.0047 26.6981 53.5535 26.8291 53.2678 26.9575C52.9813 27.0884 52.8626 27.2039 52.8548 27.194Z" fill="#263238"/>
<path d="M58.0414 8.68216L59.0505 22.89C59.2152 25.2098 61.1566 27.0079 63.4963 27.0079C66.0723 27.0079 68.113 24.8432 67.944 22.2886C67.8547 20.9363 67.7736 19.8288 67.7736 19.8288C67.7736 19.8288 71.2343 19.2938 71.2772 15.8552C71.3019 13.8688 70.9573 9.36151 70.6617 5.90874C70.4619 3.5743 68.4957 1.78223 66.1382 1.78223H64.0477C60.4483 1.99073 57.7319 5.11136 58.0414 8.68216Z" fill="#FFBE9D"/>
<path d="M67.7797 19.7775C67.7797 19.7775 65.5929 19.9539 63.2688 18.5046C63.2688 18.5046 64.3351 20.9768 67.7879 20.6674L67.7797 19.7775Z" fill="#EB996E"/>
<path d="M66.7685 13.3699C66.7659 13.3398 67.0966 13.2834 67.6319 13.2154C67.7675 13.2017 67.8963 13.1746 67.9193 13.0825C67.9513 12.9852 67.8946 12.8398 67.8287 12.6832C67.7008 12.357 67.5673 12.0149 67.4273 11.6569C66.8699 10.1955 66.4659 8.99369 66.5253 8.97174C66.5847 8.94979 67.0849 10.1168 67.6427 11.5781C67.7771 11.9387 67.9054 12.2821 68.0276 12.6109C68.0788 12.764 68.1672 12.9379 68.0978 13.1397C68.0614 13.2404 67.9617 13.3136 67.8746 13.3368C67.7875 13.363 67.7112 13.3648 67.644 13.3686C67.1048 13.3975 66.7702 13.4 66.7685 13.3699Z" fill="#263238"/>
<path d="M65.2033 13.7405C65.29 13.7354 65.2908 14.3085 65.785 14.7152C66.2782 15.1231 66.8933 15.059 66.8981 15.139C66.9059 15.1748 66.7611 15.2501 66.5014 15.2574C66.2466 15.266 65.8747 15.1847 65.5726 14.9359C65.2713 14.6864 65.1417 14.3537 65.1218 14.1188C65.0997 13.8791 65.1638 13.7371 65.2033 13.7405Z" fill="#263238"/>
<path d="M59.2082 11.2633C59.1493 11.238 56.8308 10.5654 56.9062 12.9136C56.9816 15.2622 59.3413 14.7024 59.343 14.6348C59.3448 14.5677 59.2082 11.2633 59.2082 11.2633Z" fill="#FFBE9D"/>
<path d="M58.5919 13.7682C58.5811 13.7609 58.5516 13.7983 58.4831 13.8319C58.4163 13.865 58.3002 13.89 58.1753 13.8478C57.9226 13.7648 57.6994 13.3775 57.6743 12.9545C57.6613 12.7411 57.6998 12.5358 57.7709 12.365C57.8377 12.1907 57.9456 12.0672 58.0709 12.0409C58.1953 12.0082 58.2867 12.0801 58.318 12.1455C58.3518 12.21 58.3383 12.2574 58.3509 12.2613C58.3578 12.2669 58.4003 12.2204 58.3782 12.124C58.3669 12.0775 58.3375 12.0233 58.2802 11.9798C58.2217 11.9359 58.1376 11.9153 58.0505 11.9273C57.8685 11.9454 57.7098 12.1175 57.6318 12.3051C57.5438 12.4941 57.4957 12.7243 57.51 12.9644C57.5403 13.4373 57.7987 13.8723 58.1437 13.9597C58.3115 13.9976 58.4488 13.9433 58.5186 13.8857C58.5893 13.825 58.6001 13.7721 58.5919 13.7682Z" fill="#EB996E"/>
<path d="M57.8919 11.1829C58.2525 11.0963 58.8766 11.4272 59.0305 11.7628C59.1844 12.0983 59.2182 12.4792 59.3716 12.8147C59.5251 13.1508 59.8718 13.4545 60.2329 13.3696C60.4821 13.311 60.6603 13.0788 60.7257 12.8333C60.7916 12.5873 60.7647 12.3275 60.7327 12.0751C60.5931 10.977 60.3608 9.8884 60.3166 8.78257C60.2719 7.67674 60.4306 6.52783 61.0148 5.58569C61.5991 4.64356 62.6724 3.95085 63.782 4.03959C64.5171 4.09861 65.1916 4.47943 65.9219 4.58109C66.788 4.70172 67.7034 4.39801 68.3232 3.78457C68.4025 3.70617 68.7718 3.46406 68.7718 3.46406C68.7718 3.4072 68.7177 2.9161 68.523 2.7369C67.074 1.4049 64.4629 1.03313 62.5488 1.51217C60.6347 1.99077 58.8407 3.33396 58.0171 5.11656C57.194 6.89916 57.438 9.37878 57.8919 11.1829Z" fill="#263238"/>
<path d="M70.7003 5.37751C70.7003 5.37751 61.6226 2.47486 57.6955 10.2803C57.6955 10.2803 57.1086 8.32711 57.1086 7.27987C57.1086 6.5807 57.5295 2.41541 61.8414 1.10538C61.8414 1.10538 68.3375 -1.35873 70.7003 5.37751Z" fill="#988AE6"/>
<path d="M62.9004 5.57042C63.2211 6.08506 63.7937 6.4362 64.4005 6.49128C65.0078 6.54592 65.6346 6.3028 66.0433 5.85442C66.2228 6.2985 66.7035 6.60359 67.185 6.57863C67.6661 6.55367 68.1126 6.20039 68.2439 5.73996C68.5075 5.99384 68.7823 6.25461 69.1269 6.38026C69.4719 6.50548 69.9088 6.45815 70.1355 6.17113C70.3661 5.87852 70.2989 5.43315 70.0726 5.13753C69.8464 4.84147 69.4979 4.66548 69.1524 4.52262C68.074 4.07552 66.8851 3.85133 65.7269 4.00711C64.5691 4.16288 63.4474 4.72013 62.7235 5.63109" fill="#263238"/>
<g opacity="0.4">
<path d="M70.7003 5.37751C70.7003 5.37751 69.6674 4.15622 67.8135 4.0748C65.1361 3.9572 60.1237 5.45375 57.6955 10.2803C57.6955 10.2803 57.1086 8.32711 57.1086 7.27987C57.1086 6.5807 57.5295 2.41541 61.8414 1.10538C61.8414 1.10538 68.3375 -1.35873 70.7003 5.37751Z" fill="black"/>
</g>
<path d="M58.0748 9.36639C59.421 7.31972 61.2766 5.62715 63.3633 4.33177C65.4499 3.03639 68.9006 1.7548 71.2785 1.12757C71.9924 0.939319 72.7366 0.774755 73.4644 0.899683C74.1921 1.02461 74.9047 1.50623 75.0855 2.21833C75.3117 3.1092 73.7205 4.48427 72.9728 5.02491C72.2251 5.56555 70.7002 6.35863 70.7002 6.35863C70.7002 6.35863 70.7206 4.70612 68.0592 4.36537C64.4391 3.90141 58.0748 9.36639 58.0748 9.36639Z" fill="#988AE6"/>
<g opacity="0.3">
<path d="M54.8798 38.6809C55.8152 40.9266 56.7597 43.6944 58.116 45.717C59.4726 47.7395 61.2853 49.5303 63.5414 50.469C66.3727 51.6468 69.7237 51.8376 72.5416 50.6288C72.7713 50.5302 73.2212 50.4048 73.18 50.1597C73.18 50.1597 72.2459 50.0554 71.9594 50.0076C66.2644 49.053 65.6471 48.3543 62.9216 46.2132C61.2225 44.8782 57.4558 40.8426 54.8798 38.6809Z" fill="black"/>
</g>
<path d="M72.9789 55.025C72.9897 55.0297 72.9178 55.2227 72.7422 55.5497C72.5684 55.8779 72.268 56.3298 71.8216 56.8257C70.9391 57.8251 69.367 58.9081 67.4112 59.5073C65.4555 60.1048 63.5995 60.216 62.2784 60.272C61.6147 60.2965 61.0781 60.3017 60.7075 60.3C60.3365 60.2982 60.1315 60.2892 60.131 60.2741C60.1306 60.2586 60.3348 60.2379 60.7049 60.2129C61.1189 60.1867 61.6438 60.1535 62.2701 60.1134C63.5856 60.0174 65.4222 59.8808 67.3445 59.2932C69.2638 58.7043 70.8108 57.6687 71.7054 56.7175C72.6157 55.7711 72.9351 54.9983 72.9789 55.025Z" fill="#263238"/>
<path d="M97.5004 108.767C97.4965 108.767 97.4848 108.722 97.4662 108.633C97.4462 108.532 97.4202 108.402 97.3881 108.237C97.3218 107.873 97.2282 107.361 97.109 106.71C96.8736 105.366 96.5382 103.449 96.1242 101.084C95.3119 96.3186 94.1941 89.7585 92.9592 82.5127C92.4087 79.2331 91.882 76.0944 91.4013 73.2313L91.5136 73.3184C86.4618 73.6854 82.1437 73.9994 79.0715 74.2226C77.5535 74.3251 76.3442 74.4065 75.4981 74.4638C75.0937 74.4875 74.7769 74.506 74.5463 74.5194C74.447 74.5233 74.3664 74.5267 74.3009 74.5293C74.2459 74.5306 74.2173 74.5297 74.2173 74.5267C74.2168 74.5237 74.245 74.5186 74.2996 74.5117C74.3646 74.5043 74.4448 74.4953 74.5437 74.4845C74.7734 74.463 75.0898 74.4332 75.4929 74.3958C76.3377 74.3243 77.5457 74.2226 79.0615 74.0946C82.132 73.8513 86.4483 73.5096 91.4976 73.1094L91.5938 73.1017L91.6098 73.1965C92.0949 76.0586 92.6263 79.1965 93.182 82.4756C94.3913 89.7258 95.4862 96.2897 96.2816 101.059C96.6656 103.427 96.9772 105.349 97.1957 106.695C97.2971 107.35 97.3764 107.864 97.4328 108.23C97.4562 108.396 97.4744 108.528 97.4887 108.63C97.5004 108.72 97.5043 108.766 97.5004 108.767Z" fill="#455A64"/>
<path d="M94.426 70.1361C94.4667 70.1873 93.709 70.8332 92.8499 71.7028C91.9874 72.5699 91.3489 73.332 91.2969 73.2924C91.2492 73.258 91.8149 72.4249 92.6891 71.5458C93.5604 70.6641 94.3909 70.0892 94.426 70.1361Z" fill="#455A64"/>
<path d="M67.8573 22.5921C67.8646 22.59 67.8824 22.6382 67.9097 22.733C67.9414 22.8269 67.9678 22.9691 67.9921 23.1556C68.0358 23.5265 68.012 24.0848 67.781 24.722C67.5469 25.3509 67.0918 26.0591 66.3532 26.5855C65.6194 27.1154 64.6081 27.3898 63.5722 27.3235C62.5341 27.2537 61.5801 26.8656 60.8722 26.318C60.1562 25.7761 59.6659 25.12 59.3378 24.5389C59.014 23.9508 58.8411 23.4343 58.7505 23.0738C58.7063 22.8928 58.6768 22.7515 58.6647 22.6542C58.6504 22.5572 58.6465 22.506 58.6543 22.5043C58.7033 22.4879 58.8103 23.3249 59.4761 24.4596C59.8142 25.0171 60.3023 25.6413 60.9971 26.1526C61.6832 26.6691 62.5952 27.0323 63.5869 27.0995C64.576 27.1624 65.5348 26.9073 66.234 26.4162C66.9388 25.9282 67.3891 25.2617 67.6323 24.6651C67.8724 24.0611 67.921 23.5252 67.9045 23.1621C67.8893 22.7963 67.8343 22.5973 67.8573 22.5921Z" fill="#263238"/>
<path d="M73.9715 41.4034C73.9559 41.4051 73.9238 41.2449 73.8788 40.9541C73.8307 40.6138 73.7721 40.2032 73.7037 39.7216C73.5602 38.624 73.3755 37.2114 73.1714 35.6494C72.975 34.0568 72.8207 32.6119 72.7262 31.5646C72.6786 31.0412 72.6447 30.6169 72.6274 30.3231C72.6096 30.0293 72.607 29.8661 72.6226 29.8648C72.6382 29.863 72.6703 30.0233 72.715 30.3141C72.7618 30.6544 72.8186 31.0658 72.8849 31.5474C73.0227 32.6455 73.1996 34.0589 73.3955 35.6222C73.5918 37.2136 73.7617 38.6563 73.8623 39.7031C73.913 40.2265 73.9481 40.6508 73.9663 40.9446C73.9845 41.2389 73.9871 41.4017 73.9715 41.4034Z" fill="#263238"/>
</svg>
