<svg width="22" height="19" viewBox="0 0 22 19" fill="none" xmlns="http://www.w3.org/2000/svg">
<path d="M6.91075 18.3273C15.213 18.3273 19.7546 11.4302 19.7546 5.45962C19.7546 5.26661 19.7546 5.07086 19.7464 4.87785C20.6306 4.23611 21.3937 3.44158 22 2.53151C21.1741 2.89663 20.2988 3.13727 19.4026 3.24562C20.3466 2.6799 21.0536 1.78979 21.3923 0.740736C20.5054 1.26752 19.5346 1.63733 18.5226 1.83395C17.8423 1.10747 16.9419 0.6262 15.9611 0.464685C14.9803 0.303171 13.9737 0.470426 13.0973 0.940543C12.2209 1.41066 11.5236 2.1574 11.1134 3.0651C10.7031 3.97281 10.6029 4.99081 10.8281 5.96142C9.03339 5.87119 7.27762 5.40374 5.67468 4.58938C4.07175 3.77501 2.65744 2.63193 1.5235 1.23427C0.947843 2.2311 0.772164 3.41022 1.03214 4.5322C1.29211 5.65418 1.96825 6.6349 2.92325 7.27521C2.20762 7.25083 1.50772 7.05816 0.88 6.71274V6.77478C0.881234 7.81903 1.24205 8.83082 1.90145 9.63914C2.56086 10.4475 3.4784 11.0027 4.499 11.2111C4.11161 11.318 3.71144 11.3714 3.30963 11.3696C3.02635 11.3705 2.74365 11.3441 2.46537 11.291C2.75383 12.1899 3.3155 12.9759 4.07171 13.5388C4.82793 14.1016 5.74081 14.4133 6.6825 14.43C5.08276 15.6898 3.10668 16.373 1.0725 16.3697C0.714066 16.3712 0.355882 16.3505 0 16.3077C2.06458 17.6273 4.46228 18.328 6.91075 18.3273Z" fill="black"/>
</svg>
