<svg width="22" height="16" viewBox="0 0 22 16" fill="none" xmlns="http://www.w3.org/2000/svg">
<path d="M11.0708 0.39624H11.1932C12.3235 0.400227 18.0508 0.440094 19.595 0.841419C20.0618 0.963901 20.4872 1.20264 20.8286 1.53378C21.1701 1.86492 21.4156 2.27687 21.5407 2.72845C21.6796 3.23342 21.7772 3.90186 21.8432 4.59155L21.857 4.72976L21.8872 5.07527L21.8982 5.21347C21.9876 6.42808 21.9986 7.56561 22 7.81412V7.91378C21.9986 8.17159 21.9862 9.38619 21.8872 10.6513L21.8762 10.7908L21.8639 10.929C21.7951 11.6892 21.6934 12.444 21.5407 12.9995C21.416 13.4512 21.1706 13.8634 20.8291 14.1945C20.4876 14.5257 20.062 14.7644 19.595 14.8865C17.9999 15.3011 11.9371 15.3303 11.0969 15.3317H10.9017C10.4768 15.3317 8.71942 15.3237 6.8768 15.2626L6.64304 15.2546L6.52341 15.2493L6.28827 15.24L6.05313 15.2307C4.52678 15.1655 3.07332 15.0606 2.40365 14.8852C1.93679 14.7632 1.51131 14.5247 1.16982 14.1938C0.828329 13.8628 0.582826 13.451 0.457904 12.9995C0.305269 12.4453 0.203513 11.6892 0.134758 10.929L0.123758 10.7895L0.112757 10.6513C0.0448933 9.75084 0.00728777 8.84849 0 7.94568L0 7.78222C0.00275017 7.49651 0.0137509 6.50914 0.0880055 5.41945L0.0976311 5.28258L0.101756 5.21347L0.112757 5.07527L0.143009 4.72976L0.15676 4.59155C0.222764 3.90186 0.320395 3.2321 0.459279 2.72845C0.58399 2.27669 0.8294 1.86455 1.1709 1.53335C1.51241 1.20215 1.938 0.963534 2.40503 0.841419C3.07469 0.668663 4.52816 0.562352 6.0545 0.495907L6.28827 0.486605L6.52478 0.478632L6.64304 0.474645L6.87818 0.465343C8.18686 0.424645 9.49608 0.402051 10.8054 0.397569H11.0708V0.39624ZM8.80055 4.66198V11.0646L14.5168 7.86461L8.80055 4.66198Z" fill="black"/>
</svg>
